<svg width="187" height="187" viewBox="0 0 187 187" fill="none" xmlns="http://www.w3.org/2000/svg">
<path d="M1.875 93.5024L12.9046 82.883L4.97586 69.7833L18.3839 62.3884L14.1404 47.6769L29.0094 44.0186L28.7131 28.7093L44.0224 29.0059L47.6807 14.1366L62.3922 18.3805L69.7868 4.97246L82.8864 12.9016L93.5054 1.87158L104.125 12.9016L117.225 4.97246L124.619 18.3805L139.331 14.137L142.99 29.0063L158.298 28.7097L158.002 44.019L172.871 47.6773L168.628 62.3888L182.035 69.7837L174.107 82.883L185.136 93.5024L174.107 104.121L182.035 117.221L168.627 124.616L172.871 139.328L158.002 142.986L158.298 158.295L142.989 157.999L139.331 172.868L124.619 168.624L117.224 182.032L104.125 174.103L93.5054 185.133L82.8864 174.103L69.7864 182.032L62.3918 168.624L47.6799 172.868L44.022 157.998L28.7128 158.295L29.009 142.985L14.14 139.327L18.3835 124.616L4.97586 117.221L12.9046 104.121L1.875 93.5024Z" fill="#FFCE45"/>
<path d="M7.74902 93.5025L18.0718 83.5641L10.651 71.304L23.1993 64.3837L19.2281 50.6152L33.1438 47.1915L32.8666 32.864L47.1941 33.1412L50.6177 19.2255L64.3859 23.1971L71.3066 10.6492L83.5664 18.0696L93.5043 7.74719L103.443 18.0696L115.703 10.6492L122.624 23.1971L136.392 19.2259L139.815 33.1415L154.143 32.8643L153.866 47.1918L167.781 50.6159L163.81 64.384L176.358 71.3044L168.937 83.5641L179.26 93.5025L168.937 103.441L176.358 115.701L163.81 122.621L167.781 136.39L153.865 139.814L154.142 154.141L139.815 153.863L136.391 167.779L122.623 163.808L115.702 176.356L103.443 168.935L93.5043 179.258L83.5664 168.935L71.3063 176.356L64.3859 163.807L50.6174 167.779L47.1937 153.863L32.8658 154.141L33.1434 139.813L19.2277 136.389L23.1993 122.621L10.651 115.701L18.0718 103.441L7.74902 93.5025Z" fill="#FEA211"/>
<path d="M140.25 140.25C166.069 114.431 166.069 72.5693 140.25 46.75C114.431 20.9307 72.5693 20.9307 46.75 46.75C20.9307 72.5693 20.9307 114.431 46.75 140.25C72.5693 166.069 114.431 166.069 140.25 140.25Z" fill="#FFB019"/>
<path d="M93.5045 162.086C55.6877 162.086 24.9209 131.319 24.9209 93.5026C24.9209 55.6854 55.6873 24.9189 93.5045 24.9189C131.322 24.9189 162.088 55.6854 162.088 93.5026C162.088 131.319 131.322 162.086 93.5045 162.086ZM93.5045 26.1369C56.3592 26.1369 26.1392 56.3573 26.1392 93.5026C26.1392 130.648 56.3592 160.868 93.5045 160.868C130.65 160.868 160.87 130.648 160.87 93.5026C160.87 56.3573 130.65 26.1369 93.5045 26.1369Z" fill="#EED078"/>
<path d="M93.505 156.826C58.5883 156.826 30.1816 128.419 30.1816 93.5028C30.1816 58.5864 58.5883 30.1798 93.505 30.1798C128.422 30.1798 156.828 58.5864 156.828 93.5028C156.828 128.419 128.422 156.826 93.505 156.826ZM93.505 35.556C61.553 35.556 35.5582 61.5508 35.5582 93.5032C35.5582 125.456 61.553 151.45 93.505 151.45C125.457 151.45 151.452 125.456 151.452 93.5032C151.452 61.5508 125.457 35.556 93.505 35.556Z" fill="#CE7E1B"/>
<path d="M68.0547 133.89C68.0547 133.89 56.5813 136.209 54.3584 124.357C54.3584 124.357 65.15 126.298 68.0547 133.89Z" fill="#FFE266"/>
<path d="M72.3149 134.571C72.3149 134.571 64.5515 133.401 65.7424 120.806C65.7424 120.806 72.4525 124.53 72.3149 134.571Z" fill="#FFE266"/>
<path d="M59.2359 122.257C59.2359 122.257 47.5313 122.14 47.8207 110.086C47.8207 110.086 57.9735 114.228 59.2359 122.257Z" fill="#FFE266"/>
<path d="M63.262 123.809C63.262 123.809 55.9112 121.05 59.6946 108.978C59.6946 108.978 65.4842 114.015 63.262 123.809Z" fill="#FFE266"/>
<path d="M53.0072 109.721C53.0072 109.721 41.5369 107.389 44.1054 95.6073C44.1054 95.6073 53.289 101.598 53.0072 109.721Z" fill="#FFE266"/>
<path d="M56.6662 112.008C56.6662 112.008 49.9717 107.907 55.9738 96.7701C55.9738 96.7701 60.7044 102.813 56.6662 112.008Z" fill="#FFE266"/>
<path d="M49.1872 96.4599C49.1872 96.4599 38.9245 90.8304 44.8715 80.3407C44.8715 80.3407 51.8652 88.7855 49.1872 96.4599Z" fill="#FFE266"/>
<path d="M52.0029 99.7285C52.0029 99.7285 46.8255 93.8264 55.8608 84.9706C55.8608 84.9706 58.586 92.1446 52.0029 99.7285Z" fill="#FFE266"/>
<path d="M49.8782 82.3989C49.8782 82.3989 41.8007 73.9271 50.6444 65.7295C50.6444 65.7295 54.7536 75.8956 49.8782 82.3989Z" fill="#FFE266"/>
<path d="M51.5723 86.3676C51.5723 86.3676 48.4246 79.175 59.7162 73.4698C59.7162 73.4698 60.1421 81.1325 51.5723 86.3676Z" fill="#FFE266"/>
<path d="M119.861 133.89C119.861 133.89 131.335 136.209 133.558 124.357C133.558 124.357 122.766 126.298 119.861 133.89Z" fill="#FFE266"/>
<path d="M115.601 134.571C115.601 134.571 123.364 133.401 122.173 120.806C122.173 120.806 115.463 124.53 115.601 134.571Z" fill="#FFE266"/>
<path d="M128.681 122.257C128.681 122.257 140.385 122.14 140.096 110.086C140.096 110.086 129.943 114.228 128.681 122.257Z" fill="#FFE266"/>
<path d="M124.654 123.809C124.654 123.809 132.005 121.05 128.222 108.978C128.222 108.978 122.432 114.015 124.654 123.809Z" fill="#FFE266"/>
<path d="M134.908 109.721C134.908 109.721 146.378 107.389 143.81 95.6073C143.81 95.6073 134.626 101.598 134.908 109.721Z" fill="#FFE266"/>
<path d="M131.25 112.008C131.25 112.008 137.944 107.907 131.942 96.7701C131.942 96.7701 127.211 102.813 131.25 112.008Z" fill="#FFE266"/>
<path d="M138.728 96.4599C138.728 96.4599 148.991 90.8304 143.044 80.3407C143.044 80.3407 136.05 88.7855 138.728 96.4599Z" fill="#FFE266"/>
<path d="M135.913 99.7285C135.913 99.7285 141.09 93.8264 132.055 84.9706C132.055 84.9706 129.33 92.1446 135.913 99.7285Z" fill="#FFE266"/>
<path d="M138.037 82.3989C138.037 82.3989 146.115 73.9271 137.271 65.7295C137.271 65.7295 133.162 75.8956 138.037 82.3989Z" fill="#FFE266"/>
<path d="M136.343 86.3676C136.343 86.3676 139.49 79.175 128.199 73.4698C128.199 73.4698 127.773 81.1325 136.343 86.3676Z" fill="#FFE266"/>
<path d="M93.505 163.769C54.7593 163.769 23.2373 132.248 23.2373 93.502C23.2373 54.7562 54.7593 23.2343 93.505 23.2343C132.251 23.2343 163.773 54.7558 163.773 93.502C163.773 132.248 132.251 163.769 93.505 163.769ZM93.505 30.4033C58.7126 30.4033 30.4067 58.7092 30.4067 93.502C30.4067 128.294 58.7126 156.6 93.505 156.6C128.297 156.6 156.603 128.294 156.603 93.502C156.604 58.7092 128.298 30.4033 93.505 30.4033Z" fill="#FCD575"/>
<path d="M61.7131 29.4086L65.6574 19.4452L69.3491 29.5467L76.2611 33.4909L69.2111 37.1827L65.2669 49.8527L61.5751 37.0446L54.6631 33.1008L61.7131 29.4086Z" fill="white"/>
<path d="M94.3 144.266C97.2692 144.266 99.6763 141.859 99.6763 138.89C99.6763 135.92 97.2692 133.513 94.3 133.513C91.3308 133.513 88.9238 135.92 88.9238 138.89C88.9238 141.859 91.3308 144.266 94.3 144.266Z" fill="#FFE266"/>
<path d="M107.741 141.578C109.968 141.578 111.774 139.773 111.774 137.546C111.774 135.319 109.968 133.513 107.741 133.513C105.514 133.513 103.709 135.319 103.709 137.546C103.709 139.773 105.514 141.578 107.741 141.578Z" fill="#FFE266"/>
<path d="M79.5149 141.578C81.7419 141.578 83.5473 139.773 83.5473 137.546C83.5473 135.319 81.7419 133.513 79.5149 133.513C77.2878 133.513 75.4824 135.319 75.4824 137.546C75.4824 139.773 77.2878 141.578 79.5149 141.578Z" fill="#FFE266"/>
<path d="M92.9564 42.5883L95.2903 49.7714H102.843L96.7329 54.211L99.0668 61.3946L92.9564 56.9549L86.8459 61.3946L89.1798 54.211L83.0693 49.7714H90.6224L92.9564 42.5883Z" fill="#FFE266"/>
<path d="M82.0561 87.6663C81.9282 87.6297 78.8664 86.7223 73.8414 82.4457C68.6485 78.0262 68.4821 70.7278 68.4776 70.4194C68.474 70.1687 68.5702 69.9269 68.7452 69.7472C68.92 69.5677 69.1593 69.465 69.41 69.4622L78.3207 69.3573L78.3427 71.2441L70.4386 71.3372C70.6625 73.3299 71.554 78.0213 75.0644 81.0089C79.7285 84.9783 82.5511 85.8451 82.579 85.8533L82.0561 87.6663Z" fill="#FCAB28"/>
<path d="M104.799 87.6664L104.28 85.8521C104.304 85.8451 107.126 84.9782 111.79 81.0089C115.301 78.0215 116.192 73.3307 116.416 71.3372L108.512 71.2441L108.534 69.3573L117.445 69.4622C117.696 69.465 117.935 69.5677 118.11 69.7472C118.285 69.9269 118.381 70.1687 118.377 70.4194C118.373 70.7278 118.206 78.0262 113.013 82.4457C107.988 86.7224 104.927 87.6299 104.799 87.6664Z" fill="#FCAB28"/>
<path d="M77.9124 69.4616C77.9124 69.4616 76.7593 69.0423 76.7593 67.8891C76.7593 66.736 76.5496 66.2118 77.598 65.1635C78.6463 64.1152 86.5785 62.6825 92.9732 62.6825C99.3679 62.6825 108.104 64.4297 109.152 65.3732C110.2 66.3166 109.781 68.8325 109.571 69.2519C109.362 69.6712 108.523 69.5664 108.523 69.5664L77.9124 69.4616Z" fill="#FFCF3F"/>
<path d="M92.903 66.2123C88.9557 66.2123 80.6377 66.7365 77.5977 68.9379C77.5977 68.9379 77.5977 80.2597 80.7426 86.0254C83.8875 91.7911 89.4436 96.5085 89.4436 96.5085H92.274H93.1126H96.9914C96.9914 96.5085 102.547 91.7911 105.692 86.0254C108.837 80.2597 108.837 68.9379 108.837 68.9379C105.483 66.7365 96.8503 66.2123 92.903 66.2123Z" fill="#FFD733"/>
<path d="M92.903 66.2123C88.9557 66.2123 80.6377 66.7365 77.5977 68.9379C77.5977 68.9379 77.5977 80.2597 80.7426 86.0254C82.2325 88.757 84.2631 91.2521 85.9882 93.1229C87.195 93.6353 88.5824 93.9579 90.1774 93.9926C99.8219 94.2023 102.338 86.0254 103.386 83.0901C105.038 78.4655 105.978 71.2041 106.347 67.8342C102.294 66.5528 96.081 66.2123 92.903 66.2123Z" fill="#FFE266"/>
<path d="M104.015 110.661C103.072 107.83 101.08 108.25 101.08 108.25C101.08 108.25 101.076 107.34 99.6823 107.209C98.8185 106.943 96.5924 106.088 95.8383 104.161C94.8948 101.75 95.3141 98.71 95.3141 98.71L93.2175 98.4365L91.1209 98.71C91.1209 98.71 91.5402 101.75 90.5968 104.161C89.8426 106.088 87.6166 106.943 86.7528 107.209C85.3586 107.34 85.3552 108.25 85.3552 108.25C85.3552 108.25 83.3634 107.83 82.4199 110.661H104.015Z" fill="#FFCE45"/>
<path d="M85.3555 108.249C86.6659 108.165 87.9762 108.108 89.2867 108.079C90.597 108.044 91.9074 108.035 93.2178 108.031C94.5282 108.035 95.8386 108.044 97.149 108.079C98.4594 108.107 99.7698 108.164 101.08 108.249C99.7698 108.335 98.4594 108.392 97.149 108.42C95.8386 108.455 94.5282 108.464 93.2178 108.468C91.9074 108.464 90.597 108.455 89.2867 108.42C87.9762 108.391 86.6658 108.334 85.3555 108.249Z" fill="#FCAB28"/>
<path d="M96.9917 97.976H89.5487C89.0855 97.976 88.71 97.6004 88.71 97.1373C88.71 96.6741 89.0854 96.2986 89.5487 96.2986H96.9917C97.4548 96.2986 97.8304 96.674 97.8304 97.1373C97.8304 97.6004 97.4548 97.976 96.9917 97.976Z" fill="#FCAB28"/>
<path d="M96.5722 99.0347H89.9678C89.5568 99.0347 89.2236 98.7015 89.2236 98.2905C89.2236 97.8796 89.5568 97.5464 89.9678 97.5464H96.5722C96.9832 97.5464 97.3163 97.8796 97.3163 98.2905C97.3163 98.7016 96.9832 99.0347 96.5722 99.0347Z" fill="#FCAB28"/>
<path d="M82.1463 110.556H105.024C105.799 110.556 106.427 111.184 106.427 111.959V121.627C106.427 122.402 105.799 123.031 105.024 123.031H82.1463C81.3713 123.031 80.7432 122.402 80.7432 121.627V111.959C80.7432 111.184 81.3714 110.556 82.1463 110.556Z" fill="#6C554F"/>
<path d="M86.0054 112.715H101.164C101.523 112.715 101.814 113.006 101.814 113.365V118.649C101.814 119.008 101.523 119.299 101.164 119.299H86.0054C85.6465 119.299 85.3555 119.008 85.3555 118.649V113.365C85.3555 113.006 85.6465 112.715 86.0054 112.715Z" fill="#FCAB28"/>
<path d="M88.0946 112.715H93.3084C93.4318 112.715 93.5319 113.006 93.5319 113.365V118.649C93.5319 119.008 93.4319 119.299 93.3084 119.299H88.0946C87.9712 119.299 87.8711 119.008 87.8711 118.649V113.365C87.871 113.006 87.9712 112.715 88.0946 112.715Z" fill="#FFD733"/>
<path d="M89.4434 96.5083C90.0724 96.4631 90.7014 96.442 91.3303 96.4245C91.9593 96.4045 92.5883 96.4016 93.2173 96.3989C93.8462 96.4014 94.4753 96.4043 95.1042 96.4241L96.0477 96.4546C96.3622 96.4728 96.6766 96.4835 96.9912 96.5083C96.6767 96.5331 96.3622 96.5437 96.0477 96.5619L95.1042 96.5924C94.4753 96.6123 93.8462 96.6151 93.2173 96.6176C92.5883 96.6149 91.9593 96.6121 91.3303 96.592C90.7013 96.5746 90.0723 96.5534 89.4434 96.5083Z" fill="#FFE266"/>
<path d="M89.4785 97.7662C90.1192 97.7211 90.7598 97.6999 91.4004 97.6824C92.0411 97.6624 92.6817 97.6596 93.3224 97.6569C93.963 97.6593 94.6037 97.6622 95.2443 97.6821L96.2053 97.7127C96.5256 97.7308 96.8459 97.7415 97.1662 97.7663C96.8459 97.7911 96.5256 97.8018 96.2053 97.8199L95.2443 97.8504C94.6037 97.8703 93.963 97.8732 93.3224 97.8756C92.6817 97.8729 92.0411 97.87 91.4004 97.85C90.7598 97.8324 90.1192 97.8113 89.4785 97.7662Z" fill="#FFE266"/>
<path d="M91.1943 99.1639C91.8688 99.0779 92.5433 99.0581 93.2179 99.0546C93.8924 99.0576 94.5669 99.0774 95.2414 99.1639C94.5669 99.2504 93.8924 99.2702 93.2179 99.2733C92.5433 99.2698 91.8688 99.25 91.1943 99.1639Z" fill="#FFE266"/>
<path d="M82.874 109.647C84.5979 109.562 86.3218 109.506 88.0457 109.477C89.7696 109.442 91.4935 109.433 93.2174 109.428C94.9412 109.432 96.6651 109.441 98.389 109.476C100.113 109.505 101.837 109.562 103.561 109.647C101.837 109.732 100.113 109.789 98.389 109.818C96.6651 109.853 94.9412 109.862 93.2174 109.866C91.4935 109.861 89.7696 109.852 88.0457 109.817C86.3217 109.788 84.5978 109.732 82.874 109.647Z" fill="#FCAB28"/>
<g opacity="0.48">
<path d="M87.6061 62.9628C85.845 63.1341 84.1377 63.3717 82.6415 63.6422C82.4681 68.8189 82.413 77.4692 83.6788 82.2513C85.5658 89.3798 88.9204 92.9442 88.9204 92.9442C88.9204 92.9442 86.8237 82.4611 87.0334 73.2359C87.1338 68.8182 87.3784 65.3652 87.6061 62.9628Z" fill="#FFFFFD"/>
</g>
<path d="M108.837 68.9377C107.676 68.2731 106.389 67.8929 105.096 67.5974C103.8 67.3008 102.485 67.0935 101.165 66.9318C99.8443 66.7773 98.5191 66.6549 97.1909 66.5759C95.8632 66.4932 94.5327 66.4391 93.204 66.4334C91.8759 66.4205 90.5453 66.466 89.2173 66.5401C87.8885 66.6085 86.563 66.727 85.2422 66.8798C83.9225 67.0402 82.6063 67.2401 81.3122 67.5406C80.0217 67.84 78.7328 68.2277 77.5977 68.9377C78.1412 68.5526 78.7284 68.2153 79.3553 67.9773C79.5107 67.9147 79.6646 67.8469 79.8217 67.7885L80.2978 67.6272C80.6137 67.5132 80.9362 67.4225 81.2592 67.3327C82.5529 66.9795 83.8724 66.7319 85.1977 66.5411C87.8502 66.1642 90.5261 65.9928 93.2065 65.9959C95.8854 66.0262 98.5593 66.2135 101.211 66.5946C102.535 66.7866 103.854 67.0414 105.148 67.3905C105.473 67.4715 105.791 67.5783 106.11 67.6806C106.432 67.7752 106.743 67.9 107.056 68.0213C107.372 68.1318 107.67 68.2881 107.973 68.4301C108.127 68.4973 108.269 68.5858 108.411 68.6752L108.837 68.9377Z" fill="#FCAB28"/>
<path d="M86.3778 71.2301L87.3568 69.5145L88.2731 71.2643L89.9888 72.2434L88.2389 73.1597L87.2599 74.8753L86.3436 73.1255L84.6279 72.1465L86.3778 71.2301Z" fill="white"/>
<g opacity="0.35">
<path d="M83.2334 123.031H87.1185L96.8213 110.556H92.3568L83.2334 123.031Z" fill="white"/>
</g>
<g opacity="0.35">
<path d="M92.8246 123.031L102.448 110.556H100.623L90.9004 123.031H92.8246Z" fill="white"/>
</g>
</svg>
