<svg width="115" height="90" viewBox="0 0 115 90" fill="none" xmlns="http://www.w3.org/2000/svg">
<path fill-rule="evenodd" clip-rule="evenodd" d="M57.4988 0L1.4799 35.1158C0.982491 35.4178 0.488596 35.7275 0 36.0435H15.2596V47.3299V90H99.7377V36.0435L115 36.0395C95.9272 23.9208 76.6541 12.0078 57.4988 0Z" fill="#9B1915"/>
<g clip-path="url(#clip0_204_1501)">
<path d="M74.4062 49.4578V34.9375H75.9688C76.1759 34.9375 76.3747 34.8552 76.5212 34.7087C76.6677 34.5622 76.75 34.3635 76.75 34.1562V31.0312C76.75 30.824 76.6677 30.6253 76.5212 30.4788C76.3747 30.3323 76.1759 30.25 75.9688 30.25H74.4062V25.5625C74.4062 25.3553 74.3239 25.1566 74.1774 25.0101C74.0309 24.8636 73.8322 24.7812 73.625 24.7812H65.8125C65.6053 24.7812 65.4066 24.8636 65.2601 25.0101C65.1136 25.1566 65.0312 25.3553 65.0312 25.5625V30.25H63.4688C63.2615 30.25 63.0628 30.3323 62.9163 30.4788C62.7698 30.6253 62.6875 30.824 62.6875 31.0312V34.1562C62.6875 34.3635 62.7698 34.5622 62.9163 34.7087C63.0628 34.8552 63.2615 34.9375 63.4688 34.9375H65.0312V40.0828L58.5523 33.6039C58.4058 33.4574 58.2072 33.3752 58 33.3752C57.7928 33.3752 57.5942 33.4574 57.4477 33.6039L34.0102 57.0414C33.8636 57.1879 33.7813 57.3866 33.7812 57.5938V63.8438C33.7813 63.9982 33.8271 64.1493 33.913 64.2777C33.9988 64.4061 34.1208 64.5063 34.2636 64.5654C34.4063 64.6245 34.5633 64.64 34.7149 64.6098C34.8664 64.5797 35.0056 64.5053 35.1148 64.3961L40.8125 58.6984V72.4375C40.8125 72.6447 40.8948 72.8434 41.0413 72.9899C41.1878 73.1364 41.3865 73.2188 41.5938 73.2188H46.2812C46.4885 73.2188 46.6872 73.1364 46.8337 72.9899C46.9802 72.8434 47.0625 72.6447 47.0625 72.4375V60.7188H68.9375V72.4375C68.9375 72.6447 69.0198 72.8434 69.1663 72.9899C69.3128 73.1364 69.5116 73.2188 69.7188 73.2188H74.4062C74.6134 73.2188 74.8122 73.1364 74.9587 72.9899C75.1052 72.8434 75.1875 72.6447 75.1875 72.4375V58.6984L80.8852 64.3961C81.0316 64.5426 81.2303 64.625 81.4375 64.625C81.5402 64.6253 81.6419 64.6051 81.7367 64.5656C81.8794 64.5065 82.0014 64.4063 82.0872 64.2778C82.173 64.1493 82.2188 63.9983 82.2188 63.8438V57.5938C82.2187 57.3866 82.1364 57.1879 81.9898 57.0414L74.4062 49.4578ZM66.5938 26.3438H72.8438V30.25H66.5938V26.3438ZM64.25 33.375V31.8125H75.1875V33.375H64.25ZM72.8438 34.9375V47.8953L66.5938 41.6453V34.9375H72.8438ZM45.5 71.6562H42.375V57.1359L45.5 54.0109V71.6562ZM68.9375 59.1562H47.0625V57.5938H68.9375V59.1562ZM47.0625 56.0312V52.4484L55.6562 43.8547V56.0312H47.0625ZM57.2188 56.0312V42.2922L58 41.5109L58.7812 42.2922V56.0312H57.2188ZM68.9375 56.0312H60.3438V43.8547L68.9375 52.4484V56.0312ZM73.625 71.6562H70.5V54.0109L73.625 57.1359V71.6562ZM80.6562 61.9578L58.5523 39.8539C58.4058 39.7074 58.2072 39.6252 58 39.6252C57.7928 39.6252 57.5942 39.7074 57.4477 39.8539L35.3438 61.9578V57.9172L58 35.2609L80.6562 57.9172V61.9578Z" fill="white"/>
</g>
<defs>
<clipPath id="clip0_204_1501">
<rect width="50" height="50" fill="white" transform="translate(33 24)"/>
</clipPath>
</defs>
</svg>
