<svg width="60" height="70" viewBox="0 0 60 70" fill="none" xmlns="http://www.w3.org/2000/svg">
<g clip-path="url(#clip0_89_9792)">
<path d="M53.0477 37.543C52.5288 37.543 52.1082 38.031 52.1082 38.6331V67.7736H24.9893C24.4704 67.7736 24.0498 68.2616 24.0498 68.8637C24.0498 69.4657 24.4703 69.9537 24.9893 69.9537H53.0477C53.5666 69.9537 53.9872 69.4657 53.9872 68.8637V38.6329C53.9872 38.031 53.5665 37.543 53.0477 37.543Z" fill="white"/>
<path d="M59.6283 26.1373L30.5678 0.557571C30.2321 0.262105 29.7678 0.262105 29.4322 0.557571L17.9123 10.6975V7.16702H18.9771C19.496 7.16702 19.9166 6.67902 19.9166 6.07694V1.42602C19.9166 0.824076 19.4961 0.335938 18.9771 0.335938H4.94796C4.42905 0.335938 4.00847 0.82394 4.00847 1.42602V6.07694C4.00847 6.67888 4.42894 7.16702 4.94796 7.16702H6.01272V21.1721L0.37167 26.1373C0.0503417 26.4201 -0.0796193 26.9096 0.0491698 27.3531C0.177724 27.7968 0.536201 28.0957 0.93956 28.0957H6.01261V68.8633C6.01261 69.4652 6.43308 69.9533 6.9521 69.9533H18.9772C19.4961 69.9533 19.9167 69.4653 19.9167 68.8633C19.9167 68.2612 19.4962 67.7732 18.9772 67.7732H7.89147V27.0056C7.89147 26.4036 7.47101 25.9155 6.95198 25.9155H3.73226L30.0001 2.79431L56.2678 25.9158H53.048C52.5291 25.9158 52.1085 26.4038 52.1085 27.0058V32.8195C52.1085 33.4214 52.529 33.9095 53.048 33.9095C53.5669 33.9095 53.9875 33.4215 53.9875 32.8195V28.0958H59.0606C59.4641 28.0958 59.8224 27.7969 59.951 27.3533C60.0795 26.9096 59.9497 26.4202 59.6283 26.1373ZM5.88733 4.98685V2.51611H18.0376V4.98685H5.88733ZM16.0335 12.3515L7.89159 19.5182V7.16702H16.0335V12.3515Z" fill="white"/>
<path d="M50.031 55.6321L41.5118 44.0054C41.3504 43.7851 41.1203 43.6483 40.8719 43.625L38.0468 43.3595C38.0401 43.359 38.0335 43.3593 38.0267 43.3589L36.1721 40.8277L40.3792 35.9462L41.132 36.8197C41.4938 37.2394 42.0989 37.2394 42.4606 36.8197L45.2949 33.5311C45.3493 33.468 45.3967 33.3976 45.4363 33.3211L47.562 29.2102C47.7839 28.7813 47.7255 28.2321 47.4207 27.8786L46.0037 26.2344C45.6989 25.8808 45.2257 25.8129 44.8561 26.0705L41.3131 28.537C41.2473 28.5828 41.1863 28.6379 41.1321 28.701L38.2977 31.9897C37.936 32.4093 37.936 33.1116 38.2977 33.5312L39.0505 34.4047L34.951 39.1614L30.5095 33.0999L32.2173 31.4154L40.1469 28.1541C40.7565 27.9034 40.9683 26.9915 40.5479 26.4194L37.5902 22.3953C36.1272 20.3988 34.0821 19.1828 31.8308 18.9712C29.579 18.7597 27.3924 19.5782 25.6719 21.2754L16.8443 29.9836L16.7042 29.7924C16.2167 29.127 15.5349 28.7215 14.7846 28.6511C14.0356 28.5809 13.3051 28.8533 12.7315 29.4192L11.0137 31.1136C9.8435 32.268 9.69654 34.3646 10.6921 35.7232L17.9942 45.6889C18.9887 47.0467 20.7962 47.2171 21.967 46.0621L23.6847 44.3676C24.2905 43.7702 24.6525 42.893 24.6764 41.9711C24.6997 41.0728 24.3963 40.2901 23.9031 39.6169L26.0243 37.5244L30.7744 44.0074L28.9814 46.0878L28.2287 45.2145C28.0524 45.01 27.8136 44.8952 27.5644 44.8952H24.7301C24.4809 44.8952 24.2421 45.01 24.0657 45.2145L14.7658 56.0051C13.6794 57.2656 13.6793 59.3691 14.7657 60.6297L17.7771 64.1239C18.8635 65.3807 20.677 65.3838 21.763 64.1239L31.0631 53.3329C31.2392 53.1286 31.3381 52.8513 31.3381 52.5622V49.2736C31.3381 48.9846 31.2392 48.7073 31.0631 48.5029L30.3103 47.6295L31.9957 45.6739L33.9162 48.2949L33.752 50.6484C33.7319 50.9367 33.8114 51.2222 33.9726 51.4424L42.4918 63.0691C43.4852 64.4248 45.2954 64.5957 46.4645 63.4423L49.7093 60.2417C50.8795 59.0874 51.0266 56.9908 50.031 55.6321ZM42.3791 30.3375L45.1939 28.3779L45.5736 28.8186L43.8848 32.0846L41.7965 34.5076L40.2908 32.7605L42.3791 30.3375ZM20.4346 62.5824C20.0679 63.0075 19.4721 63.0072 19.1058 62.5824H19.1059L16.0944 59.0882C15.7324 58.6681 15.7325 57.9667 16.0945 57.5467L24.0217 48.3487L28.3617 53.3845L20.4346 62.5824ZM29.4596 51.5752L25.5813 47.0752H27.1756L28.3173 48.3997C28.3174 48.3999 28.3175 48.4 28.3175 48.4001C28.3175 48.4003 28.3178 48.4003 28.3179 48.4004L29.4596 49.7252V51.5752ZM31.6797 21.1442C33.4306 21.3087 35.0215 22.2544 36.1601 23.8086L38.2328 26.6286L32.0373 29.1766L27.2328 22.6196C28.5126 21.5153 30.0756 20.9933 31.6797 21.1442ZM22.796 41.9639C22.7757 42.2542 22.6592 42.5179 22.4682 42.7063C22.4682 42.7063 22.4682 42.7063 22.4681 42.7063L20.7503 44.4008C20.36 44.7857 19.7574 44.7286 19.4262 44.2764L12.124 34.3108C11.7921 33.8578 11.8412 33.1589 12.2312 32.7743L13.949 31.0798C14.3394 30.6946 14.9416 30.7518 15.2731 31.2042L22.5753 41.1698C22.7379 41.3916 22.8162 41.6738 22.796 41.9639ZM22.6864 37.9559L18.0616 31.6442L25.7915 24.0189L30.4163 30.3306L22.6864 37.9559ZM27.4562 36.1122L29.0784 34.5119L36.426 44.5394L34.8036 46.1399L27.4562 36.1122ZM48.4925 58.5805C48.4925 58.5805 48.4925 58.5805 48.4924 58.5805L45.2476 61.7813C44.8574 62.1662 44.255 62.1095 43.9235 61.6568L35.6564 50.3742L35.8222 47.9963L38.283 45.5687L40.3323 45.7612L48.5995 57.044C48.9315 57.4968 48.8824 58.1958 48.4925 58.5805Z" fill="white"/>
</g>
<defs>
<clipPath id="clip0_89_9792">
<rect width="60" height="69.6175" fill="white" transform="translate(0 0.335938)"/>
</clipPath>
</defs>
</svg>
