<svg width="38" height="38" viewBox="0 0 38 38" fill="none" xmlns="http://www.w3.org/2000/svg">
<path d="M28.0526 24.8364C27.7285 24.5112 27.3435 24.2532 26.9195 24.0772C26.4955 23.9011 26.041 23.8105 25.5819 23.8105C25.1228 23.8105 24.6682 23.9011 24.2443 24.0772C23.8203 24.2532 23.4352 24.5112 23.1112 24.8364L21.4253 26.5223C19.5271 25.3176 17.7684 23.906 16.1816 22.3134C14.5923 20.7235 13.181 18.9652 11.9726 17.0697L13.6585 15.3838C13.9837 15.0597 14.2417 14.6747 14.4178 14.2507C14.5938 13.8267 14.6844 13.3722 14.6844 12.9131C14.6844 12.454 14.5938 11.9994 14.4178 11.5755C14.2417 11.1515 13.9837 10.7664 13.6585 10.4424L10.3681 7.1636C10.0487 6.83734 9.66685 6.57864 9.24541 6.40287C8.82396 6.22711 8.37148 6.13786 7.91486 6.14044C7.455 6.13931 6.99945 6.22913 6.57444 6.40472C6.14942 6.58032 5.76331 6.83822 5.43834 7.1636L3.85709 8.73322C3.1034 9.54358 2.5409 10.5125 2.21092 11.5689C1.88094 12.6252 1.79188 13.7421 1.95029 14.8373C2.32235 19.1974 5.18255 24.4411 9.58913 28.8593C13.9957 33.2775 19.2976 36.1261 23.6576 36.5447C23.9829 36.5621 24.309 36.5621 24.6343 36.5447C25.5728 36.5841 26.5098 36.4357 27.3903 36.1083C28.2707 35.7809 29.077 35.2809 29.7617 34.6379L31.3314 33.0566C31.6567 32.7316 31.9146 32.3455 32.0902 31.9205C32.2658 31.4955 32.3556 31.04 32.3545 30.5801C32.3571 30.1235 32.2678 29.671 32.0921 29.2496C31.9163 28.8281 31.6576 28.4463 31.3314 28.1268L28.0526 24.8364ZM29.692 31.4172L28.1107 32.9869C27.5261 33.4741 26.8435 33.8301 26.1094 34.0307C25.3752 34.2313 24.6065 34.2718 23.8553 34.1495C20.0766 33.824 15.263 31.1498 11.2867 27.1734C7.31027 23.197 4.63609 18.4184 4.27566 14.6397C4.15027 13.8885 4.18929 13.119 4.39002 12.3844C4.59074 11.6497 4.94841 10.9673 5.43834 10.3842L7.07773 8.80299C7.18637 8.69523 7.31522 8.60997 7.45688 8.55211C7.59853 8.49425 7.75022 8.46492 7.90324 8.46581C8.05625 8.46492 8.20794 8.49425 8.3496 8.55211C8.49126 8.60997 8.6201 8.69523 8.72874 8.80299L12.0191 12.1283C12.2357 12.3461 12.3572 12.6408 12.3572 12.948C12.3572 13.2551 12.2357 13.5498 12.0191 13.7677L9.69377 16.093C9.51181 16.2741 9.39488 16.5103 9.36123 16.7648C9.32758 17.0193 9.3791 17.2777 9.50774 17.4999C10.8999 19.87 12.592 22.0505 14.5422 23.9877C16.4793 25.9378 18.6599 27.6299 21.03 29.0221C21.2521 29.1507 21.5106 29.2023 21.7651 29.1686C22.0195 29.135 22.2557 29.018 22.4368 28.8361L24.7622 26.5107C24.98 26.2941 25.2747 26.1726 25.5819 26.1726C25.889 26.1726 26.1837 26.2941 26.4016 26.5107L29.692 29.8011C29.7997 29.9097 29.885 30.0386 29.9428 30.1802C30.0007 30.3219 30.03 30.4736 30.0291 30.6266C30.0219 30.9235 29.9012 31.2064 29.692 31.4172Z" fill="white"/>
<path d="M31.7157 6.76829C30.0998 5.14631 28.1789 3.86022 26.0637 2.98419C23.9484 2.10816 21.6807 1.6595 19.3912 1.6641C19.0828 1.6641 18.7871 1.78659 18.5691 2.00464C18.351 2.22269 18.2285 2.51842 18.2285 2.82678C18.2285 3.13515 18.351 3.43088 18.5691 3.64893C18.7871 3.86697 19.0828 3.98947 19.3912 3.98947C21.3869 3.9894 23.3629 4.38455 25.2051 5.15213C27.0473 5.91971 28.7193 7.04452 30.1245 8.46165C31.5298 9.87877 32.6404 11.5602 33.3925 13.4088C34.1445 15.2574 34.523 17.2366 34.5061 19.2323C34.5061 19.5406 34.6286 19.8364 34.8467 20.0544C35.0647 20.2725 35.3604 20.395 35.6688 20.395C35.9772 20.395 36.2729 20.2725 36.4909 20.0544C36.709 19.8364 36.8315 19.5406 36.8315 19.2323C36.8538 16.9185 36.4126 14.6236 35.534 12.483C34.6553 10.3423 33.3571 8.39926 31.7157 6.76829Z" fill="white"/>
<path d="M25.0994 13.4188C25.7592 14.0746 26.2812 14.8559 26.6347 15.7165C26.9881 16.5771 27.1658 17.4997 27.1574 18.43C27.1574 18.7383 27.2799 19.0341 27.4979 19.2521C27.7159 19.4702 28.0117 19.5927 28.32 19.5927C28.6284 19.5927 28.9241 19.4702 29.1422 19.2521C29.3602 19.0341 29.4827 18.7383 29.4827 18.43C29.4981 17.1987 29.2689 15.9767 28.8083 14.8347C28.3478 13.6928 27.6651 12.6536 26.7998 11.7775C25.9346 10.9015 24.904 10.2059 23.7678 9.7312C22.6317 9.2565 21.4126 9.01211 20.1812 9.01221C19.8729 9.01221 19.5771 9.1347 19.3591 9.35275C19.1411 9.5708 19.0186 9.86653 19.0186 10.1749C19.0186 10.4833 19.1411 10.779 19.3591 10.997C19.5771 11.2151 19.8729 11.3376 20.1812 11.3376C21.0975 11.3445 22.0035 11.5318 22.8474 11.8889C23.6912 12.246 24.4565 12.7659 25.0994 13.4188Z" fill="white"/>
</svg>
