<svg width="59" height="58" viewBox="0 0 59 58" fill="none" xmlns="http://www.w3.org/2000/svg">
<path d="M4.18457 45.4628C4.18457 47.824 5.12265 50.0605 6.84576 51.7765C8.57428 53.4518 10.8484 54.3749 13.2503 54.3749H45.75C48.1519 54.3749 50.426 53.4518 52.1725 51.7588C53.8776 50.0605 54.8157 47.824 54.8157 45.4628V20.6144C54.7706 20.0233 54.4992 19.4819 54.0216 19.1241L32.6835 4.60371C30.7785 3.30628 28.2217 3.30717 26.3168 4.60282L4.97861 19.1241C4.50109 19.4818 4.22965 20.0235 4.18457 20.6144V45.4628ZM49.5653 49.1958C48.5318 50.1976 47.176 50.7499 45.75 50.7499H13.2503C11.8242 50.7499 10.4684 50.1976 9.45294 49.2135C8.43384 48.1975 7.87207 46.8656 7.87207 45.4628V24.7694L20.2297 36.0417L13.5005 42.6715C13.0864 43.0034 12.8235 43.5114 12.8235 44.0796C12.8235 45.0805 13.6572 45.8921 14.6763 45.8921C15.166 45.8921 15.636 45.7009 15.9817 45.3602L22.9351 38.5095L25.7388 41.067C26.7921 42.0281 28.1461 42.5087 29.5001 42.5087C30.8541 42.5087 32.2081 42.0281 33.2632 41.0661L36.0654 38.5099L43.0186 45.3602C43.3643 45.7009 43.8522 45.8921 44.3419 45.8921C45.3611 45.8921 46.1767 45.0805 46.1767 44.0796C46.1767 43.5433 45.9372 43.0618 45.5591 42.7299L38.7709 36.042L51.1282 24.7695V45.4628C51.1282 46.8656 50.5664 48.1975 49.5653 49.1958ZM28.4162 7.58265C29.0644 7.14191 29.9359 7.14103 30.584 7.58353L50.0349 20.8204L30.7551 38.4084C30.0493 39.0509 28.9492 39.0501 28.2469 38.4093L8.96533 20.8204L28.4162 7.58265Z" fill="white"/>
</svg>
