<svg width="60" height="60" viewBox="0 0 60 60" fill="none" xmlns="http://www.w3.org/2000/svg">
<path d="M54.5948 22.939H5.37402V57.3524H54.5948V22.939Z" fill="#CFDCE5"/>
<path d="M54.5948 22.939H5.37402V26.6408H54.5948V22.939Z" fill="#BAC6CC"/>
<path d="M58.957 22.9393H1.01367L6.20719 12.0121L8.12531 7.97705H51.8454L58.957 22.9393Z" fill="#FCD577"/>
<path d="M12.954 7.97705L11.4075 14.713L6.20703 12.0121L8.12516 7.97705H12.954Z" fill="#EAC36E"/>
<path d="M28.1345 30.3428H11.9561V44.4646H28.1345V30.3428Z" fill="#4EBFED"/>
<path d="M28.1336 30.3428V44.4647H16.8457L21.5882 30.3428H28.1336Z" fill="#92DDF4"/>
<path d="M48.6997 30.3428H36.1875V57.3525H48.6997V30.3428Z" fill="#DCE8EF"/>
<path d="M45.2722 33.7705H39.6152V53.925H45.2722V33.7705Z" fill="#4EBFED"/>
<path d="M20.7304 2.64746H11.4072V14.7127H20.7304V2.64746Z" fill="#FF6F52"/>
<path d="M29.7107 44.4648H10.3789V47.8925H29.7107V44.4648Z" fill="#DCE8EF"/>
<path d="M23.6934 9.00537H43.7793C44.3473 9.00537 44.8076 8.54494 44.8076 7.97705C44.8076 7.40916 44.3473 6.94873 43.7793 6.94873H23.6934C23.1255 6.94873 22.665 7.40916 22.665 7.97705C22.665 8.54494 23.1255 9.00537 23.6934 9.00537Z" fill="black"/>
<path d="M59.9003 22.4977L52.7887 7.53547C52.6184 7.17699 52.2569 6.94848 51.8601 6.94848H47.2067C46.6387 6.94848 46.1784 7.40891 46.1784 7.9768C46.1784 8.54469 46.6387 9.00512 47.2067 9.00512H51.2102L57.3442 21.9109H54.6104H5.38961H2.65562L8.78969 9.00512H10.394V14.7129C10.394 15.2807 10.8544 15.7412 11.4223 15.7412H20.7455C21.3134 15.7412 21.7738 15.2807 21.7738 14.7129V2.64746C21.7738 2.07957 21.3134 1.61914 20.7455 1.61914H11.4222C10.8543 1.61914 10.3939 2.07957 10.3939 2.64746V6.94848H8.14C7.74308 6.94848 7.38168 7.17688 7.21129 7.53547L0.0995304 22.4977C-0.0518759 22.8164 -0.0293759 23.1902 0.159062 23.4884C0.347616 23.7867 0.675624 23.9675 1.02836 23.9675H4.3614V57.3526C4.3614 57.9205 4.82184 58.3809 5.38973 58.3809H54.6105C55.1785 58.3809 55.6388 57.9205 55.6388 57.3526V23.9675H58.9718C59.3245 23.9675 59.6527 23.7867 59.8411 23.4884C60.0295 23.1902 60.0518 22.8164 59.9003 22.4977ZM12.4505 3.6759H19.7171V13.6845H12.4505V3.6759ZM53.5821 56.3244H49.7432V39.3918C49.7432 38.8239 49.2829 38.3635 48.7149 38.3635C48.1469 38.3635 47.6866 38.8239 47.6866 39.3918V56.3244H37.2312V31.3712H47.6866V35.9642C47.6866 36.5321 48.1469 36.9925 48.7149 36.9925C49.2829 36.9925 49.7432 36.5321 49.7432 35.9642V30.3429C49.7432 29.775 49.2829 29.3145 48.7149 29.3145H36.2029C35.6349 29.3145 35.1746 29.775 35.1746 30.3429V56.3243H6.41793V23.9675H53.5821V56.3244Z" fill="black"/>
<path d="M45.2875 32.7422H39.6309C39.0629 32.7422 38.6025 33.2026 38.6025 33.7705V53.925C38.6025 54.4929 39.0629 54.9533 39.6309 54.9533H45.2875C45.8555 54.9533 46.3158 54.4929 46.3158 53.925V33.7704C46.3158 33.2025 45.8555 32.7422 45.2875 32.7422ZM40.6591 39.7345H44.2592V42.8194H40.6591V39.7345ZM40.6591 44.876H44.2592V47.9609H40.6591V44.876ZM44.2592 34.7987V37.6779H40.6591V34.7987H44.2592ZM40.6591 52.8967V50.0175H44.2592V52.8967H40.6591Z" fill="black"/>
<path d="M10.3937 48.9206H12.1075C12.6754 48.9206 13.1359 48.4602 13.1359 47.8923C13.1359 47.3244 12.6754 46.864 12.1075 46.864H11.422V45.4929H11.9704H28.6973V46.864H14.8496C14.2817 46.864 13.8213 47.3244 13.8213 47.8923C13.8213 48.4602 14.2817 48.9206 14.8496 48.9206H29.7255C30.2934 48.9206 30.7538 48.4602 30.7538 47.8923V44.4647C30.7538 43.8968 30.2935 43.4364 29.7255 43.4364H29.1771V30.3428C29.1771 29.7749 28.7166 29.3145 28.1488 29.3145H11.9703C11.4024 29.3145 10.942 29.7749 10.942 30.3428V43.4364H10.3936C9.82566 43.4364 9.36523 43.8968 9.36523 44.4647V47.8923C9.36535 48.4602 9.82578 48.9206 10.3937 48.9206ZM21.0879 43.4364V38.432H27.1204V43.4364H21.0879ZM27.1204 36.3755H21.0879V31.3711H27.1204V36.3755ZM19.0313 31.3711V36.3755H12.9988V31.3711H19.0313ZM12.9986 38.432H19.0312V43.4364H12.9986V38.432Z" fill="black"/>
</svg>
