<svg width="50" height="50" viewBox="0 0 50 50" fill="none" xmlns="http://www.w3.org/2000/svg">
<path d="M47.0698 0H8.2028C6.58738 0 5.27312 1.31425 5.27312 2.92968V19.1405C5.27312 20.756 6.58738 22.0702 8.2028 22.0702H9.96061C10.5 22.0702 10.9372 21.6329 10.9372 21.0937C10.9372 20.5544 10.5 20.1171 9.96061 20.1171H8.2028C7.66433 20.1171 7.22624 19.679 7.22624 19.1405V2.92968C7.22624 2.3912 7.66433 1.95312 8.2028 1.95312H47.0698C47.6083 1.95312 48.0464 2.3912 48.0464 2.92968V19.1405C48.0464 19.679 47.6083 20.1171 47.0698 20.1171H40.5379C40.2789 20.1171 40.0305 20.22 39.8474 20.4031L36.6317 23.6189L33.416 20.4031C33.2329 20.22 32.9844 20.1171 32.7255 20.1171H25.1098C25.038 19.9327 24.9568 19.7508 24.8649 19.5723C24.1657 18.2138 22.9755 17.2209 21.5138 16.7765L20.1019 16.3472C19.6048 16.1958 19.0763 16.4607 18.8995 16.9492L16.681 23.081C16.0657 24.7816 14.852 26.1945 13.2637 27.0595L11.1811 28.1934C10.6693 27.5722 9.89439 27.1754 9.02848 27.1754H2.78827C1.25078 27.1754 2.28689e-08 28.4263 2.28689e-08 29.9637V47.2113C-0.000195289 48.7489 1.25068 49.9998 2.78817 49.9998H9.02838C10.0004 49.9998 10.8574 49.4995 11.3566 48.7432L12.3531 49.134C13.8181 49.7087 15.359 50 16.9329 50H30.1095C32.0865 50 33.6949 48.3916 33.6949 46.4146C33.6949 45.7602 33.5178 45.1467 33.2103 44.6181C34.6648 44.161 35.7229 42.8002 35.7229 41.1968C35.7229 40.5258 35.5372 39.8975 35.2151 39.3599C36.6077 38.8673 37.6082 37.5381 37.6082 35.979C37.6082 34.3549 36.5225 32.9804 35.0391 32.5412C35.3408 32.0162 35.5142 31.4087 35.5142 30.761C35.5142 28.7841 33.9058 27.1756 31.9288 27.1756H24.0979L25.1931 23.9242C25.3978 23.3164 25.4946 22.6914 25.488 22.0703H32.321L35.9412 25.6905C36.1319 25.8811 36.3818 25.9766 36.6317 25.9766C36.8816 25.9766 37.1316 25.8811 37.3222 25.6905L40.9425 22.0702H47.0698C48.6853 22.0702 49.9995 20.756 49.9995 19.1405V2.92968C49.9995 1.31425 48.6853 0 47.0698 0ZM9.86363 47.2114C9.86354 47.672 9.48893 48.0467 9.02838 48.0467H2.78817C2.32763 48.0467 1.95302 47.672 1.95302 47.2114V29.9638C1.95302 29.5033 2.32763 29.1286 2.78817 29.1286H4.93172V41.1521C4.93172 41.6913 5.36892 42.1286 5.90828 42.1286C6.44763 42.1286 6.88484 41.6913 6.88484 41.1521V29.1286H9.02838C9.39313 29.1286 9.70318 29.364 9.81676 29.6906C9.82486 29.7379 9.83658 29.7847 9.85201 29.8311C9.85895 29.8745 9.86363 29.9185 9.86363 29.9638V47.2114ZM31.9289 29.1285V29.1286C32.829 29.1286 33.5612 29.8608 33.5612 30.7609C33.5612 31.661 32.829 32.3933 31.9289 32.3933H26.6309C26.0916 32.3933 25.6544 32.8306 25.6544 33.3699C25.6544 33.9091 26.0916 34.3464 26.6309 34.3464L34.0229 34.3466C34.923 34.3466 35.6552 35.0789 35.6552 35.979C35.6552 36.8791 34.923 37.6114 34.0229 37.6114H26.6309C26.0916 37.6114 25.6544 38.0487 25.6544 38.5879C25.6544 39.1272 26.0916 39.5645 26.6309 39.5645H32.1376C33.0377 39.5645 33.7699 40.2967 33.7699 41.1968C33.7699 42.0969 33.0377 42.8291 32.1376 42.8291H26.6309C26.0916 42.8291 25.6544 43.2664 25.6544 43.8057C25.6544 44.3449 26.0916 44.7822 26.6309 44.7822H30.1095C31.0096 44.7822 31.7419 45.5146 31.7419 46.4147C31.7419 47.3148 31.0096 48.047 30.1095 48.047H16.9329C15.6041 48.047 14.3032 47.8009 13.0662 47.3158L11.8167 46.8258V30.0713L14.1976 28.7748C16.2055 27.6814 17.7396 25.8954 18.5174 23.7455L20.4206 18.4856L20.9456 18.6451C21.8978 18.9347 22.673 19.5814 23.1284 20.4661C23.5839 21.3509 23.6598 22.3576 23.3421 23.3007L21.8131 27.8402C21.7127 28.1383 21.762 28.4664 21.9454 28.7217C22.1289 28.977 22.424 29.1285 22.7386 29.1285H31.9289Z" fill="white"/>
</svg>
