<svg width="60" height="67" viewBox="0 0 60 67" fill="none" xmlns="http://www.w3.org/2000/svg">
<path d="M57.1875 57.9897H56.25C56.2406 57.3103 56.1081 56.6396 55.86 56.016C55.6119 55.3925 55.2532 54.8284 54.8044 54.3562C54.1583 53.6435 53.329 53.1606 52.4258 52.9713C52.0058 52.0281 51.3504 51.2328 50.5345 50.6763C49.7186 50.1198 48.7753 49.8247 47.8125 49.8247C46.8497 49.8247 45.9064 50.1198 45.0905 50.6763C44.2746 51.2328 43.6192 52.0281 43.1992 52.9713C42.296 53.1606 41.4667 53.6435 40.8206 54.3562C40.3718 54.8284 40.0131 55.3925 39.765 56.016C39.5169 56.6396 39.3844 57.3103 39.375 57.9897H28.125V34.5152C28.125 34.2446 28.0262 33.985 27.8504 33.7935C27.6746 33.6021 27.4361 33.4946 27.1875 33.4946H14.0625C13.8139 33.4946 13.5754 33.6021 13.3996 33.7935C13.2238 33.985 13.125 34.2446 13.125 34.5152V57.9897H9.375V29.788L30 11.3413L50.625 29.788V47.7834C50.625 48.0541 50.7238 48.3137 50.8996 48.5051C51.0754 48.6965 51.3139 48.8041 51.5625 48.8041C51.8111 48.8041 52.0496 48.6965 52.2254 48.5051C52.4012 48.3137 52.5 48.0541 52.5 47.7834V31.465L53.4142 32.2826C53.6049 32.4534 53.8499 32.5353 54.0959 32.5105C54.3418 32.4857 54.5688 32.3561 54.7275 32.1501L57.9057 28.0267C57.9853 27.9233 58.0453 27.8038 58.0823 27.675C58.1192 27.5462 58.1323 27.4107 58.1209 27.2764C58.1094 27.1421 58.0736 27.0115 58.0156 26.8923C57.9575 26.7731 57.8783 26.6677 57.7826 26.582L52.5 21.8579V4.91699C52.4995 4.37578 52.3018 3.85689 51.9503 3.4742C51.5988 3.09151 51.1221 2.87627 50.625 2.87573H43.125C42.6279 2.87627 42.1512 3.09151 41.7997 3.4742C41.4482 3.85689 41.2505 4.37578 41.25 4.91699V11.7973L32.2572 3.75533C31.6137 3.20425 30.8187 2.90464 30 2.90464C29.1813 2.90464 28.3863 3.20425 27.7428 3.75533L2.2174 26.5819C2.12168 26.6676 2.0425 26.7731 1.98444 26.8922C1.92638 27.0114 1.89059 27.142 1.87914 27.2763C1.86769 27.4106 1.88081 27.5461 1.91773 27.6749C1.95466 27.8037 2.01466 27.9232 2.09427 28.0266L5.27252 32.15C5.43119 32.356 5.65818 32.4856 5.90413 32.5104C6.15008 32.5352 6.39508 32.4533 6.58584 32.2825L7.5 31.465V57.9897H2.8125C2.56386 57.9897 2.3254 58.0972 2.14959 58.2886C1.97377 58.4801 1.875 58.7397 1.875 59.0103V63.0929C1.875 63.3635 1.97377 63.6231 2.14959 63.8146C2.3254 64.006 2.56386 64.1135 2.8125 64.1135H57.1875C57.4361 64.1135 57.6746 64.006 57.8504 63.8146C58.0262 63.6231 58.125 63.3635 58.125 63.0929V59.0103C58.125 58.7397 58.0262 58.4801 57.8504 58.2886C57.6746 58.0972 57.4361 57.9897 57.1875 57.9897ZM43.125 4.91699H50.625V20.1811L43.125 13.474V4.91699ZM6.1125 30.0644L4.13956 27.5049L28.933 5.33311C29.237 5.07213 29.6128 4.9302 30 4.9302C30.3872 4.9302 30.763 5.07213 31.067 5.33311L55.8604 27.5049L53.8875 30.0644L30.5951 9.23174C30.4274 9.0816 30.2171 8.99951 30 8.99951C29.7829 8.99951 29.5726 9.0816 29.4049 9.23174L6.1125 30.0644ZM42.1367 55.8104C42.5764 55.2949 43.1844 54.9879 43.83 54.9552C44.027 54.9585 44.2199 54.894 44.3813 54.7711C44.5428 54.6482 44.6646 54.473 44.7295 54.2705C44.9483 53.5693 45.3633 52.9604 45.9162 52.5291C46.4692 52.0979 47.1323 51.8659 47.8125 51.8659C48.4927 51.8659 49.1558 52.0979 49.7088 52.5291C50.2617 52.9604 50.6767 53.5693 50.8955 54.2705C50.9583 54.4745 51.0796 54.6511 51.2416 54.7744C51.4035 54.8976 51.5975 54.961 51.795 54.9552C52.4389 54.9951 53.0445 55.301 53.4883 55.8104C53.7605 56.0924 53.9789 56.43 54.131 56.8039C54.2832 57.1779 54.3661 57.5808 54.375 57.9897H41.25C41.2589 57.5808 41.3418 57.1779 41.494 56.8039C41.6461 56.43 41.8645 56.0924 42.1367 55.8104ZM15 35.5359H26.25V57.9897H15V35.5359ZM56.25 62.0722H3.75V60.031H56.25V62.0722ZM32.8125 33.4946C32.5639 33.4946 32.3254 33.6021 32.1496 33.7935C31.9738 33.985 31.875 34.2446 31.875 34.5152V46.7628C31.875 47.0335 31.9738 47.2931 32.1496 47.4845C32.3254 47.6759 32.5639 47.7834 32.8125 47.7834H45.9375C46.1861 47.7834 46.4246 47.6759 46.6004 47.4845C46.7762 47.2931 46.875 47.0335 46.875 46.7628V34.5152C46.875 34.2446 46.7762 33.985 46.6004 33.7935C46.4246 33.6021 46.1861 33.4946 45.9375 33.4946H32.8125ZM45 39.6184H40.3125V35.5359H45V39.6184ZM38.4375 35.5359V39.6184H33.75V35.5359H38.4375ZM33.75 41.6596H38.4375V45.7422H33.75V41.6596ZM40.3125 45.7422V41.6596H45V45.7422H40.3125Z" fill="#9B1915"/>
</svg>
