<svg width="48" height="48" viewBox="0 0 48 48" fill="none" xmlns="http://www.w3.org/2000/svg">
<path d="M46.6562 42.75H45.875C45.8672 42.2299 45.7567 41.7165 45.55 41.2392C45.3433 40.7619 45.0443 40.3302 44.6703 39.9687C44.1319 39.4231 43.4409 39.0535 42.6882 38.9086C42.3382 38.1866 41.792 37.5778 41.1121 37.1519C40.4322 36.7259 39.6461 36.5 38.8438 36.5C38.0414 36.5 37.2553 36.7259 36.5754 37.1519C35.8955 37.5778 35.3493 38.1866 34.9993 38.9086C34.2466 39.0535 33.5556 39.4231 33.0172 39.9687C32.6432 40.3302 32.3442 40.7619 32.1375 41.2392C31.9308 41.7165 31.8203 42.2299 31.8125 42.75H22.4375V24.7812C22.4375 24.574 22.3552 24.3753 22.2087 24.2288C22.0622 24.0823 21.8635 24 21.6562 24H10.7188C10.5115 24 10.3128 24.0823 10.1663 24.2288C10.0198 24.3753 9.9375 24.574 9.9375 24.7812V42.75H6.8125V21.1628L24 7.04252L41.1875 21.1628V34.9375C41.1875 35.1447 41.2698 35.3434 41.4163 35.4899C41.5628 35.6364 41.7616 35.7188 41.9688 35.7188C42.1759 35.7188 42.3747 35.6364 42.5212 35.4899C42.6677 35.3434 42.75 35.1447 42.75 34.9375V22.4464L43.5118 23.0723C43.6708 23.203 43.8749 23.2657 44.0799 23.2467C44.2848 23.2277 44.474 23.1285 44.6062 22.9708L47.2548 19.8145C47.3211 19.7354 47.3711 19.6439 47.4019 19.5453C47.4327 19.4467 47.4436 19.343 47.4341 19.2402C47.4245 19.1374 47.3947 19.0375 47.3463 18.9462C47.2979 18.855 47.2319 18.7743 47.1522 18.7087L42.75 15.0925V2.125C42.7496 1.71073 42.5848 1.31354 42.2919 1.0206C41.999 0.727667 41.6018 0.562914 41.1875 0.5625H34.9375C34.5232 0.562914 34.126 0.727667 33.8331 1.0206C33.5402 1.31354 33.3754 1.71073 33.375 2.125V7.39162L25.881 1.2358C25.3448 0.813964 24.6823 0.584626 24 0.584626C23.3177 0.584626 22.6552 0.813964 22.119 1.2358L0.847836 18.7086C0.768065 18.7742 0.702081 18.8549 0.653697 18.9462C0.605314 19.0374 0.57549 19.1373 0.565949 19.2401C0.556408 19.343 0.567339 19.4467 0.598111 19.5452C0.628882 19.6438 0.678884 19.7353 0.745227 19.8145L3.39377 22.9707C3.52599 23.1285 3.71515 23.2276 3.92011 23.2466C4.12506 23.2656 4.32923 23.2029 4.4882 23.0722L5.25 22.4464V42.75H1.34375C1.13655 42.75 0.937836 42.8323 0.791323 42.9788C0.64481 43.1253 0.5625 43.3241 0.5625 43.5312V46.6562C0.5625 46.8634 0.64481 47.0622 0.791323 47.2087C0.937836 47.3552 1.13655 47.4375 1.34375 47.4375H46.6562C46.8634 47.4375 47.0622 47.3552 47.2087 47.2087C47.3552 47.0622 47.4375 46.8634 47.4375 46.6562V43.5312C47.4375 43.3241 47.3552 43.1253 47.2087 42.9788C47.0622 42.8323 46.8634 42.75 46.6562 42.75ZM34.9375 2.125H41.1875V13.809L34.9375 8.67507V2.125ZM4.09375 21.3743L2.44963 19.4151L23.1108 2.44352C23.3641 2.24375 23.6774 2.13511 24 2.13511C24.3226 2.13511 24.6359 2.24375 24.8892 2.44352L45.5504 19.4151L43.9062 21.3743L24.4959 5.42777C24.3562 5.31284 24.1809 5.25 24 5.25C23.8191 5.25 23.6438 5.31284 23.5041 5.42777L4.09375 21.3743ZM34.1139 41.0818C34.4804 40.6872 34.987 40.4522 35.525 40.4272C35.6891 40.4297 35.8499 40.3804 35.9845 40.2863C36.119 40.1922 36.2205 40.0581 36.2746 39.9031C36.4569 39.3664 36.8027 38.9002 37.2635 38.5701C37.7243 38.24 38.2769 38.0625 38.8438 38.0625C39.4106 38.0625 39.9632 38.24 40.424 38.5701C40.8848 38.9002 41.2306 39.3664 41.4129 39.9031C41.4653 40.0592 41.5664 40.1944 41.7013 40.2888C41.8363 40.3832 41.9979 40.4317 42.1625 40.4272C42.6991 40.4578 43.2038 40.6919 43.5736 41.0818C43.8004 41.2977 43.9824 41.5561 44.1092 41.8423C44.236 42.1286 44.3051 42.437 44.3125 42.75H33.375C33.3824 42.437 33.4515 42.1286 33.5783 41.8423C33.7051 41.5561 33.8871 41.2977 34.1139 41.0818ZM11.5 25.5625H20.875V42.75H11.5V25.5625ZM45.875 45.875H2.125V44.3125H45.875V45.875ZM26.3438 24C26.1365 24 25.9378 24.0823 25.7913 24.2288C25.6448 24.3753 25.5625 24.574 25.5625 24.7812V34.1562C25.5625 34.3634 25.6448 34.5622 25.7913 34.7087C25.9378 34.8552 26.1365 34.9375 26.3438 34.9375H37.2812C37.4884 34.9375 37.6872 34.8552 37.8337 34.7087C37.9802 34.5622 38.0625 34.3634 38.0625 34.1562V24.7812C38.0625 24.574 37.9802 24.3753 37.8337 24.2288C37.6872 24.0823 37.4884 24 37.2812 24H26.3438ZM36.5 28.6875H32.5938V25.5625H36.5V28.6875ZM31.0312 25.5625V28.6875H27.125V25.5625H31.0312ZM27.125 30.25H31.0312V33.375H27.125V30.25ZM32.5938 33.375V30.25H36.5V33.375H32.5938Z" fill="white"/>
</svg>
