<svg width="115" height="90" viewBox="0 0 115 90" fill="none" xmlns="http://www.w3.org/2000/svg">
<path fill-rule="evenodd" clip-rule="evenodd" d="M57.4988 0L1.4799 35.1158C0.982491 35.4178 0.488596 35.7275 0 36.0435H15.2596V47.3299V90H99.7377V36.0435L115 36.0395C95.9272 23.9208 76.6541 12.0078 57.4988 0Z" fill="#9B1915"/>
<rect width="50" height="50" transform="translate(33 24)" fill="#9B1915"/>
<path d="M74.1137 24C70.9332 24 67.5735 24.6726 66.0569 26.1133C64.5403 24.672 61.1806 24 58 24C54.8194 24 51.4597 24.6726 49.9431 26.1133C48.4265 24.672 45.0668 24 41.8863 24C37.6066 24 33 25.2163 33 27.8863V73.0606C33 73.3098 33.0874 73.5487 33.2429 73.7249C33.3985 73.901 33.6094 74 33.8294 74C34.0494 74 34.2603 73.901 34.4158 73.7249C34.5714 73.5487 34.6588 73.3098 34.6588 73.0606C34.6588 72.5931 36.9118 71.0531 41.8863 71.0531C46.8607 71.0531 49.1137 72.5931 49.1137 73.0606C49.1137 73.3098 49.2011 73.5487 49.3567 73.7249C49.5122 73.901 49.7232 74 49.9431 74C50.1631 74 50.3741 73.901 50.5296 73.7249C50.6851 73.5487 50.7725 73.3098 50.7725 73.0606C50.7725 72.5931 53.0256 71.0531 58 71.0531C62.9744 71.0531 65.2275 72.5931 65.2275 73.0606C65.2275 73.3098 65.3149 73.5487 65.4704 73.7249C65.6259 73.901 65.8369 74 66.0569 74C66.2768 74 66.4878 73.901 66.6433 73.7249C66.7989 73.5487 66.8863 73.3098 66.8863 73.0606C66.8863 72.5931 69.1393 71.0531 74.1137 71.0531C79.0882 71.0531 81.3412 72.5931 81.3412 73.0606C81.3412 73.3098 81.4286 73.5487 81.5842 73.7249C81.7397 73.901 81.9506 74 82.1706 74C82.3906 74 82.6015 73.901 82.7571 73.7249C82.9126 73.5487 83 73.3098 83 73.0606V27.8863C83 25.2163 78.3934 24 74.1137 24ZM74.1137 25.8787C79.09 25.8787 81.3412 27.4188 81.3412 27.8863V48.1841C79.6175 47.1642 76.8014 46.6865 74.1137 46.6865C71.4261 46.6865 68.61 47.1664 66.8863 48.1841V27.8863C66.8863 27.4188 69.1374 25.8787 74.1137 25.8787ZM58 25.8787C62.9763 25.8787 65.2275 27.4188 65.2275 27.8863V47.986C63.5038 46.9661 60.6877 46.4879 58 46.4879C55.3123 46.4879 52.4962 46.9677 50.7725 47.986V27.8863C50.7725 27.4188 53.0237 25.8787 58 25.8787ZM41.8863 25.8787C46.8626 25.8787 49.1137 27.4188 49.1137 27.8863V47.986C47.39 46.9661 44.5739 46.4879 41.8863 46.4879C39.1986 46.4879 36.3825 46.9677 34.6588 47.986V27.8863C34.6588 27.4188 36.91 25.8787 41.8863 25.8787ZM41.8863 69.1743C39.1986 69.1743 36.3825 69.6542 34.6588 70.672V50.3742C34.6588 49.9066 36.9118 48.3666 41.8863 48.3666C46.8607 48.3666 49.1137 49.9066 49.1137 50.3742V70.673C47.39 69.6542 44.5739 69.1743 41.8863 69.1743ZM58 69.1743C55.3123 69.1743 52.4962 69.6542 50.7725 70.672V50.3742C50.7725 49.9066 53.0256 48.3666 58 48.3666C62.9744 48.3666 65.2275 49.9066 65.2275 50.3742V70.672C63.5038 69.6542 60.6877 69.1743 58 69.1743ZM81.3412 70.672C79.6175 69.6521 76.8014 69.1743 74.1137 69.1743C71.4261 69.1743 68.61 69.6542 66.8863 70.6725V50.5728C66.8863 50.1052 69.1393 48.5652 74.1137 48.5652C79.0882 48.5652 81.3412 50.1052 81.3412 50.5728V70.672Z" fill="white"/>
<path d="M37.6204 40.4082C37.8404 40.4082 38.0513 40.3092 38.2069 40.1331C38.3624 39.9569 38.4498 39.718 38.4498 39.4688V29.0016C38.4498 28.7525 38.3624 28.5136 38.2069 28.3374C38.0513 28.1612 37.8404 28.0623 37.6204 28.0623C37.4004 28.0623 37.1895 28.1612 37.0339 28.3374C36.8784 28.5136 36.791 28.7525 36.791 29.0016V39.4688C36.791 39.718 36.8784 39.9569 37.0339 40.1331C37.1895 40.3092 37.4004 40.4082 37.6204 40.4082Z" fill="#E63A27"/>
<path d="M37.6204 44.6135C37.8404 44.6135 38.0513 44.5145 38.2069 44.3383C38.3624 44.1622 38.4498 43.9232 38.4498 43.6741V42.5109C38.4498 42.2618 38.3624 42.0228 38.2069 41.8467C38.0513 41.6705 37.8404 41.5715 37.6204 41.5715C37.4004 41.5715 37.1895 41.6705 37.0339 41.8467C36.8784 42.0228 36.791 42.2618 36.791 42.5109V43.6741C36.791 43.9232 36.8784 44.1622 37.0339 44.3383C37.1895 44.5145 37.4004 44.6135 37.6204 44.6135Z" fill="#E63A27"/>
<path d="M53.7347 51.4574C53.5147 51.4574 53.3037 51.5564 53.1482 51.7325C52.9927 51.9087 52.9053 52.1476 52.9053 52.3968V65.4137C52.9053 65.6628 52.9927 65.9017 53.1482 66.0779C53.3037 66.2541 53.5147 66.353 53.7347 66.353C53.9546 66.353 54.1656 66.2541 54.3211 66.0779C54.4767 65.9017 54.564 65.6628 54.564 65.4137V52.3968C54.564 52.1476 54.4767 51.9087 54.3211 51.7325C54.1656 51.5564 53.9546 51.4574 53.7347 51.4574Z" fill="#E63A27"/>
</svg>
