<svg width="115" height="90" viewBox="0 0 115 90" fill="none" xmlns="http://www.w3.org/2000/svg">
<path fill-rule="evenodd" clip-rule="evenodd" d="M57.4988 0L1.4799 35.1158C0.982491 35.4178 0.488596 35.7275 0 36.0435H15.2596V47.3299V90H99.7377V36.0435L115 36.0395C95.9272 23.9208 76.6541 12.0078 57.4988 0Z" fill="white"/>
<path d="M39.0313 29.9053C37.3146 29.9053 35.9063 31.3136 35.9063 33.0302C35.9063 34.7468 37.3146 36.1552 39.0313 36.1552C40.4768 36.1552 41.6919 35.152 42.0433 33.8115H48.4063V37.5469C45.086 40.1209 42.9375 44.1362 42.9375 48.6553C42.9375 49.7316 43.0693 50.7759 43.2991 51.7833H39.0297C39.0048 51.7821 38.9799 51.7821 38.955 51.7833C38.762 51.8026 38.5832 51.8929 38.4532 52.0367C38.3232 52.1805 38.2513 52.3676 38.2515 52.5615V61.2666C36.9101 61.6174 35.9062 62.8341 35.9062 64.2803C35.9062 65.9969 37.3146 67.4052 39.0313 67.4052C40.7479 67.4052 42.1563 65.9969 42.1563 64.2803C42.1563 62.8352 41.1538 61.6201 39.814 61.2681V53.3397H43.7569C45.6086 58.5608 50.4503 62.3602 56.2218 62.6781V65.9542C54.8797 66.3045 53.875 67.521 53.875 68.9677C53.875 70.6844 55.2834 72.0928 57 72.0928C58.7166 72.0928 60.125 70.6844 60.125 68.9677C60.125 67.521 59.1203 66.3045 57.7782 65.9542V62.6781C63.5487 62.3602 68.3907 58.5624 70.2431 53.3428H74.1875V61.2681C72.847 61.6196 71.8438 62.8347 71.8438 64.2803C71.8438 65.9969 73.2521 67.4052 74.9688 67.4052C76.6854 67.4052 78.0938 65.9969 78.0938 64.2803C78.0938 62.8347 77.0904 61.6196 75.75 61.2681V52.5615C75.7484 52.1298 75.4004 51.7784 74.9688 51.7802H70.7009C70.9302 50.7737 71.0625 49.7305 71.0625 48.6553C71.0625 44.1362 68.914 40.1209 65.5938 37.5469V33.8115H71.9567C72.3081 35.152 73.5232 36.1552 74.9688 36.1552C76.6854 36.1552 78.0938 34.7468 78.0938 33.0302C78.0938 31.3136 76.6854 29.9053 74.9688 29.9053C73.5232 29.9053 72.3081 30.9085 71.9567 32.249H64.8125C64.3808 32.2472 64.0326 32.5986 64.0313 33.0302V36.4955C61.9601 35.2937 59.5633 34.5928 57 34.5928C54.4367 34.5928 52.0399 35.2937 49.9688 36.4955V33.0302C49.9672 32.5986 49.6192 32.2472 49.1875 32.249H42.0433C41.6919 30.9085 40.4768 29.9053 39.0313 29.9053ZM39.0313 31.4677C39.9035 31.4677 40.5938 32.158 40.5938 33.0302C40.5938 33.9024 39.9035 34.5928 39.0313 34.5928C38.1591 34.5928 37.4688 33.9024 37.4688 33.0302C37.4688 32.158 38.1591 31.4677 39.0313 31.4677ZM74.9688 31.4677C75.8409 31.4677 76.5313 32.158 76.5313 33.0302C76.5313 33.9024 75.8409 34.5928 74.9688 34.5928C74.0965 34.5928 73.4063 33.9024 73.4063 33.0302C73.4063 32.158 74.0965 31.4677 74.9688 31.4677ZM57 36.1552C63.9128 36.1552 69.5 41.7425 69.5 48.6553C69.5 55.5681 63.9128 61.1552 57 61.1552C50.0872 61.1552 44.5 55.5681 44.5 48.6553C44.5 41.7425 50.0872 36.1552 57 36.1552ZM39.0313 62.7177C39.9035 62.7177 40.5938 63.4081 40.5938 64.2803C40.5938 65.1524 39.9035 65.8428 39.0313 65.8428C38.1591 65.8428 37.4688 65.1524 37.4688 64.2803C37.4688 63.4081 38.1591 62.7177 39.0313 62.7177ZM74.9688 62.7177C75.8409 62.7177 76.5313 63.4081 76.5313 64.2803C76.5313 65.1524 75.8409 65.8428 74.9688 65.8428C74.0965 65.8428 73.4063 65.1524 73.4063 64.2803C73.4063 63.4081 74.0965 62.7177 74.9688 62.7177ZM57 67.4052C57.8722 67.4052 58.5625 68.0956 58.5625 68.9677C58.5625 69.84 57.8722 70.5303 57 70.5303C56.1278 70.5303 55.4375 69.84 55.4375 68.9677C55.4375 68.0956 56.1278 67.4052 57 67.4052Z" fill="#9B1915"/>
<path d="M57 37.7178C56.7921 37.7178 56.5898 37.8034 56.4461 37.9481L49.4164 44.9778C49.1875 45.2079 49.1875 45.5302 49.1875 45.5302C49.1875 45.5302 49.1875 46.3115 49.9687 46.3115H50.75V57.249C50.7516 57.6806 51.0996 58.0319 51.5312 58.0302H62.4688C62.9004 58.0318 63.2485 57.6806 63.25 57.249C63.25 53.6031 63.25 49.9573 63.25 46.3115H64.0312C64.8125 46.3115 64.8125 45.5302 64.8125 45.5302C64.8125 45.5302 64.8125 45.2079 64.5836 44.9778L57.5539 37.9481C57.4045 37.7978 57.2124 37.7178 57 37.7178ZM57 39.6023L62.1392 44.7475H51.8624L57 39.6023ZM52.3125 46.3116H53.875V53.3428H52.3125V46.3116ZM55.4375 46.3116H58.5625V53.3428H55.4375V46.3116ZM60.125 46.3116H61.6875V53.3428L60.125 53.3399V46.3116ZM52.3125 54.9053H61.6875V56.4678H52.3125V54.9053Z" fill="#9B1915"/>
<path d="M57 29.9052C57.1026 29.9051 57.2042 29.9254 57.299 29.9646C57.3938 30.0039 57.4799 30.0615 57.5524 30.134C57.625 30.2066 57.6825 30.2927 57.7218 30.3875C57.7611 30.4823 57.7813 30.5839 57.7813 30.6865C57.7813 30.7891 57.7611 30.8906 57.7218 30.9854C57.6825 31.0802 57.625 31.1663 57.5524 31.2389C57.4799 31.3114 57.3938 31.369 57.299 31.4083C57.2042 31.4476 57.1026 31.4678 57 31.4678C56.8974 31.4678 56.7958 31.4476 56.701 31.4083C56.6062 31.369 56.5201 31.3114 56.4476 31.2389C56.375 31.1663 56.3175 31.0802 56.2782 30.9854C56.239 30.8906 56.2187 30.7891 56.2188 30.6865C56.2187 30.5839 56.239 30.4823 56.2782 30.3875C56.3175 30.2927 56.375 30.2066 56.4476 30.134C56.5201 30.0615 56.6062 30.0039 56.701 29.9646C56.7958 29.9254 56.8974 29.9052 57 29.9052Z" fill="#9B1915"/>
<path d="M53.875 29.9052C53.9776 29.9051 54.0792 29.9254 54.174 29.9646C54.2688 30.0039 54.3549 30.0615 54.4274 30.134C54.5 30.2066 54.5575 30.2927 54.5968 30.3875C54.6361 30.4823 54.6563 30.5839 54.6563 30.6865C54.6563 30.7891 54.6361 30.8906 54.5968 30.9854C54.5575 31.0802 54.5 31.1663 54.4274 31.2389C54.3549 31.3114 54.2688 31.369 54.174 31.4083C54.0792 31.4476 53.9776 31.4678 53.875 31.4678C53.7724 31.4678 53.6708 31.4476 53.576 31.4083C53.4812 31.369 53.3951 31.3114 53.3226 31.2389C53.25 31.1663 53.1925 31.0802 53.1532 30.9854C53.114 30.8906 53.0937 30.7891 53.0938 30.6865C53.0937 30.5839 53.114 30.4823 53.1532 30.3875C53.1925 30.2927 53.25 30.2066 53.3226 30.134C53.3951 30.0615 53.4812 30.0039 53.576 29.9646C53.6708 29.9254 53.7724 29.9052 53.875 29.9052Z" fill="#9B1915"/>
<path d="M60.125 29.9052C60.2276 29.9051 60.3292 29.9254 60.424 29.9646C60.5188 30.0039 60.6049 30.0615 60.6774 30.134C60.75 30.2066 60.8075 30.2927 60.8468 30.3875C60.8861 30.4823 60.9063 30.5839 60.9063 30.6865C60.9063 30.7891 60.8861 30.8906 60.8468 30.9854C60.8075 31.0802 60.75 31.1663 60.6774 31.2389C60.6049 31.3114 60.5188 31.369 60.424 31.4083C60.3292 31.4476 60.2276 31.4678 60.125 31.4678C60.0224 31.4678 59.9208 31.4476 59.826 31.4083C59.7312 31.369 59.6451 31.3114 59.5726 31.2389C59.5 31.1663 59.4425 31.0802 59.4032 30.9854C59.364 30.8906 59.3437 30.7891 59.3438 30.6865C59.3437 30.5839 59.364 30.4823 59.4032 30.3875C59.4425 30.2927 59.5 30.2066 59.5726 30.134C59.6451 30.0615 59.7312 30.0039 59.826 29.9646C59.9208 29.9254 60.0224 29.9052 60.125 29.9052Z" fill="#9B1915"/>
<path d="M74.1875 71.3114C74.1875 71.414 74.2077 71.5156 74.247 71.6104C74.2862 71.7052 74.3438 71.7913 74.4163 71.8639C74.4889 71.9364 74.575 71.994 74.6698 72.0333C74.7646 72.0726 74.8661 72.0928 74.9687 72.0928C75.0713 72.0928 75.1729 72.0726 75.2677 72.0333C75.3625 71.994 75.4486 71.9364 75.5212 71.8639C75.5937 71.7913 75.6513 71.7052 75.6905 71.6104C75.7298 71.5156 75.75 71.414 75.75 71.3114C75.75 71.2088 75.7298 71.1073 75.6905 71.0125C75.6513 70.9177 75.5937 70.8316 75.5212 70.759C75.4486 70.6865 75.3625 70.6289 75.2677 70.5896C75.1729 70.5504 75.0713 70.5301 74.9687 70.5302C74.8661 70.5302 74.7646 70.5504 74.6698 70.5896C74.575 70.6289 74.4889 70.6865 74.4163 70.759C74.3438 70.8316 74.2862 70.9177 74.247 71.0125C74.2077 71.1073 74.1875 71.2088 74.1875 71.3114Z" fill="#9B1915"/>
<path d="M72.625 71.3114C72.625 72.0927 71.8437 72.0928 71.8437 72.0928H64.0312C63.5103 72.0928 63.25 71.7022 63.25 71.3114C63.25 70.9207 63.5101 70.5302 64.0312 70.5302H71.8437C71.8437 70.5302 72.625 70.5301 72.625 71.3114Z" fill="#9B1915"/>
<path d="M64.8125 68.1865C64.8125 68.2891 64.7923 68.3907 64.753 68.4855C64.7138 68.5803 64.6562 68.6665 64.5837 68.739C64.5112 68.8116 64.425 68.8691 64.3302 68.9083C64.2355 68.9476 64.1339 68.9678 64.0313 68.9678C63.9287 68.9678 63.8271 68.9476 63.7323 68.9083C63.6375 68.8691 63.5514 68.8116 63.4788 68.739C63.4063 68.6665 63.3487 68.5803 63.3095 68.4855C63.2702 68.3907 63.25 68.2891 63.25 68.1865C63.25 68.0839 63.2702 67.9823 63.3095 67.8875C63.3487 67.7928 63.4063 67.7066 63.4788 67.6341C63.5514 67.5615 63.6375 67.504 63.7323 67.4647C63.8271 67.4255 63.9287 67.4053 64.0313 67.4053C64.1339 67.4053 64.2355 67.4255 64.3302 67.4647C64.425 67.504 64.5112 67.5615 64.5837 67.6341C64.6562 67.7066 64.7138 67.7928 64.753 67.8875C64.7923 67.9823 64.8125 68.0839 64.8125 68.1865Z" fill="#9B1915"/>
<path d="M66.375 68.1865C66.375 68.9678 67.1563 68.9678 67.1563 68.9678H70.2813C70.8022 68.9678 71.0625 68.5772 71.0625 68.1865C71.0625 67.7958 70.8021 67.4053 70.2813 67.4053H67.1563C67.1563 67.4053 66.375 67.4053 66.375 68.1865Z" fill="#9B1915"/>
<path d="M38.25 71.3114C38.25 71.414 38.2702 71.5156 38.3095 71.6104C38.3487 71.7052 38.4063 71.7913 38.4788 71.8639C38.5514 71.9364 38.6375 71.994 38.7323 72.0333C38.8271 72.0726 38.9286 72.0928 39.0312 72.0928C39.1338 72.0928 39.2354 72.0726 39.3302 72.0333C39.425 71.994 39.5111 71.9364 39.5837 71.8639C39.6562 71.7913 39.7138 71.7052 39.753 71.6104C39.7923 71.5156 39.8125 71.414 39.8125 71.3114C39.8125 71.2088 39.7923 71.1073 39.753 71.0125C39.7138 70.9177 39.6562 70.8316 39.5837 70.759C39.5111 70.6865 39.425 70.6289 39.3302 70.5896C39.2354 70.5504 39.1338 70.5301 39.0312 70.5302C38.9286 70.5302 38.8271 70.5504 38.7323 70.5896C38.6375 70.6289 38.5514 70.6865 38.4788 70.759C38.4063 70.8316 38.3487 70.9177 38.3095 71.0125C38.2702 71.1073 38.25 71.2088 38.25 71.3114Z" fill="#9B1915"/>
<path d="M50.75 71.3114C50.75 72.0927 49.9687 72.0928 49.9687 72.0928H42.1562C41.6353 72.0928 41.375 71.7022 41.375 71.3114C41.375 70.9207 41.6351 70.5302 42.1562 70.5302H49.9687C49.9687 70.5302 50.75 70.5301 50.75 71.3114Z" fill="#9B1915"/>
<path d="M50.75 68.1865C50.75 68.2891 50.7298 68.3907 50.6905 68.4855C50.6513 68.5803 50.5937 68.6665 50.5212 68.739C50.4487 68.8116 50.3625 68.8691 50.2677 68.9083C50.173 68.9476 50.0714 68.9678 49.9688 68.9678C49.8662 68.9678 49.7646 68.9476 49.6698 68.9083C49.575 68.8691 49.4889 68.8116 49.4163 68.739C49.3438 68.6665 49.2862 68.5803 49.247 68.4855C49.2077 68.3907 49.1875 68.2891 49.1875 68.1865C49.1875 68.0839 49.2077 67.9823 49.247 67.8875C49.2862 67.7928 49.3438 67.7066 49.4163 67.6341C49.4889 67.5615 49.575 67.504 49.6698 67.4647C49.7646 67.4255 49.8662 67.4053 49.9688 67.4053C50.0714 67.4053 50.173 67.4255 50.2677 67.4647C50.3625 67.504 50.4487 67.5615 50.5212 67.6341C50.5937 67.7066 50.6513 67.7928 50.6905 67.8875C50.7298 67.9823 50.75 68.0839 50.75 68.1865Z" fill="#9B1915"/>
<path d="M42.9375 68.1865C42.9375 68.9678 43.7188 68.9678 43.7188 68.9678H46.8438C47.3647 68.9678 47.625 68.5772 47.625 68.1865C47.625 67.7958 47.3646 67.4053 46.8438 67.4053H43.7188C43.7188 67.4053 42.9375 67.4053 42.9375 68.1865Z" fill="#9B1915"/>
<path d="M40.5937 44.749C40.6963 44.749 40.7979 44.7692 40.8927 44.8085C40.9875 44.8478 41.0736 44.9053 41.1462 44.9778C41.2187 45.0504 41.2763 45.1365 41.3155 45.2313C41.3548 45.3261 41.375 45.4277 41.375 45.5303C41.375 45.6329 41.3548 45.7345 41.3155 45.8293C41.2763 45.9241 41.2187 46.0102 41.1462 46.0828C41.0736 46.1553 40.9875 46.2128 40.8927 46.2521C40.7979 46.2913 40.6963 46.3116 40.5937 46.3115C40.4911 46.3115 40.3896 46.2913 40.2948 46.2521C40.2 46.2128 40.1139 46.1552 40.0413 46.0827C39.9688 46.0101 39.9112 45.9241 39.872 45.8293C39.8327 45.7345 39.8125 45.6329 39.8125 45.5303C39.8125 45.3231 39.8948 45.1243 40.0413 44.9778C40.1878 44.8313 40.3865 44.749 40.5937 44.749Z" fill="#9B1915"/>
<path d="M37.4687 43.1865C37.5713 43.1865 37.6729 43.2066 37.7677 43.2459C37.8625 43.2852 37.9486 43.3428 38.0212 43.4153C38.0937 43.4879 38.1513 43.574 38.1905 43.6688C38.2298 43.7636 38.25 43.8651 38.25 43.9677C38.25 44.0703 38.2298 44.1719 38.1905 44.2667C38.1513 44.3615 38.0937 44.4476 38.0212 44.5202C37.9486 44.5927 37.8625 44.6503 37.7677 44.6896C37.6729 44.7288 37.5713 44.749 37.4687 44.749C37.3661 44.749 37.2646 44.7287 37.1698 44.6895C37.075 44.6502 36.9889 44.5927 36.9163 44.5202C36.8438 44.4476 36.7862 44.3615 36.747 44.2667C36.7077 44.1719 36.6875 44.0703 36.6875 43.9677C36.6875 43.7605 36.7698 43.5618 36.9163 43.4153C37.0628 43.2688 37.2615 43.1865 37.4687 43.1865Z" fill="#9B1915"/>
<path d="M76.5312 46.3115C76.6338 46.3115 76.7354 46.3317 76.8302 46.371C76.925 46.4103 77.0111 46.4678 77.0837 46.5403C77.1562 46.6129 77.2138 46.699 77.253 46.7938C77.2923 46.8886 77.3125 46.9902 77.3125 47.0928C77.3125 47.1954 77.2923 47.297 77.253 47.3918C77.2138 47.4866 77.1562 47.5726 77.0837 47.6452C77.0111 47.7177 76.925 47.7753 76.8302 47.8146C76.7354 47.8538 76.6338 47.8741 76.5312 47.874C76.4286 47.874 76.3271 47.8538 76.2323 47.8146C76.1375 47.7753 76.0514 47.7177 75.9788 47.6452C75.9063 47.5726 75.8487 47.4866 75.8095 47.3918C75.7702 47.297 75.75 47.1954 75.75 47.0928C75.75 46.8856 75.8323 46.6868 75.9788 46.5403C76.1253 46.3938 76.324 46.3115 76.5312 46.3115Z" fill="#9B1915"/>
<path d="M73.4062 44.749C73.5088 44.749 73.6104 44.7692 73.7052 44.8085C73.8 44.8478 73.8861 44.9053 73.9587 44.9778C74.0312 45.0504 74.0888 45.1365 74.128 45.2313C74.1673 45.3261 74.1875 45.4277 74.1875 45.5303C74.1875 45.6329 74.1673 45.7345 74.128 45.8293C74.0888 45.9241 74.0312 46.0102 73.9587 46.0828C73.8861 46.1553 73.8 46.2128 73.7052 46.2521C73.6104 46.2913 73.5088 46.3116 73.4062 46.3115C73.3036 46.3115 73.2021 46.2913 73.1073 46.2521C73.0125 46.2128 72.9264 46.1552 72.8538 46.0827C72.7813 46.0101 72.7237 45.9241 72.6845 45.8293C72.6452 45.7345 72.625 45.6329 72.625 45.5303C72.625 45.3231 72.7073 45.1243 72.8538 44.9778C73.0003 44.8313 73.199 44.749 73.4062 44.749Z" fill="#9B1915"/>
<path d="M37.4687 46.3115C37.5713 46.3115 37.6729 46.3317 37.7677 46.371C37.8625 46.4103 37.9486 46.4678 38.0212 46.5403C38.0937 46.6129 38.1513 46.699 38.1905 46.7938C38.2298 46.8886 38.25 46.9902 38.25 47.0928C38.25 47.1954 38.2298 47.297 38.1905 47.3918C38.1513 47.4866 38.0937 47.5726 38.0212 47.6452C37.9486 47.7177 37.8625 47.7753 37.7677 47.8146C37.6729 47.8538 37.5713 47.8741 37.4687 47.874C37.3661 47.874 37.2646 47.8538 37.1698 47.8146C37.075 47.7753 36.9889 47.7177 36.9163 47.6452C36.8438 47.5726 36.7862 47.4866 36.747 47.3918C36.7077 47.297 36.6875 47.1954 36.6875 47.0928C36.6875 46.8856 36.7698 46.6868 36.9163 46.5403C37.0628 46.3938 37.2615 46.3115 37.4687 46.3115Z" fill="#9B1915"/>
<path d="M76.5312 43.1865C76.6338 43.1865 76.7354 43.2066 76.8302 43.2459C76.925 43.2852 77.0111 43.3428 77.0837 43.4153C77.1562 43.4879 77.2138 43.574 77.253 43.6688C77.2923 43.7636 77.3125 43.8651 77.3125 43.9677C77.3125 44.0703 77.2923 44.1719 77.253 44.2667C77.2138 44.3615 77.1562 44.4476 77.0837 44.5202C77.0111 44.5927 76.925 44.6503 76.8302 44.6896C76.7354 44.7288 76.6338 44.749 76.5312 44.749C76.4286 44.749 76.3271 44.7287 76.2323 44.6895C76.1375 44.6502 76.0514 44.5927 75.9788 44.5202C75.9063 44.4476 75.8487 44.3615 75.8095 44.2667C75.7702 44.1719 75.75 44.0703 75.75 43.9677C75.75 43.7605 75.8323 43.5618 75.9788 43.4153C76.1253 43.2688 76.324 43.1865 76.5312 43.1865Z" fill="#9B1915"/>
</svg>
