<svg width="115" height="90" viewBox="0 0 115 90" fill="none" xmlns="http://www.w3.org/2000/svg">
<path fill-rule="evenodd" clip-rule="evenodd" d="M57.4988 0L1.4799 35.1158C0.982491 35.4178 0.488596 35.7275 0 36.0435H15.2596V47.3299V90H99.7377V36.0435L115 36.0395C95.9272 23.9208 76.6541 12.0078 57.4988 0Z" fill="#9B1915"/>
<path d="M80.6562 67.75H79.875C79.8672 67.2299 79.7567 66.7165 79.55 66.2392C79.3433 65.7619 79.0443 65.3302 78.6703 64.9687C78.1319 64.4231 77.4409 64.0535 76.6882 63.9086C76.3382 63.1866 75.792 62.5778 75.1121 62.1519C74.4322 61.7259 73.6461 61.5 72.8438 61.5C72.0414 61.5 71.2553 61.7259 70.5754 62.1519C69.8955 62.5778 69.3493 63.1866 68.9993 63.9086C68.2466 64.0535 67.5556 64.4231 67.0172 64.9687C66.6432 65.3302 66.3442 65.7619 66.1375 66.2392C65.9308 66.7165 65.8203 67.2299 65.8125 67.75H56.4375V49.7812C56.4375 49.574 56.3552 49.3753 56.2087 49.2288C56.0622 49.0823 55.8635 49 55.6562 49H44.7188C44.5115 49 44.3128 49.0823 44.1663 49.2288C44.0198 49.3753 43.9375 49.574 43.9375 49.7812V67.75H40.8125V46.1628L58 32.0425L75.1875 46.1628V59.9375C75.1875 60.1447 75.2698 60.3434 75.4163 60.4899C75.5628 60.6364 75.7616 60.7188 75.9688 60.7188C76.1759 60.7188 76.3747 60.6364 76.5212 60.4899C76.6677 60.3434 76.75 60.1447 76.75 59.9375V47.4464L77.5118 48.0723C77.6708 48.203 77.8749 48.2657 78.0799 48.2467C78.2848 48.2277 78.474 48.1285 78.6062 47.9708L81.2548 44.8145C81.3211 44.7354 81.3711 44.6439 81.4019 44.5453C81.4327 44.4467 81.4436 44.343 81.4341 44.2402C81.4245 44.1374 81.3947 44.0375 81.3463 43.9462C81.2979 43.855 81.2319 43.7743 81.1522 43.7087L76.75 40.0925V27.125C76.7496 26.7107 76.5848 26.3135 76.2919 26.0206C75.999 25.7277 75.6018 25.5629 75.1875 25.5625H68.9375C68.5232 25.5629 68.126 25.7277 67.8331 26.0206C67.5402 26.3135 67.3754 26.7107 67.375 27.125V32.3916L59.881 26.2358C59.3448 25.814 58.6823 25.5846 58 25.5846C57.3177 25.5846 56.6552 25.814 56.119 26.2358L34.8478 43.7086C34.7681 43.7742 34.7021 43.8549 34.6537 43.9462C34.6053 44.0374 34.5755 44.1373 34.5659 44.2401C34.5564 44.343 34.5673 44.4467 34.5981 44.5452C34.6289 44.6438 34.6789 44.7353 34.7452 44.8145L37.3938 47.9707C37.526 48.1285 37.7152 48.2276 37.9201 48.2466C38.1251 48.2656 38.3292 48.2029 38.4882 48.0722L39.25 47.4464V67.75H35.3438C35.1365 67.75 34.9378 67.8323 34.7913 67.9788C34.6448 68.1253 34.5625 68.3241 34.5625 68.5312V71.6562C34.5625 71.8634 34.6448 72.0622 34.7913 72.2087C34.9378 72.3552 35.1365 72.4375 35.3438 72.4375H80.6562C80.8634 72.4375 81.0622 72.3552 81.2087 72.2087C81.3552 72.0622 81.4375 71.8634 81.4375 71.6562V68.5312C81.4375 68.3241 81.3552 68.1253 81.2087 67.9788C81.0622 67.8323 80.8634 67.75 80.6562 67.75ZM68.9375 27.125H75.1875V38.809L68.9375 33.6751V27.125ZM38.0938 46.3743L36.4496 44.4151L57.1108 27.4435C57.3641 27.2438 57.6774 27.1351 58 27.1351C58.3226 27.1351 58.6359 27.2438 58.8892 27.4435L79.5504 44.4151L77.9062 46.3743L58.4959 30.4278C58.3562 30.3128 58.1809 30.25 58 30.25C57.8191 30.25 57.6438 30.3128 57.5041 30.4278L38.0938 46.3743ZM68.1139 66.0818C68.4804 65.6872 68.987 65.4522 69.525 65.4272C69.6891 65.4297 69.8499 65.3804 69.9845 65.2863C70.119 65.1922 70.2205 65.0581 70.2746 64.9031C70.4569 64.3664 70.8027 63.9002 71.2635 63.5701C71.7243 63.24 72.2769 63.0625 72.8438 63.0625C73.4106 63.0625 73.9632 63.24 74.424 63.5701C74.8848 63.9002 75.2306 64.3664 75.4129 64.9031C75.4653 65.0592 75.5664 65.1944 75.7013 65.2888C75.8363 65.3832 75.9979 65.4317 76.1625 65.4272C76.6991 65.4578 77.2038 65.6919 77.5736 66.0818C77.8004 66.2977 77.9824 66.5561 78.1092 66.8423C78.236 67.1286 78.3051 67.437 78.3125 67.75H67.375C67.3824 67.437 67.4515 67.1286 67.5783 66.8423C67.7051 66.5561 67.8871 66.2977 68.1139 66.0818ZM45.5 50.5625H54.875V67.75H45.5V50.5625ZM79.875 70.875H36.125V69.3125H79.875V70.875ZM60.3438 49C60.1365 49 59.9378 49.0823 59.7913 49.2288C59.6448 49.3753 59.5625 49.574 59.5625 49.7812V59.1562C59.5625 59.3634 59.6448 59.5622 59.7913 59.7087C59.9378 59.8552 60.1365 59.9375 60.3438 59.9375H71.2812C71.4884 59.9375 71.6872 59.8552 71.8337 59.7087C71.9802 59.5622 72.0625 59.3634 72.0625 59.1562V49.7812C72.0625 49.574 71.9802 49.3753 71.8337 49.2288C71.6872 49.0823 71.4884 49 71.2812 49H60.3438ZM70.5 53.6875H66.5938V50.5625H70.5V53.6875ZM65.0312 50.5625V53.6875H61.125V50.5625H65.0312ZM61.125 55.25H65.0312V58.375H61.125V55.25ZM66.5938 58.375V55.25H70.5V58.375H66.5938Z" fill="white"/>
</svg>
