<svg width="59" height="58" viewBox="0 0 59 58" fill="none" xmlns="http://www.w3.org/2000/svg">
<path d="M39.3498 38.3213C45.6281 28.6366 44.8388 29.8449 45.0198 29.5923C47.3056 26.423 48.5137 22.6927 48.5137 18.8047C48.5137 8.49383 40.0023 0 29.5 0C19.0319 0 10.4863 8.47706 10.4863 18.8047C10.4863 22.6902 11.7198 26.5181 14.0805 29.7302L19.65 38.3215C13.6953 39.221 3.57227 41.9018 3.57227 47.8047C3.57227 49.9565 5.00094 53.023 11.8071 55.4125C16.5596 57.0811 22.843 58 29.5 58C41.9482 58 55.4277 54.5481 55.4277 47.8047C55.4277 41.9008 45.3166 39.2228 39.3498 38.3213ZM16.9681 27.861C16.9491 27.8317 16.9293 27.8032 16.9086 27.7751C14.9442 25.1184 13.9434 21.9699 13.9434 18.8047C13.9434 10.3066 20.9042 3.39844 29.5 3.39844C38.0779 3.39844 45.0566 10.3096 45.0566 18.8047C45.0566 21.975 44.0747 25.0167 42.2166 27.6034C42.0501 27.8193 42.9188 26.4925 29.5 47.1917L16.9681 27.861ZM29.5 54.6016C15.903 54.6016 7.0293 50.6726 7.0293 47.8047C7.0293 45.8771 11.5889 42.7076 21.6926 41.4722L28.0423 51.2668C28.3596 51.7564 28.9093 52.0527 29.4999 52.0527C30.0905 52.0527 30.6402 51.7563 30.9575 51.2668L37.307 41.4722C47.411 42.7076 51.9707 45.8771 51.9707 47.8047C51.9707 50.6483 43.1768 54.6016 29.5 54.6016Z" fill="white"/>
<path d="M29.5 10.3086C24.7345 10.3086 20.8574 14.1199 20.8574 18.8047C20.8574 23.4894 24.7345 27.3008 29.5 27.3008C34.2655 27.3008 38.1426 23.4894 38.1426 18.8047C38.1426 14.1199 34.2655 10.3086 29.5 10.3086ZM29.5 23.9023C26.6407 23.9023 24.3145 21.6155 24.3145 18.8047C24.3145 15.9938 26.6407 13.707 29.5 13.707C32.3593 13.707 34.6855 15.9938 34.6855 18.8047C34.6855 21.6155 32.3593 23.9023 29.5 23.9023Z" fill="white"/>
</svg>
