<svg width="58" height="52" viewBox="0 0 58 52" fill="none" xmlns="http://www.w3.org/2000/svg">
<path d="M29.3026 43.5781C17.5878 43.5781 7.22804 37.385 0.879791 26.5868C0.666372 26.2237 0.666372 25.7762 0.879791 25.4131C7.22816 14.615 17.5879 8.42188 29.3026 8.42188C41.0173 8.42188 51.377 14.615 57.7254 25.4132C57.9388 25.7763 57.9388 26.2238 57.7254 26.5869C51.3771 37.385 41.0174 43.5781 29.3026 43.5781ZM3.29373 26C9.23015 35.6923 18.6733 41.2344 29.3026 41.2344C39.9318 41.2344 49.375 35.6923 55.3114 26C49.375 16.3077 39.9318 10.7656 29.3026 10.7656C18.6733 10.7656 9.23027 16.3077 3.29373 26Z" fill="white"/>
<path d="M29.303 35.375C24.0495 35.375 19.7754 31.1694 19.7754 26C19.7754 20.8306 24.0495 16.625 29.303 16.625C34.5565 16.625 38.8306 20.8306 38.8306 26C38.8306 31.1694 34.5565 35.375 29.303 35.375ZM29.303 18.9688C25.3629 18.9688 22.1573 22.123 22.1573 26C22.1573 29.877 25.3629 33.0312 29.303 33.0312C33.2432 33.0312 36.4487 29.877 36.4487 26C36.4487 22.123 33.2432 18.9688 29.303 18.9688Z" fill="white"/>
<path d="M29.3028 43.5781C19.4523 43.5781 11.4385 35.6926 11.4385 26C11.4385 16.3074 19.4523 8.42188 29.3028 8.42188C39.1531 8.42188 47.167 16.3074 47.167 26C47.167 35.6926 39.1531 43.5781 29.3028 43.5781ZM29.3028 10.7656C20.7658 10.7656 13.8204 17.5998 13.8204 26C13.8204 34.4004 20.7658 41.2344 29.3028 41.2344C37.8397 41.2344 44.7851 34.4004 44.7851 26C44.7851 17.5998 37.8397 10.7656 29.3028 10.7656Z" fill="white"/>
<path d="M29.3029 30.6875C26.6761 30.6875 24.5391 28.5847 24.5391 26C24.5391 23.4153 26.6761 21.3125 29.3029 21.3125C31.9296 21.3125 34.0667 23.4153 34.0667 26C34.0667 28.5847 31.9296 30.6875 29.3029 30.6875ZM29.3029 23.6562C27.9895 23.6562 26.921 24.7077 26.921 26C26.921 27.2923 27.9895 28.3438 29.3029 28.3438C30.6163 28.3438 31.6848 27.2923 31.6848 26C31.6848 24.7077 30.6163 23.6562 29.3029 23.6562Z" fill="white"/>
<path d="M29.3023 6.07812C28.6445 6.07812 28.1113 5.55348 28.1113 4.90625V1.39062C28.1113 0.743398 28.6445 0.21875 29.3023 0.21875C29.96 0.21875 30.4932 0.743398 30.4932 1.39062V4.90625C30.4932 5.55348 29.96 6.07812 29.3023 6.07812Z" fill="white"/>
<path d="M20.0021 8.16735C19.5588 8.16735 19.1334 7.9229 18.9282 7.5036L17.378 4.33614C17.0926 3.75301 17.3416 3.0527 17.9343 2.7718C18.527 2.49102 19.2387 2.73618 19.5241 3.31919L21.0743 6.48665C21.3597 7.06977 21.1106 7.77008 20.518 8.05098C20.3514 8.12997 20.1754 8.16735 20.0021 8.16735Z" fill="white"/>
<path d="M18.4501 49.3445C18.2768 49.3445 18.1008 49.3072 17.9343 49.2282C17.3416 48.9473 17.0926 48.247 17.378 47.6639L18.9282 44.4965C19.2136 43.9133 19.9253 43.6683 20.518 43.9491C21.1106 44.2299 21.3597 44.9303 21.0743 45.5134L19.5241 48.6809C19.3187 49.1 18.8932 49.3445 18.4501 49.3445Z" fill="white"/>
<path d="M29.3023 51.7812C28.6445 51.7812 28.1113 51.2565 28.1113 50.6094V47.0938C28.1113 46.4466 28.6445 45.9219 29.3023 45.9219C29.96 45.9219 30.4932 46.4466 30.4932 47.0938V50.6094C30.4932 51.2565 29.96 51.7812 29.3023 51.7812Z" fill="white"/>
<path d="M39.0815 48.6807L37.5313 45.5133C37.2459 44.9301 37.495 44.2298 38.0876 43.9489C38.6803 43.6679 39.392 43.9132 39.6774 44.4963L41.2276 47.6638C41.513 48.2469 41.264 48.9472 40.6713 49.2281C40.0811 49.5079 39.368 49.2658 39.0815 48.6807Z" fill="white"/>
<path d="M38.0876 8.05109C37.495 7.77031 37.2459 7.06988 37.5313 6.48676L39.0815 3.3193C39.3669 2.73617 40.0787 2.49148 40.6713 2.77191C41.264 3.0527 41.513 3.75301 41.2276 4.33625L39.6774 7.50371C39.3925 8.0859 38.6814 8.33234 38.0876 8.05109Z" fill="white"/>
<path d="M29.3023 37.7188C28.6445 37.7188 28.1113 37.194 28.1113 36.5469V29.5156C28.1113 28.8685 28.6445 28.3438 29.3023 28.3438C29.96 28.3438 30.4932 28.8685 30.4932 29.5156V36.5469C30.4932 37.194 29.96 37.7188 29.3023 37.7188Z" fill="white"/>
<path d="M29.3023 23.6562C28.6445 23.6562 28.1113 23.1316 28.1113 22.4844V15.4531C28.1113 14.8059 28.6445 14.2812 29.3023 14.2812C29.96 14.2812 30.4932 14.8059 30.4932 15.4531V22.4844C30.4932 23.1316 29.96 23.6562 29.3023 23.6562Z" fill="white"/>
<path d="M25.7292 27.1719H18.5835C17.9258 27.1719 17.3926 26.6472 17.3926 26C17.3926 25.3528 17.9258 24.8281 18.5835 24.8281H25.7292C26.387 24.8281 26.9202 25.3528 26.9202 26C26.9202 26.6472 26.387 27.1719 25.7292 27.1719Z" fill="white"/>
<path d="M40.0212 27.1719H32.8755C32.2178 27.1719 31.6846 26.6472 31.6846 26C31.6846 25.3528 32.2178 24.8281 32.8755 24.8281H40.0212C40.679 24.8281 41.2122 25.3528 41.2122 26C41.2122 26.6472 40.679 27.1719 40.0212 27.1719Z" fill="white"/>
</svg>
