<svg width="62" height="60" viewBox="0 0 62 60" fill="none" xmlns="http://www.w3.org/2000/svg">
<g clip-path="url(#clip0_89_9274)">
<path d="M31.2408 20.9326C32.08 20.9326 32.7597 20.2633 32.7597 19.438C32.7597 18.6126 32.08 17.9434 31.2408 17.9434C24.5301 17.9434 19.0898 23.2964 19.0898 29.9001C19.0898 36.5034 24.5301 41.8564 31.2408 41.8564C37.952 41.8564 43.3922 36.5034 43.3922 29.9001C43.3922 29.0743 42.7121 28.4055 41.8733 28.4055C41.0345 28.4055 40.3544 29.0743 40.3544 29.9001C40.3544 34.8527 36.2744 38.8677 31.2408 38.8677C26.2076 38.8677 22.1272 34.8527 22.1272 29.9001C22.1272 24.9471 26.2076 20.9326 31.2408 20.9326Z" fill="#9B1915"/>
<path d="M60.2226 21.0228C59.9588 20.2386 59.0991 19.8134 58.3017 20.0729C57.523 20.3265 57.0894 21.1423 57.3215 21.9163C61.8639 36.1496 53.8203 51.3111 39.3554 55.7807C24.8909 60.2503 9.48253 52.3356 4.94017 38.1024C0.397344 23.8692 8.44138 8.70759 22.9058 4.238C28.2605 2.58364 34.0012 2.58364 39.3554 4.238C40.1593 4.47649 41.0074 4.0288 41.2497 3.23778C41.4884 2.45867 41.0506 1.63515 40.2639 1.38338C24.2024 -3.57511 7.09644 5.21715 2.05723 21.0219C-2.98198 36.8261 5.95387 53.6581 22.0154 58.6166C38.0774 63.5751 55.1829 54.7828 60.2221 38.9781C62.0858 33.1334 62.0858 26.8675 60.2226 21.0228Z" fill="#9B1915"/>
<path d="M34.1348 10.6778C34.1427 9.82681 33.4783 9.11545 32.6158 9.05182C32.1623 9.01382 31.7082 8.97583 31.2425 8.97583C19.4982 8.97583 9.97754 18.344 9.97754 29.9002C9.97754 41.456 19.4982 50.8241 31.2425 50.8241C42.9864 50.8241 52.507 41.456 52.507 29.9002C52.507 29.3596 52.4735 28.8194 52.4061 28.2829C52.2847 27.4626 51.5105 26.8945 50.6769 27.014C49.8432 27.133 49.2659 27.8952 49.3868 28.7155C49.3915 28.7466 49.3971 28.7773 49.4036 28.8084C49.4366 29.1705 49.4692 29.5294 49.4692 29.8993C49.4696 39.8048 41.3093 47.8344 31.243 47.8353C21.1762 47.8358 13.0159 39.8057 13.0154 29.9006C13.0149 19.9956 21.1748 11.9655 31.2416 11.965H31.2421C31.6189 11.965 31.9841 11.9971 32.3511 12.0291L32.6358 12.0525C33.4295 12.0859 34.1003 11.4798 34.1338 10.6989C34.1343 10.6915 34.1343 10.6847 34.1348 10.6778Z" fill="#9B1915"/>
<path d="M40.3561 13.4598V18.8193L30.1688 28.8433C29.5654 29.4169 29.5486 30.3631 30.1316 30.9568C30.7145 31.5506 31.6761 31.567 32.2795 30.9935C32.292 30.9816 32.3046 30.9692 32.3167 30.9568L42.504 20.9327H47.9507C48.3536 20.9327 48.7397 20.7753 49.0249 20.4947L58.138 11.5271C58.7311 10.9434 58.7311 9.99724 58.138 9.4136C57.8533 9.13344 57.4671 8.97597 57.0643 8.97597H52.5075V4.49219C52.5075 3.66684 51.8273 2.99759 50.9881 2.99805C50.5857 2.99805 50.1995 3.15552 49.9148 3.43567L40.8013 12.4032C40.5161 12.6834 40.3561 13.0633 40.3561 13.4598ZM43.3939 14.0787L49.4696 8.10027V10.4706C49.4696 11.2959 50.1498 11.9652 50.9885 11.9652H53.3974L47.3217 17.9436H43.3939V14.0787Z" fill="#9B1915"/>
</g>
<defs>
<clipPath id="clip0_89_9274">
<rect width="60.9767" height="60" fill="white" transform="translate(0.651367)"/>
</clipPath>
</defs>
</svg>
