<svg width="60" height="60" viewBox="0 0 60 60" fill="none" xmlns="http://www.w3.org/2000/svg">
<g clip-path="url(#clip0_89_9892)">
<path d="M33.8104 18.4499L30.8904 21.3699L30.4304 21.8299C30.1257 22.1336 29.7448 22.3496 29.3278 22.4552C28.9107 22.5608 28.4729 22.552 28.0604 22.4299C27.682 22.3169 27.3381 22.1105 27.0604 21.8299L25.8604 20.6299C25.6827 20.4501 25.583 20.2076 25.583 19.9549C25.583 19.7021 25.6827 19.4596 25.8604 19.2799C25.9509 19.1915 26.0224 19.0857 26.0705 18.9687C26.1187 18.8518 26.1425 18.7263 26.1404 18.5999C26.1405 18.4752 26.1158 18.3517 26.0678 18.2367C26.0197 18.1217 25.9492 18.0174 25.8604 17.9299L24.5104 16.5799C24.3307 16.4021 24.0881 16.3025 23.8354 16.3025C23.5826 16.3025 23.3401 16.4021 23.1604 16.5799C22.981 16.7554 22.7413 16.8556 22.4904 16.8599C22.2358 16.8594 21.9915 16.7588 21.8104 16.5799L17.0904 11.8599L16.4104 11.1799C16.2327 11.0001 16.133 10.7576 16.133 10.5049C16.133 10.2521 16.2327 10.0096 16.4104 9.82985L19.7904 6.46985C19.1674 5.84256 18.4016 5.37566 17.5587 5.10919C16.7157 4.84272 15.8207 4.78461 14.9504 4.93985C14.4649 4.92384 14.0036 4.72362 13.6604 4.37985C13.4049 4.12502 13.2279 3.80226 13.1504 3.44985C13.061 2.96754 13.1651 2.46943 13.4403 2.06331C13.7154 1.6572 14.1393 1.37574 14.6204 1.27985C17.9204 0.629853 19.7904 1.06985 21.8204 3.08985L28.5604 9.82985C28.7381 10.0096 28.8378 10.2521 28.8378 10.5049C28.8378 10.7576 28.7381 11.0001 28.5604 11.1799C28.4699 11.2682 28.3984 11.374 28.3502 11.491C28.3021 11.6079 28.2783 11.7334 28.2804 11.8599C28.2802 11.9845 28.3049 12.108 28.353 12.223C28.4011 12.338 28.4716 12.4424 28.5604 12.5299L29.9104 13.8799C30.0901 14.0576 30.3326 14.1572 30.5854 14.1572C30.8381 14.1572 31.0807 14.0576 31.2604 13.8799C31.4397 13.7043 31.6795 13.6042 31.9304 13.5999C32.185 13.6003 32.4293 13.7009 32.6104 13.8799L33.8104 15.0799C34.257 15.5269 34.5079 16.1329 34.5079 16.7649C34.5079 17.3968 34.257 18.0028 33.8104 18.4499Z" fill="#9E9E9E"/>
<path d="M33.81 15.0801L32.61 13.8801C32.4289 13.7012 32.1847 13.6006 31.93 13.6001C31.6791 13.6044 31.4394 13.7046 31.26 13.8801C31.0803 14.0578 30.8378 14.1575 30.585 14.1575C30.3323 14.1575 30.0897 14.0578 29.91 13.8801L28.56 12.5301C28.4712 12.4426 28.4007 12.3383 28.3526 12.2233C28.3046 12.1083 28.2799 11.9848 28.28 11.8601C28.278 11.7337 28.3017 11.6082 28.3499 11.4913C28.398 11.3743 28.4695 11.2685 28.56 11.1801C28.7377 11.0004 28.8374 10.7579 28.8374 10.5051C28.8374 10.2524 28.7377 10.0099 28.56 9.83014L21.82 3.09013C19.971 1.25013 18.242 0.732135 15.457 1.14313C16.7502 1.4345 17.9235 2.11379 18.82 3.09013L25.56 9.83014C25.7377 10.0099 25.8374 10.2524 25.8374 10.5051C25.8374 10.7579 25.7377 11.0004 25.56 11.1801C25.4695 11.2685 25.398 11.3743 25.3499 11.4913C25.3017 11.6082 25.278 11.7337 25.28 11.8601C25.2799 11.9848 25.3046 12.1083 25.3526 12.2233C25.4007 12.3383 25.4712 12.4426 25.56 12.5301L26.91 13.8801C27.0897 14.0578 27.3323 14.1575 27.585 14.1575C27.8378 14.1575 28.0803 14.0578 28.26 13.8801C28.4394 13.7046 28.6791 13.6044 28.93 13.6001C29.1847 13.6006 29.4289 13.7012 29.61 13.8801L30.81 15.0801C31.2567 15.5272 31.5075 16.1332 31.5075 16.7651C31.5075 17.397 31.2567 18.0031 30.81 18.4501L27.89 21.3701L27.43 21.8301C27.3698 21.8806 27.3071 21.928 27.242 21.9721C27.4811 22.1782 27.7593 22.334 28.06 22.4301C28.4725 22.5523 28.9103 22.5611 29.3274 22.4555C29.7445 22.3499 30.1254 22.1339 30.43 21.8301L30.89 21.3701L33.81 18.4501C34.2567 18.0031 34.5075 17.397 34.5075 16.7651C34.5075 16.1332 34.2567 15.5272 33.81 15.0801Z" fill="#707070"/>
<path d="M21.1399 15.9099L5.61986 31.4399C5.44214 31.6182 5.23096 31.7597 4.99844 31.8562C4.76592 31.9528 4.51663 32.0025 4.26486 32.0025C4.0131 32.0025 3.7638 31.9528 3.53128 31.8562C3.29876 31.7597 3.08759 31.6182 2.90986 31.4399L1.56986 30.0899C1.38952 29.9143 1.24618 29.7044 1.1483 29.4725C1.05043 29.2407 1 28.9915 1 28.7399C1 28.4882 1.05043 28.2391 1.1483 28.0072C1.24618 27.7753 1.38952 27.5654 1.56986 27.3899L17.0899 11.8599L21.1399 15.9099Z" fill="#A0522D"/>
<path d="M58.0902 51.0001H1.91023C1.73237 51.0016 1.55808 50.9503 1.40935 50.8527C1.26062 50.7552 1.14413 50.6158 1.07458 50.4521C1.00504 50.2884 0.985555 50.1077 1.0186 49.933C1.05164 49.7582 1.13572 49.5971 1.26023 49.4701L28.0602 22.4301C28.4727 22.5523 28.9105 22.561 29.3276 22.4555C29.7447 22.3499 30.1256 22.1338 30.4302 21.8301L30.8902 21.3701L58.7402 49.4701C58.8647 49.5971 58.9488 49.7582 58.9819 49.933C59.0149 50.1077 58.9954 50.2884 58.9259 50.4521C58.8563 50.6158 58.7398 50.7552 58.5911 50.8527C58.4424 50.9503 58.2681 51.0016 58.0902 51.0001Z" fill="#FFDC00"/>
<path d="M58.74 49.4701L30.89 21.3701L30.43 21.8301C30.0435 22.2086 29.5386 22.4427 29 22.4931L55.74 49.4701C55.8645 49.5971 55.9486 49.7582 55.9816 49.933C56.0147 50.1077 55.9952 50.2884 55.9257 50.4521C55.8561 50.6158 55.7396 50.7552 55.5909 50.8527C55.4422 50.9503 55.2679 51.0016 55.09 51.0001H58.09C58.2679 51.0016 58.4422 50.9503 58.5909 50.8527C58.7396 50.7552 58.8561 50.6158 58.9257 50.4521C58.9952 50.2884 59.0147 50.1077 58.9816 49.933C58.9486 49.7582 58.8645 49.5971 58.74 49.4701Z" fill="#FEC108"/>
<path d="M56 51V58C55.9745 58.2884 55.8364 58.5552 55.6154 58.7424C55.3945 58.9296 55.1087 59.0222 54.82 59H5.18C4.89129 59.0222 4.60547 58.9296 4.38456 58.7424C4.16365 58.5552 4.02547 58.2884 4 58V51H56Z" fill="#FEC108"/>
<path d="M30 47C34.4183 47 38 43.4183 38 39C38 34.5817 34.4183 31 30 31C25.5817 31 22 34.5817 22 39C22 43.4183 25.5817 47 30 47Z" fill="#00BCD4"/>
<path d="M30 31C29.4966 31.0014 28.9944 31.0499 28.5 31.145C30.3249 31.4973 31.9703 32.474 33.1534 33.9074C34.3366 35.3408 34.9838 37.1414 34.9838 39C34.9838 40.8586 34.3366 42.6593 33.1534 44.0927C31.9703 45.5261 30.3249 46.5028 28.5 46.855C29.5953 47.0664 30.7226 47.0464 31.8097 46.7964C32.8968 46.5463 33.9195 46.0716 34.8123 45.4029C35.7051 44.7341 36.4481 43.8861 36.9938 42.9132C37.5394 41.9403 37.8755 40.864 37.9806 39.7535C38.0857 38.643 37.9573 37.5228 37.6038 36.4648C37.2503 35.4068 36.6795 34.4345 35.928 33.6102C35.1765 32.7859 34.2609 32.1278 33.24 31.6783C32.2191 31.2288 31.1155 30.9978 30 31Z" fill="#0377BC"/>
<path d="M9.57805e-06 28.7412C-0.000976805 29.1227 0.0742324 29.5005 0.221225 29.8526C0.368217 30.2046 0.584033 30.5237 0.85601 30.7912L2.20401 32.1482C2.7502 32.6937 3.49057 33.0001 4.26251 33.0001C5.03445 33.0001 5.77482 32.6937 6.32101 32.1482L21.144 17.3212C21.5053 17.6608 21.9843 17.8469 22.4801 17.8404C22.9759 17.8339 23.4498 17.6352 23.802 17.2862L25.152 18.5722C24.787 18.9398 24.5822 19.4367 24.5822 19.9547C24.5822 20.4727 24.787 20.9697 25.152 21.3372L26.352 22.5372C26.386 22.5722 26.427 22.5952 26.463 22.6282L0.54701 48.7702C0.284664 49.0379 0.107329 49.3771 0.0373163 49.7453C-0.0326967 50.1135 0.00773922 50.4941 0.153537 50.8394C0.299334 51.1846 0.543981 51.4791 0.856699 51.6856C1.16942 51.8922 1.53624 52.0016 1.91101 52.0002H3.00001V58.0002C3.02597 58.5541 3.26996 59.0753 3.67875 59.45C4.08754 59.8247 4.62793 60.0225 5.18201 60.0002H54.817C55.3713 60.0228 55.9119 59.8251 56.3209 59.4504C56.7299 59.0756 56.9741 58.5543 57 58.0002V52.0002H58.09C58.4653 52.0016 58.8325 51.8919 59.1455 51.6848C59.4584 51.4778 59.7031 51.1827 59.8485 50.8368C59.994 50.4909 60.0338 50.1096 59.9629 49.7411C59.8919 49.3727 59.7135 49.0334 59.45 48.7662L32.3 21.3702L34.519 19.1522C35.1521 18.5171 35.5077 17.657 35.5077 16.7602C35.5077 15.8635 35.1521 15.0033 34.519 14.3682L33.319 13.1682C32.9597 12.8126 32.4746 12.6131 31.969 12.6131C31.4635 12.6131 30.9783 12.8126 30.619 13.1682L29.269 11.8832C29.634 11.5157 29.8388 11.0187 29.8388 10.5007C29.8388 9.98273 29.634 9.48576 29.269 9.11822L22.522 2.38022C20.273 0.142216 18.075 -0.423784 14.42 0.300216C13.675 0.454111 13.0214 0.896975 12.6023 1.53181C12.1832 2.16664 12.0328 2.9417 12.184 3.68722C12.3235 4.31444 12.6688 4.87696 13.165 5.28524C13.6612 5.69352 14.2797 5.92408 14.922 5.94022C15.079 5.94022 15.267 5.93422 15.48 5.92022C16.4646 5.78127 17.4665 5.99867 18.305 6.53322L15.7 9.12222C15.3385 9.4853 15.1338 9.97575 15.1301 10.4881C15.1263 11.0005 15.3238 11.4939 15.68 11.8622L0.86301 26.6832C0.589211 26.9514 0.371812 27.2716 0.223604 27.625C0.0753966 27.9785 -0.000625935 28.358 9.57805e-06 28.7412ZM55.015 57.9412C54.9589 57.9871 54.8874 58.01 54.815 58.0052H5.18301C5.07001 58.0052 5.00801 57.9602 5.00101 57.9932V52.0002H55L55.015 57.9412ZM2.14401 50.0002L28.415 23.4912C28.5231 23.507 28.6319 23.5173 28.741 23.5222C29.5134 23.5179 30.2609 23.2482 30.858 22.7582L57.856 50.0002H2.14401ZM20.492 7.17822C20.585 7.08534 20.6587 6.97506 20.7091 6.85366C20.7594 6.73226 20.7853 6.60213 20.7853 6.47072C20.7853 6.3393 20.7594 6.20917 20.7091 6.08778C20.6587 5.96638 20.585 5.85609 20.492 5.76322C19.84 5.07401 19.0347 4.54823 18.1415 4.22853C17.2483 3.90884 16.2922 3.80424 15.351 3.92322C15.202 3.93222 15.064 3.94022 14.982 3.94022C14.7473 3.93424 14.5239 3.83829 14.358 3.67222C14.2496 3.55686 14.1725 3.41573 14.134 3.26222C14.0921 3.04081 14.139 2.81183 14.2646 2.62472C14.3901 2.43761 14.5843 2.3074 14.805 2.26222C17.81 1.66922 19.343 2.04222 21.105 3.79722L27.869 10.4532C27.6828 10.6335 27.5343 10.8491 27.4323 11.0873C27.3304 11.3256 27.2769 11.5818 27.275 11.841C27.2731 12.1002 27.3229 12.3572 27.4215 12.5969C27.5201 12.8366 27.6654 13.0543 27.849 13.2372L29.199 14.5872C29.3743 14.7681 29.5841 14.9118 29.816 15.01C30.0479 15.1082 30.2972 15.1588 30.549 15.1588C30.8008 15.1588 31.0501 15.1082 31.282 15.01C31.5139 14.9118 31.7237 14.7681 31.899 14.5872L33.099 15.7872C33.3579 16.0468 33.5033 16.3986 33.5033 16.7652C33.5033 17.1319 33.3579 17.4836 33.099 17.7432L29.72 21.1192C29.4602 21.3782 29.1083 21.5236 28.7415 21.5236C28.3747 21.5236 28.0228 21.3782 27.763 21.1192L26.548 20.0052C26.7338 19.8248 26.8818 19.6093 26.9835 19.3711C27.0851 19.133 27.1383 18.8769 27.14 18.618C27.1417 18.359 27.0918 18.1024 26.9932 17.8629C26.8947 17.6234 26.7495 17.406 26.566 17.2232L25.216 15.8722C24.852 15.5069 24.3577 15.3012 23.842 15.3002C23.5932 15.2979 23.3466 15.3476 23.1181 15.4461C22.8896 15.5446 22.6842 15.6897 22.515 15.8722L21.868 15.2342C21.859 15.2242 21.857 15.2122 21.848 15.2032L17.8 11.1552C17.745 11.1094 17.6845 11.0704 17.62 11.0392L17.112 10.5392L20.492 7.17822ZM2.27301 28.1002L17.091 13.2782L19.725 15.9112L4.90801 30.7342C4.73446 30.899 4.5043 30.9908 4.26501 30.9908C4.02572 30.9908 3.79556 30.899 3.62201 30.7342L2.26901 29.3742C2.18417 29.2918 2.11666 29.1933 2.07046 29.0844C2.02427 28.9755 2.00031 28.8585 2.00001 28.7402C2.00076 28.6208 2.02529 28.5027 2.07216 28.3928C2.11903 28.2829 2.18731 28.1834 2.27301 28.1002Z" fill="black"/>
<path d="M30 30C28.22 30 26.4799 30.5278 24.9999 31.5168C23.5198 32.5057 22.3663 33.9113 21.6851 35.5559C21.0039 37.2004 20.8257 39.01 21.1729 40.7558C21.5202 42.5016 22.3774 44.1053 23.636 45.364C24.8947 46.6226 26.4984 47.4798 28.2442 47.8271C29.99 48.1743 31.7996 47.9961 33.4442 47.3149C35.0887 46.6337 36.4943 45.4802 37.4832 44.0001C38.4722 42.5201 39 40.78 39 39C38.9974 36.6139 38.0483 34.3262 36.361 32.639C34.6738 30.9517 32.3861 30.0026 30 30ZM30 46C28.6155 46 27.2622 45.5895 26.111 44.8203C24.9599 44.0511 24.0627 42.9579 23.5328 41.6788C23.003 40.3997 22.8644 38.9922 23.1345 37.6344C23.4046 36.2765 24.0713 35.0292 25.0503 34.0503C26.0292 33.0713 27.2765 32.4046 28.6344 32.1345C29.9922 31.8644 31.3997 32.003 32.6788 32.5328C33.9579 33.0627 35.0511 33.9599 35.8203 35.111C36.5895 36.2622 37 37.6155 37 39C36.9976 40.8558 36.2594 42.6349 34.9471 43.9471C33.6349 45.2594 31.8558 45.9976 30 46Z" fill="black"/>
<path d="M31 38.465V36C31 35.7348 30.8946 35.4804 30.7071 35.2929C30.5196 35.1054 30.2652 35 30 35C29.7348 35 29.4804 35.1054 29.2929 35.2929C29.1054 35.4804 29 35.7348 29 36V39C29 39.1646 29.0406 39.3266 29.1182 39.4718C29.1958 39.6169 29.3081 39.7407 29.445 39.832L32.445 41.832C32.5543 41.9049 32.6768 41.9555 32.8056 41.9811C32.9345 42.0066 33.0671 42.0065 33.1959 41.9808C33.3247 41.955 33.4471 41.9042 33.5563 41.8311C33.6654 41.7581 33.7591 41.6643 33.832 41.555C33.9049 41.4457 33.9555 41.3232 33.9811 41.1944C34.0066 41.0655 34.0065 40.9329 33.9808 40.8041C33.955 40.6753 33.9042 40.5529 33.8311 40.4437C33.7581 40.3346 33.6643 40.2409 33.555 40.168L31 38.465Z" fill="black"/>
</g>
<defs>
<clipPath id="clip0_89_9892">
<rect width="60" height="60" fill="white"/>
</clipPath>
</defs>
</svg>
