<svg width="115" height="90" viewBox="0 0 115 90" fill="none" xmlns="http://www.w3.org/2000/svg">
<path fill-rule="evenodd" clip-rule="evenodd" d="M57.4988 0L1.4799 35.1158C0.982491 35.4178 0.488596 35.7275 0 36.0435H15.2596V47.3299V90H99.7377V36.0435L115 36.0395C95.9272 23.9208 76.6541 12.0078 57.4988 0Z" fill="#9B1915"/>
<path d="M80.9826 24H35.0175C34.4675 24 34.0215 24.446 34.0215 24.996V65.3431C34.0215 70.1165 37.905 73.9999 42.6783 73.9999C45.9983 73.9999 48.8874 72.1208 50.3392 69.3706C51.7909 72.1209 54.68 74 58 74C61.32 74 64.2091 72.1209 65.6608 69.3707C67.1127 72.1209 70.0017 74 73.3217 74C78.0951 74 81.9785 70.1165 81.9785 65.3432V24.996C81.9786 24.446 81.5326 24 80.9826 24ZM49.3432 65.3432C49.3432 69.0182 46.3533 72.008 42.6783 72.008C39.0033 72.008 36.0135 69.0182 36.0135 65.3432V57.4692C37.6026 59.3852 40.0003 60.6077 42.6783 60.6077C45.3563 60.6077 47.754 59.3854 49.3432 57.4692V65.3432ZM49.3432 51.894V51.9507C49.3432 55.6257 46.3533 58.6155 42.6783 58.6155C39.0033 58.6155 36.0135 55.6257 36.0135 51.9507V51.894V43.9635C37.6026 45.8795 40.0003 47.102 42.6783 47.102C45.3563 47.102 47.754 45.8796 49.3432 43.9635V51.894ZM49.3432 38.445C49.3432 42.12 46.3533 45.1099 42.6783 45.1099C39.0033 45.1099 36.0135 42.12 36.0135 38.445V25.992H49.3432V38.445ZM64.6648 65.3432C64.6648 69.0182 61.675 72.008 58 72.008C54.325 72.008 51.3352 69.0182 51.3352 65.3432V57.4692C52.9243 59.3852 55.322 60.6077 58 60.6077C60.678 60.6077 63.0757 59.3854 64.6648 57.4692V65.3432ZM64.6648 51.8941V51.9508C64.6648 55.6258 61.675 58.6156 58 58.6156C54.325 58.6156 51.3352 55.6258 51.3352 51.9508V51.8941V43.9636C52.9243 45.8795 55.322 47.1021 58 47.1021C60.678 47.1021 63.0757 45.8797 64.6648 43.9636V51.8941ZM64.6648 38.445C64.6648 42.12 61.675 45.1099 58 45.1099C54.325 45.1099 51.3352 42.12 51.3352 38.445V25.992H64.6648V38.445ZM79.9865 65.3432C79.9865 69.0182 76.9967 72.008 73.3217 72.008C69.6467 72.008 66.6568 69.0182 66.6568 65.3432V57.4692C68.246 59.3852 70.6437 60.6077 73.3217 60.6077C75.9997 60.6077 78.3974 59.3854 79.9865 57.4692V65.3432ZM79.9865 51.8941V51.9508C79.9865 55.6258 76.9967 58.6156 73.3217 58.6156C69.6467 58.6156 66.6568 55.6258 66.6568 51.9508V51.8941V43.9636C68.246 45.8795 70.6437 47.1021 73.3217 47.1021C75.9997 47.1021 78.3974 45.8797 79.9865 43.9636V51.8941ZM79.9865 38.445C79.9865 42.12 76.9967 45.1099 73.3217 45.1099C69.6467 45.1099 66.6568 42.12 66.6568 38.445V25.992H79.9865V38.445Z" fill="white"/>
<path d="M78.119 27.0928C77.569 27.0928 77.123 27.5388 77.123 28.0888V32.6704C77.123 33.2204 77.569 33.6664 78.119 33.6664C78.669 33.6664 79.115 33.2204 79.115 32.6704V28.0888C79.115 27.5388 78.669 27.0928 78.119 27.0928Z" fill="white"/>
<path d="M78.119 34.6621C77.569 34.6621 77.123 35.1081 77.123 35.6581V36.6541C77.123 37.2041 77.569 37.6501 78.119 37.6501C78.669 37.6501 79.115 37.2041 79.115 36.6541V35.6581C79.115 35.1082 78.669 34.6621 78.119 34.6621Z" fill="white"/>
</svg>
