<svg width="115" height="90" viewBox="0 0 115 90" fill="none" xmlns="http://www.w3.org/2000/svg">
<path fill-rule="evenodd" clip-rule="evenodd" d="M57.4988 0L1.4799 35.1158C0.982491 35.4178 0.488596 35.7275 0 36.0435H15.2596V47.3299V90H99.7377V36.0435L115 36.0395C95.9272 23.9208 76.6541 12.0078 57.4988 0Z" fill="#9B1915"/>
<g clip-path="url(#clip0_204_1763)">
<path d="M77.2069 50.7222C76.7745 50.7222 76.424 51.0727 76.424 51.5051V72.4341H53.8249C53.3925 72.4341 53.042 72.7846 53.042 73.217C53.042 73.6494 53.3924 73.9999 53.8249 73.9999H77.2069C77.6394 73.9999 77.9898 73.6494 77.9898 73.217V51.505C77.9898 51.0727 77.6393 50.7222 77.2069 50.7222Z" fill="white"/>
<path d="M82.6903 42.5308L58.4732 24.1592C58.1934 23.947 57.8065 23.947 57.5268 24.1592L47.9269 31.4418V28.9062H48.8142C49.2466 28.9062 49.5971 28.5557 49.5971 28.1232V24.7829C49.5971 24.3506 49.2467 24 48.8142 24H37.1233C36.6909 24 36.3404 24.3505 36.3404 24.7829V28.1232C36.3404 28.5556 36.6908 28.9062 37.1233 28.9062H38.0106V38.9647L33.3097 42.5308C33.042 42.7339 32.9337 43.0854 33.041 43.404C33.1481 43.7227 33.4468 43.9373 33.783 43.9373H38.0105V73.217C38.0105 73.6493 38.3609 73.9999 38.7934 73.9999H48.8143C49.2467 73.9999 49.5972 73.6494 49.5972 73.217C49.5972 72.7846 49.2468 72.4341 48.8143 72.4341H39.5762V43.1544C39.5762 42.7221 39.2258 42.3715 38.7933 42.3715H36.1102L58.0001 25.7656L79.8898 42.3717H77.2067C76.7743 42.3717 76.4238 42.7222 76.4238 43.1546V47.33C76.4238 47.7623 76.7742 48.1129 77.2067 48.1129C77.6391 48.1129 77.9896 47.7624 77.9896 47.33V43.9374H82.2171C82.5534 43.9374 82.852 43.7228 82.9591 43.4041C83.0663 43.0854 82.9581 42.734 82.6903 42.5308ZM37.9061 27.3403V25.5658H48.0313V27.3403H37.9061ZM46.3613 32.6297L39.5763 37.7769V28.9062H46.3613V32.6297Z" fill="white"/>
<path d="M74.6925 63.7145L67.5931 55.3642C67.4587 55.2059 67.2669 55.1077 67.0599 55.0909L64.7056 54.9003C64.7001 54.8999 64.6946 54.9001 64.6889 54.8998L63.1434 53.0819L66.6493 49.576L67.2766 50.2033C67.5782 50.5048 68.0824 50.5048 68.3839 50.2033L70.7458 47.8414C70.7911 47.7961 70.8305 47.7455 70.8636 47.6906L72.635 44.7381C72.8199 44.4301 72.7713 44.0356 72.5173 43.7817L71.3364 42.6009C71.0824 42.3469 70.6881 42.2981 70.3801 42.4831L67.4276 44.2546C67.3727 44.2875 67.322 44.327 67.2767 44.3724L64.9147 46.7344C64.6134 47.0357 64.6134 47.5401 64.9147 47.8415L65.5421 48.4688L62.1259 51.8851L58.4246 47.5317L59.8477 46.3219L66.4557 43.9796C66.9637 43.7995 67.1402 43.1446 66.7899 42.7337L64.3252 39.8435C63.106 38.4097 61.4017 37.5363 59.5257 37.3844C57.6492 37.2324 55.827 37.8203 54.3932 39.0392L47.0369 45.2935L46.9202 45.1562C46.5139 44.6783 45.9458 44.3871 45.3205 44.3365C44.6964 44.2861 44.0876 44.4817 43.6096 44.8882L42.1781 46.1052C41.2029 46.9343 41.0805 48.44 41.91 49.4158L47.9952 56.5732C48.8239 57.5484 50.3302 57.6708 51.3058 56.8413L52.7373 55.6243C53.2421 55.1952 53.5437 54.5652 53.5637 53.9031C53.5831 53.2579 53.3303 52.6958 52.9192 52.2123L54.6869 50.7095L58.6453 55.3656L57.1512 56.8598L56.5239 56.2325C56.377 56.0856 56.178 56.0032 55.9703 56.0032H53.6084C53.4008 56.0032 53.2017 56.0856 53.0548 56.2325L45.3049 63.9824C44.3995 64.8878 44.3994 66.3985 45.3048 67.3039L47.8142 69.8135C48.7196 70.7161 50.2308 70.7184 51.1358 69.8135L58.8859 62.0633C59.0327 61.9165 59.1151 61.7174 59.1151 61.5098V59.1478C59.1151 58.9402 59.0327 58.7411 58.8859 58.5943L58.2586 57.967L59.6631 56.5625L61.2635 58.4449L61.1266 60.1352C61.1099 60.3423 61.1762 60.5474 61.3105 60.7055L68.4098 69.0559C69.2377 70.0296 70.7462 70.1523 71.7204 69.3239L74.4244 67.0252C75.3996 66.1962 75.5221 64.6904 74.6925 63.7145ZM68.3159 45.5477L70.6616 44.1403L70.978 44.4568L69.5707 46.8025L67.8304 48.5428L66.5757 47.288L68.3159 45.5477ZM50.0288 68.7063C49.7232 69.0116 49.2267 69.0114 48.9215 68.7063H48.9216L46.412 66.1968C46.1103 65.895 46.1104 65.3913 46.4121 65.0896L53.0181 58.4836L56.6347 62.1003L50.0288 68.7063ZM57.5497 60.8009L54.3178 57.5689H55.6464L56.5977 58.5202C56.5978 58.5203 56.5979 58.5204 56.5979 58.5205C56.5979 58.5206 56.5981 58.5206 56.5982 58.5207L57.5497 59.4722V60.8009ZM59.3998 38.945C60.8589 39.0632 62.1846 39.7424 63.1334 40.8586L64.8606 42.884L59.6977 44.714L55.694 40.0047C56.7605 39.2115 58.063 38.8366 59.3998 38.945ZM51.9967 53.8979C51.9798 54.1064 51.8827 54.2958 51.7235 54.4311C51.7235 54.4311 51.7235 54.4311 51.7234 54.4311L50.2919 55.6481C49.9667 55.9246 49.4645 55.8836 49.1885 55.5588L43.1033 48.4014C42.8267 48.0761 42.8677 47.5741 43.1927 47.2978L44.6242 46.0809C44.9495 45.8042 45.4514 45.8453 45.7276 46.1702L51.8128 53.3276C51.9482 53.4869 52.0135 53.6895 51.9967 53.8979ZM51.9054 51.0193L48.0514 46.4862L54.493 41.0097L58.347 45.5428L51.9054 51.0193ZM55.8802 49.6952L57.232 48.5458L63.355 55.7477L62.003 56.8972L55.8802 49.6952ZM73.4104 65.8321C73.4104 65.8321 73.4104 65.8321 73.4103 65.8321L70.7063 68.131C70.3811 68.4074 69.8792 68.3667 69.6029 68.0416L62.7137 59.9383L62.8518 58.2305L64.9025 56.4869L66.6102 56.6252L73.4996 64.7286C73.7762 65.0538 73.7353 65.5559 73.4104 65.8321Z" fill="white"/>
</g>
<defs>
<clipPath id="clip0_204_1763">
<rect width="50" height="50" fill="white" transform="translate(33 24)"/>
</clipPath>
</defs>
</svg>
