<svg width="115" height="90" viewBox="0 0 115 90" fill="none" xmlns="http://www.w3.org/2000/svg">
<path fill-rule="evenodd" clip-rule="evenodd" d="M57.4988 0L1.4799 35.1158C0.982491 35.4178 0.488596 35.7275 0 36.0435H15.2596V47.3299V90H99.7377V36.0435L115 36.0395C95.9272 23.9208 76.6541 12.0078 57.4988 0Z" fill="#9B1915"/>
<g clip-path="url(#clip0_204_224)">
<path d="M82.7712 49.2289L68.7087 35.1664C68.6806 35.1383 68.6595 35.125 68.6361 35.1109C68.5017 35.0039 68.3361 34.9375 68.1564 34.9375H66.1361L68.7087 32.3648C68.9322 32.1414 68.9994 31.8055 68.8783 31.5133C68.758 31.2211 68.4728 31.0312 68.1564 31.0312H47.8439C47.6361 31.0312 47.4376 31.1133 47.2916 31.2602L33.2291 45.3227C33.0056 45.5461 32.9384 45.882 33.0595 46.1742C33.1806 46.4664 33.4658 46.6562 33.7814 46.6562H35.8017L33.2291 49.2289C33.0056 49.4523 32.9384 49.7883 33.0595 50.0805C33.1806 50.3727 33.4658 50.5625 33.7814 50.5625H35.3439V66.1875C35.3439 66.6195 35.6931 66.9688 36.1251 66.9688H79.8752C80.3072 66.9688 80.6564 66.6195 80.6564 66.1875V50.5625H82.2189C82.5345 50.5625 82.8197 50.3727 82.9408 50.0805C83.0619 49.7883 82.9947 49.4523 82.7712 49.2289ZM63.6986 35.1656L63.697 35.1672L60.8017 38.0625H55.9798L61.4486 32.5938H66.2705L63.6986 35.1656ZM41.9173 45.0938L47.3861 39.625H52.208L46.7392 45.0938H41.9173ZM59.2392 32.5938L53.7705 38.0625H48.9486L54.4173 32.5938H59.2392ZM54.4173 39.625H59.2392L53.7705 45.0938H48.9486L54.4173 39.625ZM48.1673 32.5938H52.208L46.7392 38.0625H42.6986L48.1673 32.5938ZM41.1361 39.625H45.1767L39.708 45.0938H35.6673L41.1361 39.625ZM38.0111 46.6562H54.0939C54.3017 46.6562 54.4994 46.5734 54.6462 46.4273L64.5736 36.5H66.2705L53.7705 49H35.6673L38.0111 46.6562ZM36.9064 50.5625H54.0939H55.6564V65.4062H36.9064V50.5625ZM65.0314 65.4062V54.4688H71.2814V65.4062H65.0314ZM79.8752 49C79.4431 49 79.0939 49.3492 79.0939 49.7812V65.4062H72.8439V53.6875C72.8439 53.2555 72.4947 52.9062 72.0627 52.9062H64.2502C63.8181 52.9062 63.4689 53.2555 63.4689 53.6875V65.4062H57.2189V49.7812C57.2189 49.3492 56.8697 49 56.4376 49H55.9798L68.1564 36.8234L80.333 49H79.8752Z" fill="white"/>
<path d="M68.1562 42.75C66.0023 42.75 64.25 44.5023 64.25 46.6562C64.25 48.8102 66.0023 50.5625 68.1562 50.5625C70.3102 50.5625 72.0625 48.8102 72.0625 46.6562C72.0625 44.5023 70.3102 42.75 68.1562 42.75ZM68.1562 49C66.8641 49 65.8125 47.9484 65.8125 46.6562C65.8125 45.3641 66.8641 44.3125 68.1562 44.3125C69.4484 44.3125 70.5 45.3641 70.5 46.6562C70.5 47.9492 69.4492 49 68.1562 49Z" fill="white"/>
<path d="M53.3125 52.9062H39.25C38.818 52.9062 38.4688 53.2555 38.4688 53.6875V61.5C38.4688 61.932 38.818 62.2812 39.25 62.2812H53.3125C53.7445 62.2812 54.0938 61.932 54.0938 61.5V53.6875C54.0938 53.2563 53.7445 52.9062 53.3125 52.9062ZM40.0312 54.4688H45.5V60.7188H40.0312V54.4688ZM52.5312 60.7188H47.0625V54.4688H52.5312V60.7188Z" fill="white"/>
</g>
<defs>
<clipPath id="clip0_204_224">
<rect width="50" height="50" fill="white" transform="translate(33 24)"/>
</clipPath>
</defs>
</svg>
