<svg width="60" height="60" viewBox="0 0 60 60" fill="none" xmlns="http://www.w3.org/2000/svg">
<g clip-path="url(#clip0_89_10372)">
<path d="M57.8743 46.7144C57.2258 42.8699 54.4999 39.7153 50.7607 38.4825L42.4574 35.7458V34.5254H40.5276V36.1943L33.773 48.7192L27.0184 36.1953V34.5254H25.0885V36.6724L32.808 50.9854V52.6553H21.2287V54.5637H32.808V57.4263H18.4623L19.2323 51.3337C20.4761 50.5246 21.2287 49.1591 21.2287 47.6591V46.9301H19.2989V47.6591C19.2989 48.6114 18.7633 49.4683 17.9026 49.8938L17.4404 50.1219L16.5169 57.4263H9.82315L10.9222 50.9034L9.01839 50.5904L7.54492 59.3347H60.0001L57.8743 46.7144ZM34.7379 57.4263V54.5637H46.3172V52.6553H34.7379V50.9854L41.9605 37.5941L46.3172 39.0292V47.6581C46.3172 49.1581 47.0699 50.5236 48.3137 51.3337L49.0837 57.4263H34.7379ZM51.029 57.4263L50.1055 50.1219L49.6433 49.8938C48.7826 49.4673 48.2471 48.6114 48.2471 47.6591V39.6657L50.1499 40.2926C53.2098 41.3022 55.4397 43.8833 55.9705 47.0283L57.7218 57.4263H51.029Z" fill="#9B1915"/>
<path d="M17.3692 21.1666C17.3692 23.6151 19.2509 25.6151 21.6555 25.8842C22.1476 27.5588 23.0566 29.0941 24.338 30.3613L28.1003 34.0818C29.0112 34.9825 30.2232 35.4797 31.5124 35.4797H36.0341C37.3232 35.4797 38.5352 34.9825 39.4461 34.0818L43.2084 30.3613C44.4899 29.0941 45.3979 27.5588 45.8909 25.8842C48.2956 25.6151 50.1772 23.6151 50.1772 21.1666C50.1772 20.0883 49.7999 19.1036 49.1872 18.304H51.1422V12.5787H48.1093C47.3422 6.94607 43.1843 2.23325 37.633 0.712244V0.174072H29.9135V0.712244C24.3631 2.23325 20.2052 6.94607 19.4371 12.5787H16.4043V18.304H18.3593C17.7465 19.1036 17.3692 20.0883 17.3692 21.1666ZM19.2991 21.1666C19.2991 19.9242 20.1087 18.8746 21.229 18.4796V22.9386C21.229 23.2506 21.2473 23.5597 21.2744 23.867C20.1309 23.4853 19.2991 22.4252 19.2991 21.1666ZM44.3876 22.9386C44.3876 25.2334 43.4834 27.389 41.844 29.0121L38.0817 32.7325C37.5346 33.2736 36.808 33.5713 36.0341 33.5713H31.5124C30.7385 33.5713 30.0109 33.2736 29.4648 32.7325L25.7025 29.0121C24.063 27.3899 23.1589 25.2334 23.1589 22.9395V18.304H44.3876V22.9386ZM46.2721 23.867C46.2991 23.5597 46.3175 23.2515 46.3175 22.9386V18.4796C47.4377 18.8746 48.2473 19.9242 48.2473 21.1666C48.2473 22.4252 47.4156 23.4853 46.2721 23.867ZM29.9135 2.6989V10.6703H31.8433V2.08248H35.7031V10.6703H37.633V2.6989C42.1045 4.13307 45.4432 7.98425 46.1689 12.5787H21.3776C22.1042 7.98329 25.4419 4.13307 29.9135 2.6989ZM18.3342 16.3956V14.4872H49.2123V16.3956H18.3342Z" fill="#9B1915"/>
<path d="M41.4924 8.76196H39.5625V10.6704H41.4924V8.76196Z" fill="#9B1915"/>
<path d="M27.9836 8.76196H26.0537V10.6704H27.9836V8.76196Z" fill="#9B1915"/>
<path d="M8.85913 48.8384H14.3004L14.7993 46.3785C15.1187 46.2678 15.4313 46.1399 15.7353 45.9978L17.8456 47.3881L21.6928 43.5836L20.2869 41.4968C20.4307 41.1972 20.56 40.887 20.6719 40.5712L23.1586 40.0779V34.6971L20.671 34.2038C20.4905 33.699 20.2705 33.2124 20.011 32.7524L18.3242 33.6809C18.607 34.1818 18.8328 34.7248 18.9958 35.2916L19.1579 35.8507L21.2287 36.2611V38.5139L19.1579 38.9242L18.9958 39.4834C18.8328 40.0512 18.607 40.5932 18.3242 41.0941L18.0376 41.6027L19.2072 43.3374L17.5967 44.93L15.8424 43.7735L15.3281 44.0569C14.8215 44.3365 14.2724 44.5598 13.6993 44.721L13.1338 44.8804L12.7189 46.93H10.4407L10.0257 44.8823L9.46029 44.723C8.88615 44.5617 8.33807 44.3384 7.83147 44.0588L7.31716 43.7754L5.5629 44.9319L3.39275 42.7869L2.02832 44.1361L5.31587 47.3881L7.4262 45.9978C7.72919 46.1399 8.04279 46.2678 8.36219 46.3785L8.85913 48.8384Z" fill="#9B1915"/>
<path d="M3.14764 42.0228L4.83435 41.0943C4.55162 40.5934 4.32583 40.0504 4.16275 39.4836L4.00064 38.9245L1.92988 38.5151V36.2622L4.00064 35.8519L4.16275 35.2928C4.32583 34.725 4.55162 34.183 4.83435 33.6821L5.12094 33.1735L3.95143 31.4387L5.56192 29.8462L7.31618 31.0027L7.83049 30.7193C8.33709 30.4397 8.88614 30.2164 9.45931 30.0551L10.0248 29.8958L10.4397 27.8462H12.7179L13.1328 29.8939L13.6983 30.0532C14.2724 30.2145 14.8205 30.4378 15.3271 30.7174L15.8414 31.0008L17.5957 29.8443L19.7658 31.9893L21.1303 30.6401L17.8427 27.3881L15.7324 28.7784C15.4294 28.6362 15.1158 28.5084 14.7964 28.3977L14.2995 25.9377H8.85815L8.35928 28.3977C8.03988 28.5084 7.72724 28.6362 7.42329 28.7784L5.31296 27.3881L1.46574 31.1926L2.87166 33.2794C2.72789 33.579 2.59858 33.8891 2.48665 34.205L0 34.6983V40.0791L2.48762 40.5724C2.66806 41.0762 2.88807 41.5629 3.14764 42.0228Z" fill="#9B1915"/>
<path d="M11.5796 32.6172C8.91924 32.6172 6.75488 34.7575 6.75488 37.3882C6.75488 40.019 8.91924 42.1592 11.5796 42.1592C14.2399 42.1592 16.4043 40.019 16.4043 37.3882C16.4043 34.7575 14.2399 32.6172 11.5796 32.6172ZM11.5796 40.2508C9.98357 40.2508 8.68476 38.9665 8.68476 37.3882C8.68476 35.81 9.98357 34.5256 11.5796 34.5256C13.1756 34.5256 14.4744 35.81 14.4744 37.3882C14.4744 38.9665 13.1756 40.2508 11.5796 40.2508Z" fill="#9B1915"/>
</g>
<defs>
<clipPath id="clip0_89_10372">
<rect width="60" height="59.3325" fill="white" transform="translate(0 0.0881348)"/>
</clipPath>
</defs>
</svg>
