<svg width="58" height="60" viewBox="0 0 58 60" fill="none" xmlns="http://www.w3.org/2000/svg">
<path fill-rule="evenodd" clip-rule="evenodd" d="M9.7038 50.7024L47.1822 50.7023C48.2307 50.7023 49.8701 50.967 50.4954 50.1252C51.1206 49.2835 50.5572 47.5705 50.2545 46.5668C47.429 37.1977 38.7333 30.374 28.443 30.374C18.1526 30.374 9.45665 37.1976 6.63138 46.5668C6.32857 47.5707 6.50259 48.5653 7.12791 49.4069C7.7531 50.2488 8.65533 50.7024 9.7038 50.7024Z" fill="#8AC9FE"/>
<path fill-rule="evenodd" clip-rule="evenodd" d="M47.1818 50.7027C48.2302 50.7027 49.8696 50.9673 50.4949 50.1256C51.1201 49.2839 50.5569 47.571 50.2541 46.5672C47.4286 37.1981 38.7328 30.3745 28.4426 30.3745C27.3532 30.3745 26.282 30.4519 25.2334 30.5996C34.0896 31.8485 41.3094 38.1899 43.8357 46.5672C44.1386 47.571 43.9645 48.5655 43.3392 49.4073C42.714 50.2492 41.8118 50.7027 40.7634 50.7027H47.1818Z" fill="#60B7FF"/>
<path d="M36.5805 27.0011C41.0777 22.504 41.0777 15.2128 36.5805 10.7157C32.0834 6.21856 24.7922 6.21856 20.2951 10.7157C15.798 15.2128 15.798 22.504 20.2951 27.0011C24.7922 31.4982 32.0834 31.4982 36.5805 27.0011Z" fill="#F6DCCD"/>
<path fill-rule="evenodd" clip-rule="evenodd" d="M28.4435 7.33984C34.8043 7.33984 39.9608 12.4963 39.9608 18.8571C39.9608 25.218 34.8042 30.3745 28.4435 30.3745C27.8989 30.3745 27.3633 30.3358 26.8389 30.2627C32.44 29.4817 36.7516 24.6733 36.7516 18.8571C36.7516 13.0409 32.44 8.23258 26.8389 7.45164C27.3633 7.37852 27.8988 7.33984 28.4435 7.33984Z" fill="#F1CBBC"/>
<path fill-rule="evenodd" clip-rule="evenodd" d="M16.0214 20.1938H40.8652C41.7809 20.1938 42.5301 19.4447 42.5301 18.529C42.5301 17.6133 41.7809 16.8642 40.8652 16.8642H40.5295C40.5537 16.5517 40.5664 16.236 40.5664 15.9172C40.5664 10.5245 37.0448 5.95561 32.1762 4.38143C32.3591 2.4735 30.0145 1.87479 28.4432 1.87549C26.872 1.87479 24.5273 2.4735 24.7102 4.38143C19.8416 5.95561 16.32 10.5246 16.32 15.9172C16.32 16.236 16.3327 16.5517 16.357 16.8642H16.0213C15.1056 16.8642 14.3564 17.6133 14.3564 18.529C14.3566 19.4447 15.1057 20.1938 16.0214 20.1938Z" fill="#FFD064"/>
<path fill-rule="evenodd" clip-rule="evenodd" d="M14.3564 18.529C14.3564 19.4447 15.1056 20.1938 16.0213 20.1938H40.8651C41.7808 20.1938 42.53 19.4447 42.53 18.529C42.53 17.6133 41.7808 16.8643 40.8651 16.8643C32.5838 16.8643 24.3026 16.8643 16.0213 16.8643C15.1056 16.8643 14.3564 17.6133 14.3564 18.529Z" fill="#FFE177"/>
<path fill-rule="evenodd" clip-rule="evenodd" d="M14.415 18.9638C14.6075 19.6704 15.2564 20.1938 16.0218 20.1938H40.8655C41.7812 20.1938 42.5304 19.4447 42.5304 18.529C42.5304 17.7637 42.007 17.1148 41.3004 16.9224C41.3382 17.0611 41.3586 17.2069 41.3586 17.3571C41.3586 18.2728 40.6094 19.0219 39.6937 19.0219C31.4124 19.0219 23.1312 19.0219 14.8499 19.0219C14.6997 19.0219 14.5538 19.0015 14.415 18.9638Z" fill="#FFD064"/>
<path fill-rule="evenodd" clip-rule="evenodd" d="M16.1077 34.8705C17.1582 35.1204 18.1616 35.537 19.0812 36.1032L21.0134 35.245L23.2907 37.5223L22.4327 39.4539C22.9991 40.3736 23.4157 41.3773 23.6657 42.4282L25.637 43.187V46.4076L23.6652 47.1665C23.4151 48.2171 22.9986 49.2204 22.4325 50.14L23.2907 52.0722L21.0134 54.3495L19.0818 53.4916C18.1621 54.0581 17.1584 54.4745 16.1074 54.7245L15.3486 56.6958H12.1281L11.3692 54.724C10.3186 54.4741 9.31523 54.0575 8.39566 53.4913L6.46348 54.3495L4.18617 52.0722L5.0441 50.1406C4.47773 49.2209 4.06125 48.2171 3.81117 47.1663L1.83984 46.4075V43.1868L3.81141 42.4279C4.06148 41.3773 4.47797 40.3737 5.04422 39.4541L4.18617 37.5222L6.46348 35.2448L8.39566 36.1029C9.31523 35.5368 10.3186 35.1202 11.3692 34.8702L12.1282 32.8984H15.3487L16.1077 34.8705Z" fill="#837683"/>
<path fill-rule="evenodd" clip-rule="evenodd" d="M8.39586 53.4912L6.46367 54.3494L6.16613 54.0518L7.97773 53.2472C8.1152 53.332 8.25465 53.4133 8.39586 53.4912ZM16.1077 34.8704C17.1583 35.1203 18.1617 35.5369 19.0813 36.103L18.532 36.3469C17.6124 35.7808 16.1909 35.1203 15.1404 34.8702L14.3814 32.8984H15.3488L16.1077 34.8704ZM19.082 53.4914C18.1623 54.0579 17.1586 54.4744 16.1076 54.7244L15.3488 56.6957H14.3814L15.1402 54.7244C16.1911 54.4744 17.613 53.8139 18.5327 53.2475L19.082 53.4914ZM6.16602 35.5423L6.46355 35.2448L8.39574 36.1029C8.25453 36.1809 8.1152 36.2622 7.97762 36.3468L6.16602 35.5423ZM20.3436 35.5423L21.0134 35.2448L23.2907 37.5221L22.4328 39.4537C22.9992 40.3734 23.4158 41.3771 23.6657 42.428L25.6371 43.1868V46.4073L23.6653 47.1663C23.4152 48.2168 22.9987 49.2202 22.4326 50.1398L23.2907 52.072L21.0134 54.3493L20.3436 54.0517L22.3234 52.0718L21.4652 50.1396C22.0313 49.2201 22.4479 48.2167 22.6979 47.1661L24.6697 46.4072V43.1867L22.6984 42.4279C22.4483 41.3771 22.0318 40.3732 21.4654 39.4536L22.3234 37.522L20.3436 35.5423Z" fill="#685E68"/>
<path d="M17.7032 48.7647C19.8962 46.5717 19.8962 43.0162 17.7032 40.8232C15.5103 38.6302 11.9547 38.6302 9.76176 40.8232C7.56878 43.0162 7.56878 46.5717 9.76176 48.7647C11.9547 50.9577 15.5103 50.9577 17.7032 48.7647Z" fill="#ECEFF1"/>
<path fill-rule="evenodd" clip-rule="evenodd" d="M13.7383 39.1812C10.6363 39.1812 8.12207 41.6954 8.12207 44.7975C8.12207 47.8994 10.6363 50.4137 13.7383 50.4137C13.8886 50.4137 14.0376 50.4076 14.185 50.396C11.2919 50.1683 9.01539 47.7491 9.01539 44.7974C9.01539 41.8456 11.2919 39.4263 14.185 39.1987C14.0376 39.1871 13.8886 39.1812 13.7383 39.1812Z" fill="#D1D1D6"/>
<path fill-rule="evenodd" clip-rule="evenodd" d="M39.8243 50.8127C40.6075 52.7308 40.2209 55.0144 38.6639 56.5714C37.202 58.0333 35.0989 58.4634 33.2596 57.8617L37.031 54.0904L36.315 51.4183L33.6429 50.7023L29.8715 54.4736C29.27 52.6343 29.6999 50.5313 31.1619 49.0693C32.7188 47.5124 35.0026 47.1257 36.9207 47.9089L45.9353 38.8942C45.1521 36.9761 45.5862 34.6449 47.0956 33.1355C48.6051 31.6261 50.6607 31.2435 52.4999 31.845L48.7285 35.6165L49.4445 38.2886L52.1166 39.0046L55.8879 35.2332C56.4896 37.0724 56.1069 39.128 54.5976 40.6375C53.0882 42.1469 50.7569 42.5811 48.8389 41.7979L39.8243 50.8127Z" fill="#8D9CA8"/>
<path fill-rule="evenodd" clip-rule="evenodd" d="M39.8242 50.8129C40.6073 52.731 40.2207 55.0146 38.6638 56.5716C37.2019 58.0335 35.0987 58.4636 33.2594 57.8619L34.1871 56.9343C35.3924 56.8333 36.5696 56.3218 37.4919 55.3997C39.0488 53.8427 39.4356 51.559 38.6523 49.641L47.6669 40.6263C49.5851 41.4095 51.9163 40.9753 53.4256 39.4659C54.3778 38.5138 54.8813 37.3443 54.9725 36.149L55.8879 35.2336C56.4895 37.0729 56.1069 39.1284 54.5975 40.6379C53.0881 42.1473 50.7568 42.5815 48.8388 41.7983L39.8242 50.8129ZM36.3149 51.4186L36.0672 50.4943L32.4709 49.5307L29.6271 52.3744C29.5679 53.0799 29.6492 53.7949 29.8713 54.474L33.6428 50.7027L36.3149 51.4186ZM50.4125 31.589L47.5565 34.4449L48.5203 38.0412L49.4445 38.2888L48.7285 35.6167L52.5 31.8452C51.8208 31.6232 51.1122 31.5355 50.4125 31.589Z" fill="#8192A5"/>
<path fill-rule="evenodd" clip-rule="evenodd" d="M13.7357 49.4747C11.1543 49.4747 9.05828 47.3758 9.05828 44.795C9.05828 42.2147 11.1543 40.1159 13.7357 40.1159C16.3171 40.1159 18.4186 42.2148 18.4186 44.795C18.4186 47.3759 16.3171 49.4747 13.7357 49.4747ZM13.7357 38.2411C10.1228 38.2411 7.18281 41.1811 7.18281 44.795C7.18281 48.4091 10.1228 51.3495 13.7357 51.3495C17.3541 51.3495 20.2941 48.409 20.2941 44.795C20.294 41.1811 17.3541 38.2411 13.7357 38.2411ZM42.1976 49.7626L48.1768 43.7823C49.0813 45.6798 49.6991 47.6825 50.0246 49.7626H42.1976ZM38.9542 51.1653C38.8108 50.815 38.8935 50.414 39.1639 50.1471L48.1768 41.133C48.4415 40.8661 48.8441 40.785 49.1917 40.9278C50.8023 41.5842 52.7054 41.1997 53.9354 39.973C54.6966 39.209 55.1323 38.2476 55.2095 37.2343L52.777 39.6657C52.5398 39.9023 52.1978 39.995 51.8724 39.9084L49.2027 39.1925C48.8773 39.1059 48.6236 38.8528 48.5409 38.529L47.8238 35.8571C47.7355 35.5339 47.8293 35.188 48.0665 34.9514L50.4989 32.52C49.4841 32.595 48.5242 33.0318 47.7576 33.7958C46.5276 35.0242 46.1469 36.9294 46.8033 38.5372C46.9468 38.8875 46.864 39.2885 46.5992 39.5543L37.5808 48.5694C37.3161 48.8369 36.9134 48.9174 36.5658 48.7746C34.9332 48.1077 33.0688 48.4828 31.8222 49.7294C31.0776 50.4785 30.6418 51.4466 30.559 52.4592L32.9805 50.0367C33.157 49.8586 33.3941 49.7625 33.6423 49.7625C33.7251 49.7625 33.8023 49.773 33.885 49.7945L36.5547 50.5104C36.8801 50.597 37.1338 50.8501 37.2166 51.1734L37.9336 53.8453C38.0219 54.1691 37.9281 54.5144 37.6909 54.751L35.2695 57.1735C36.2845 57.0914 37.2497 56.6556 37.9998 55.9065C39.2466 54.6586 39.6217 52.798 38.9542 51.1653ZM30.4984 48.4046C32.1312 46.773 34.4975 46.1861 36.6707 46.8282L44.8067 38.6924C40.6587 33.9967 34.7126 31.3093 28.4411 31.3093C24.5468 31.3093 20.7685 32.3336 17.437 34.2834C18.0216 34.4897 18.5952 34.7451 19.1413 35.0485L20.6307 34.3855C20.9891 34.2283 21.4029 34.3054 21.6732 34.5797L23.9512 36.8572C24.227 37.1313 24.3041 37.5461 24.1498 37.8997L23.4824 39.3929C23.8961 40.132 24.216 40.9131 24.4477 41.7239L25.9756 42.3097C26.3341 42.4493 26.5768 42.7973 26.5768 43.1851V46.4059C26.5768 46.7936 26.3341 47.1417 25.9756 47.2796L24.4477 47.8671C24.2602 48.5206 24.0175 49.1551 23.7086 49.7628H29.4672C29.7427 49.2729 30.0848 48.8156 30.4984 48.4046ZM20.807 53.2293L22.1695 51.8625L21.5737 50.5188C21.4469 50.2358 21.4744 49.9093 21.6344 49.6456C22.1473 48.8089 22.5224 47.9005 22.7541 46.9467C22.8258 46.6466 23.0409 46.4006 23.3277 46.2892L24.7012 45.7618V43.8279L23.3277 43.3005C23.0409 43.1891 22.8258 42.9431 22.7541 42.6419C22.5224 41.6883 22.1473 40.7798 21.6344 39.9419C21.4744 39.6799 21.4469 39.3528 21.5737 39.0704L22.1695 37.7273L20.807 36.3599L19.4611 36.9573C19.1798 37.0826 18.8543 37.0604 18.5896 36.8988C17.7512 36.3831 16.8466 36.0069 15.8924 35.7797C15.589 35.7085 15.3408 35.4929 15.2305 35.2044L14.7065 33.8332H12.7704L12.241 35.2044C12.1307 35.4929 11.888 35.7085 11.5846 35.7797C10.6304 36.0069 9.72578 36.3831 8.8873 36.8988C8.62258 37.0604 8.29715 37.0826 8.01578 36.9573L6.66988 36.3599L5.30195 37.7273L5.89762 39.0716C6.02453 39.354 6.00238 39.68 5.84242 39.9436C5.32387 40.7798 4.94887 41.6883 4.7227 42.6419C4.65098 42.9431 4.43582 43.1891 4.14906 43.3005L2.77563 43.8279V45.7618L4.14906 46.2892C4.43594 46.4006 4.65098 46.6466 4.7227 46.9467C4.94887 47.9015 5.32387 48.81 5.84242 49.6467C6.00238 49.9104 6.02441 50.2358 5.89762 50.5188L5.30195 51.8625L6.66988 53.2293L8.01578 52.6325C8.29703 52.5074 8.62246 52.5283 8.8873 52.691C9.72578 53.2057 10.6304 53.5829 11.5846 53.8107C11.888 53.8818 12.1307 54.0964 12.241 54.3849L12.7704 55.7557H14.7065L15.2305 54.3855C15.3408 54.0976 15.589 53.8818 15.8924 53.8107C16.8467 53.5829 17.7512 53.2067 18.5896 52.691C18.8543 52.5294 19.1798 52.5072 19.4611 52.6325L20.807 53.2293ZM18.1097 21.1291H38.7722C37.7297 25.9302 33.4605 29.4343 28.441 29.4343C23.4271 29.4344 19.1577 25.9302 18.1097 21.1291ZM15.2911 18.5263C15.2911 18.1258 15.6221 17.7998 16.0192 17.7998H16.3557H40.8627C41.2654 17.7998 41.5908 18.1258 41.5908 18.5263C41.5908 18.9273 41.2654 19.2543 40.8627 19.2543H16.99H16.0192C15.6221 19.2543 15.2911 18.9273 15.2911 18.5263ZM23.929 5.67923L24.6186 10.9606C24.6848 11.4742 25.1536 11.836 25.6666 11.7692C26.1796 11.7025 26.5436 11.2325 26.4774 10.7196L25.6445 4.3372C25.6005 3.97978 25.7107 3.7972 25.8045 3.67743C26.1741 3.23013 27.1559 2.90856 28.4411 2.81259C29.7263 2.90856 30.7136 3.23013 31.0777 3.67743C31.177 3.79708 31.2818 3.97966 31.2377 4.3372L30.4048 10.7196C30.3441 11.2326 30.7026 11.7025 31.2156 11.7692C31.2597 11.7753 31.2984 11.7775 31.3369 11.7775C31.8058 11.7775 32.2084 11.4328 32.2691 10.9606L32.9532 5.67923C36.9852 7.44981 39.6273 11.4307 39.6273 15.9156V15.9249H35.667V9.97767C35.667 9.4597 35.2478 9.03993 34.7293 9.03993C34.2108 9.03993 33.7915 9.4597 33.7915 9.97767V15.9249H23.0963V9.97767C23.0963 9.4597 22.6716 9.03993 22.1586 9.03993C21.6401 9.03993 21.2208 9.4597 21.2208 9.97767V15.9249H17.2547C17.2547 15.9217 17.2547 15.9178 17.2547 15.9156C17.2547 11.4306 19.897 7.44981 23.929 5.67923ZM55.2592 41.2985C56.9581 39.6002 57.5262 37.2234 56.7761 34.9398C56.6768 34.6303 56.4231 34.3947 56.1032 34.3197C55.7888 34.2437 55.4523 34.3374 55.2262 34.5679L51.8339 37.9575L50.2123 37.5212L49.771 35.8945L53.1632 32.5056C53.3949 32.275 53.4886 31.9419 53.4114 31.6241C53.3342 31.308 53.1025 31.0527 52.7936 30.9516C50.5101 30.2054 48.1272 30.7724 46.4338 32.4702C45.4961 33.4046 44.9059 34.6126 44.6963 35.884C41.6515 33.013 37.9117 31.0152 33.8741 30.0658C37.3601 28.3768 39.9582 25.1076 40.6862 21.129H40.8627C42.2969 21.129 43.4662 19.9618 43.4662 18.526C43.4662 17.312 42.6278 16.2894 41.5026 16.0031C41.5026 15.9739 41.5026 15.9446 41.5026 15.9154C41.5026 10.4497 38.1434 5.62497 33.0854 3.70661C33.0081 3.25825 32.8206 2.84563 32.5282 2.48821C31.6127 1.37118 29.8366 1.02817 28.5072 0.937705C28.4631 0.935479 28.4189 0.935479 28.3804 0.937705C27.051 1.02817 25.2749 1.37118 24.3538 2.48821C24.0614 2.84563 23.8739 3.25825 23.8022 3.70661C18.7387 5.62509 15.3795 10.4498 15.3795 15.9154V16.0031C14.2543 16.2894 13.4159 17.312 13.4159 18.526C13.4159 19.9618 14.5853 21.129 16.0195 21.129H16.1959C16.9295 25.1054 19.522 28.3725 23.0025 30.062C20.6528 30.614 18.3967 31.5248 16.3062 32.7725L16.2235 32.5596C16.0855 32.1972 15.7381 31.9584 15.3464 31.9584H12.1252C11.7391 31.9584 11.3916 32.1972 11.2537 32.5596L10.6635 34.0831C9.8527 34.3148 9.07492 34.6386 8.33582 35.0484L6.84098 34.3854C6.48801 34.2282 6.07434 34.3053 5.79848 34.5795L3.52047 36.8571C3.25023 37.1312 3.17301 37.546 3.32746 37.8996L3.98934 39.3938C3.58117 40.1319 3.25574 40.9129 3.02406 41.7238L1.50168 42.3096C1.13758 42.4491 0.900391 42.7972 0.900391 43.185V46.4058C0.900391 46.7935 1.13758 47.1416 1.50168 47.2795L3.02406 47.867C3.25574 48.6778 3.58117 49.4583 3.98934 50.1963L3.32746 51.6895C3.17301 52.0447 3.25023 52.4595 3.52047 52.7336L5.79848 55.0106C6.07434 55.2847 6.48801 55.3609 6.84098 55.2037L8.33582 54.5407C9.07492 54.9511 9.8527 55.2743 10.6635 55.5065L11.2537 57.0311C11.3916 57.393 11.7391 57.6308 12.1252 57.6308H15.3464C15.7381 57.6308 16.0855 57.393 16.2235 57.0311L16.8082 55.5077C17.6191 55.2754 18.4023 54.9522 19.1414 54.5418L20.6308 55.2037C20.9893 55.362 21.403 55.2848 21.6733 55.0106L23.9513 52.7326C24.2271 52.4585 24.3043 52.0448 24.1499 51.6895L24.1224 51.6376H28.7778C28.5848 52.6575 28.6454 53.7297 28.9819 54.7629C29.0812 55.0724 29.3349 55.3067 29.6548 55.3828C29.9692 55.4594 30.3057 55.364 30.5318 55.1346L33.9241 51.7456L35.5512 52.1813L35.9869 53.8079L32.5947 57.1968C32.363 57.4269 32.2693 57.7605 32.3465 58.0772C32.4237 58.3943 32.6554 58.6491 32.9698 58.7512C33.6096 58.9609 34.2715 59.064 34.9224 59.064C36.5495 59.064 38.1326 58.4252 39.3241 57.2321C40.8134 55.745 41.4311 53.6474 41.045 51.6374H51.0893C51.3541 51.6374 51.6078 51.5254 51.7844 51.3274C51.9664 51.1289 52.0491 50.864 52.0216 50.6004C51.7402 47.9638 51.0286 45.4303 49.9034 43.0502C51.8338 43.3339 53.8581 42.7023 55.2592 41.2985Z" fill="black"/>
</svg>
