<svg width="62" height="60" viewBox="0 0 62 60" fill="none" xmlns="http://www.w3.org/2000/svg">
<path d="M30.7489 59.8109C30.9703 59.9369 31.2174 59.9999 31.4645 59.9999C31.7117 59.9999 31.9588 59.9369 32.1802 59.8109C40.1819 55.2563 47.0019 48.2315 51.9028 39.4958C56.8003 30.7662 59.3888 21.0251 59.3888 11.3253C59.3888 10.7416 59.0223 10.2186 58.4678 10.0109L31.9726 0.0919336C31.6453 -0.0306445 31.2835 -0.0306445 30.9562 0.0919336L4.461 10.0109C3.90649 10.2185 3.54004 10.7416 3.54004 11.3253C3.54004 21.025 6.12869 30.7662 11.0261 39.4958C15.9271 48.2314 22.747 55.2563 30.7489 59.8109ZM6.40749 12.2914L31.4644 2.91076L56.5213 12.2914C56.1792 30.4333 46.2272 48.179 31.4644 56.96C16.7017 48.1788 6.74965 30.4332 6.40749 12.2914ZM46.4705 26.9042C46.4705 18.7624 39.7388 12.1385 31.4644 12.1385C23.19 12.1385 16.4583 18.7624 16.4583 26.9042C16.4583 35.046 23.19 41.6698 31.4644 41.6698C39.7388 41.6698 46.4705 35.0462 46.4705 26.9042ZM19.3166 26.9042C19.3166 20.3131 24.766 14.951 31.4644 14.951C38.1628 14.951 43.6122 20.3131 43.6122 26.9042C43.6122 33.4952 38.1628 38.8573 31.4644 38.8573C24.766 38.8573 19.3166 33.4953 19.3166 26.9042ZM38.192 24.1836L30.6409 31.6137C30.3618 31.8883 29.9961 32.0256 29.6303 32.0256C29.2646 32.0256 28.8989 31.8883 28.6198 31.6137L24.7368 27.7929C24.1788 27.2437 24.1788 26.3534 24.7368 25.8042C25.295 25.255 26.1999 25.2551 26.758 25.8042L29.6305 28.6306L36.1709 22.1948C36.7291 21.6458 37.6339 21.6456 38.1921 22.1948C38.7501 22.744 38.7501 23.6343 38.192 24.1836Z" fill="#9B1915"/>
</svg>
