<svg width="115" height="90" viewBox="0 0 115 90" fill="none" xmlns="http://www.w3.org/2000/svg">
<path fill-rule="evenodd" clip-rule="evenodd" d="M57.4988 0L1.4799 35.1158C0.982491 35.4178 0.488596 35.7275 0 36.0435H15.2596V47.3299V90H99.7377V36.0435L115 36.0395C95.9272 23.9208 76.6541 12.0078 57.4988 0Z" fill="#9B1915"/>
<path d="M79.9101 72.3146H78.5056V28.2135C78.5056 27.7479 78.1282 27.3708 77.6629 27.3708H61.9325C61.4671 27.3708 61.0898 27.7479 61.0898 28.2135V31.8651H59.4045V28.2135C59.4045 27.7479 59.0271 27.3708 58.5618 27.3708H54.9101V24.8427C54.9101 24.3771 54.5327 24 54.0674 24C53.6021 24 53.2247 24.3771 53.2247 24.8427V27.3708H49.573C49.1076 27.3708 48.7304 27.7479 48.7304 28.2135V31.8651H46.2022C45.7368 31.8651 45.3596 32.2423 45.3596 32.7078V39.7303H38.3371C37.8717 39.7303 37.4944 40.1074 37.4944 40.5729V72.3146H36.0897C35.6243 72.3146 35.2471 72.6917 35.2471 73.1572C35.2471 73.6228 35.6244 74 36.0897 74H79.9101C80.3755 74 80.7527 73.6229 80.7527 73.1573C80.7527 72.6918 80.3754 72.3146 79.9101 72.3146ZM50.4156 29.0562H57.7189V31.8651H50.4156V29.0562ZM47.6066 72.3146H47.0448V70.9102C47.0448 70.4446 46.6675 70.0675 46.2021 70.0675C45.7368 70.0675 45.3595 70.4446 45.3595 70.9102V72.3146H44.7977V69.5057H47.6066V72.3146ZM53.2246 50.6854V52.1351V72.3146H49.292V68.663C49.292 68.1975 48.9146 67.8203 48.4493 67.8203H43.955C43.4896 67.8203 43.1123 68.1975 43.1123 68.663V72.3146H39.1797V41.4157H53.2246V50.6854ZM54.0673 39.7304H47.0448V33.5506H61.0898V49.8427H54.9101V47.0337H57.4382C57.9036 47.0337 58.2809 46.6565 58.2809 46.191C58.2809 45.7255 57.9035 45.3483 57.4382 45.3483H54.9101V42.5394H57.4382C57.9036 42.5394 58.2809 42.1622 58.2809 41.6967C58.2809 41.2312 57.9035 40.854 57.4382 40.854H54.9101V40.5731C54.9101 40.1075 54.5327 39.7304 54.0673 39.7304ZM68.955 72.3146H54.9101V52.1351V51.5281H68.955V72.3146ZM76.8201 72.3146H70.6403V50.6854V49.5617C70.6403 49.0962 70.263 48.719 69.7977 48.719C69.3323 48.719 68.955 49.0962 68.955 49.5617V49.8426H67.2696V49.5617C67.2696 49.0962 66.8923 48.719 66.427 48.719C65.9616 48.719 65.5843 49.0962 65.5843 49.5617V49.8426H62.7753V32.7079V29.0562H76.8202V72.3146H76.8201Z" fill="white"/>
<path d="M58.5614 70.6295C59.0269 70.6295 59.4041 70.2521 59.4041 69.7868V54.0565C59.4041 53.591 59.0268 53.2139 58.5614 53.2139C58.0961 53.2139 57.7188 53.591 57.7188 54.0565V69.7869C57.7188 70.2522 58.096 70.6295 58.5614 70.6295Z" fill="white"/>
<path d="M61.9325 70.6295C62.3979 70.6295 62.7752 70.2521 62.7752 69.7868V54.0565C62.7752 53.591 62.3979 53.2139 61.9325 53.2139C61.4672 53.2139 61.0898 53.591 61.0898 54.0565V69.7869C61.0897 70.2522 61.4671 70.6295 61.9325 70.6295Z" fill="white"/>
<path d="M65.3036 70.6295C65.769 70.6295 66.1463 70.2521 66.1463 69.7868V54.0565C66.1463 53.591 65.7689 53.2139 65.3036 53.2139C64.8383 53.2139 64.4609 53.591 64.4609 54.0565V69.7869C64.4609 70.2522 64.8383 70.6295 65.3036 70.6295Z" fill="white"/>
<path d="M66.4267 34.6741C66.8921 34.6741 67.2693 34.297 67.2693 33.8314V32.7079C67.2693 32.2424 66.892 31.8652 66.4267 31.8652C65.9613 31.8652 65.584 32.2424 65.584 32.7079V33.8315C65.584 34.297 65.9612 34.6741 66.4267 34.6741Z" fill="white"/>
<path d="M69.7978 34.6741C70.2632 34.6741 70.6404 34.297 70.6404 33.8314V32.7079C70.6404 32.2424 70.2631 31.8652 69.7978 31.8652C69.3324 31.8652 68.9551 32.2424 68.9551 32.7079V33.8315C68.9551 34.297 69.3323 34.6741 69.7978 34.6741Z" fill="white"/>
<path d="M73.1688 34.6741C73.6343 34.6741 74.0115 34.297 74.0115 33.8314V32.7079C74.0115 32.2424 73.6342 31.8652 73.1688 31.8652C72.7035 31.8652 72.3262 32.2424 72.3262 32.7079V33.8315C72.3262 34.297 72.7034 34.6741 73.1688 34.6741Z" fill="white"/>
<path d="M66.4267 40.2921C66.8921 40.2921 67.2693 39.915 67.2693 39.4495V38.3258C67.2693 37.8603 66.892 37.4832 66.4267 37.4832C65.9613 37.4832 65.584 37.8603 65.584 38.3258V39.4495C65.584 39.915 65.9612 40.2921 66.4267 40.2921Z" fill="white"/>
<path d="M69.7978 40.2921C70.2632 40.2921 70.6404 39.915 70.6404 39.4495V38.3258C70.6404 37.8603 70.2631 37.4832 69.7978 37.4832C69.3324 37.4832 68.9551 37.8603 68.9551 38.3258V39.4495C68.9551 39.915 69.3323 40.2921 69.7978 40.2921Z" fill="white"/>
<path d="M73.1688 40.2921C73.6343 40.2921 74.0115 39.915 74.0115 39.4495V38.3258C74.0115 37.8603 73.6342 37.4832 73.1688 37.4832C72.7035 37.4832 72.3262 37.8603 72.3262 38.3258V39.4495C72.3262 39.915 72.7034 40.2921 73.1688 40.2921Z" fill="white"/>
<path d="M66.4267 45.9101C66.8921 45.9101 67.2693 45.5329 67.2693 45.0674V43.9438C67.2693 43.4782 66.892 43.1011 66.4267 43.1011C65.9613 43.1011 65.584 43.4782 65.584 43.9438V45.0674C65.584 45.5328 65.9612 45.9101 66.4267 45.9101Z" fill="white"/>
<path d="M69.7978 45.9101C70.2632 45.9101 70.6404 45.5329 70.6404 45.0674V43.9438C70.6404 43.4782 70.2631 43.1011 69.7978 43.1011C69.3324 43.1011 68.9551 43.4782 68.9551 43.9438V45.0674C68.9551 45.5328 69.3323 45.9101 69.7978 45.9101Z" fill="white"/>
<path d="M73.1688 45.9101C73.6343 45.9101 74.0115 45.5329 74.0115 45.0674V43.9438C74.0115 43.4782 73.6342 43.1011 73.1688 43.1011C72.7035 43.1011 72.3262 43.4782 72.3262 43.9438V45.0674C72.3262 45.5328 72.7034 45.9101 73.1688 45.9101Z" fill="white"/>
<path d="M42.831 48.1574C43.2964 48.1574 43.6736 47.7802 43.6736 47.3147V46.1911C43.6736 45.7255 43.2963 45.3484 42.831 45.3484C42.3656 45.3484 41.9883 45.7255 41.9883 46.1911V47.3147C41.9883 47.7801 42.3656 48.1574 42.831 48.1574Z" fill="white"/>
<path d="M46.2021 48.1574C46.6675 48.1574 47.0447 47.7802 47.0447 47.3147V46.1911C47.0447 45.7255 46.6674 45.3484 46.2021 45.3484C45.7367 45.3484 45.3594 45.7255 45.3594 46.1911V47.3147C45.3594 47.7801 45.7366 48.1574 46.2021 48.1574Z" fill="white"/>
<path d="M49.5731 48.1574C50.0386 48.1574 50.4158 47.7802 50.4158 47.3147V46.1911C50.4158 45.7255 50.0385 45.3484 49.5731 45.3484C49.1078 45.3484 48.7305 45.7255 48.7305 46.1911V47.3147C48.7305 47.7801 49.1077 48.1574 49.5731 48.1574Z" fill="white"/>
<path d="M42.831 53.7753C43.2964 53.7753 43.6736 53.3981 43.6736 52.9326V51.809C43.6736 51.3435 43.2963 50.9663 42.831 50.9663C42.3656 50.9663 41.9883 51.3435 41.9883 51.809V52.9326C41.9883 53.398 42.3656 53.7753 42.831 53.7753Z" fill="white"/>
<path d="M46.2021 53.7753C46.6675 53.7753 47.0447 53.3981 47.0447 52.9326V51.809C47.0447 51.3435 46.6674 50.9663 46.2021 50.9663C45.7367 50.9663 45.3594 51.3435 45.3594 51.809V52.9326C45.3594 53.398 45.7366 53.7753 46.2021 53.7753Z" fill="white"/>
<path d="M49.5731 53.7753C50.0386 53.7753 50.4158 53.3981 50.4158 52.9326V51.809C50.4158 51.3435 50.0385 50.9663 49.5731 50.9663C49.1078 50.9663 48.7305 51.3435 48.7305 51.809V52.9326C48.7305 53.398 49.1077 53.7753 49.5731 53.7753Z" fill="white"/>
<path d="M42.831 59.3932C43.2964 59.3932 43.6736 59.0161 43.6736 58.5505V57.4269C43.6736 56.9614 43.2963 56.5842 42.831 56.5842C42.3656 56.5842 41.9883 56.9614 41.9883 57.4269V58.5505C41.9883 59.0161 42.3656 59.3932 42.831 59.3932Z" fill="white"/>
<path d="M46.2021 59.3932C46.6675 59.3932 47.0447 59.0161 47.0447 58.5505V57.4269C47.0447 56.9614 46.6674 56.5842 46.2021 56.5842C45.7367 56.5842 45.3594 56.9614 45.3594 57.4269V58.5505C45.3594 59.0161 45.7366 59.3932 46.2021 59.3932Z" fill="white"/>
<path d="M49.5731 59.3932C50.0386 59.3932 50.4158 59.0161 50.4158 58.5505V57.4269C50.4158 56.9614 50.0385 56.5842 49.5731 56.5842C49.1078 56.5842 48.7305 56.9614 48.7305 57.4269V58.5505C48.7305 59.0161 49.1077 59.3932 49.5731 59.3932Z" fill="white"/>
<path d="M42.831 65.0111C43.2964 65.0111 43.6736 64.634 43.6736 64.1685V63.0448C43.6736 62.5793 43.2963 62.2021 42.831 62.2021C42.3656 62.2021 41.9883 62.5793 41.9883 63.0448V64.1685C41.9883 64.634 42.3656 65.0111 42.831 65.0111Z" fill="white"/>
<path d="M46.2021 65.0111C46.6675 65.0111 47.0447 64.634 47.0447 64.1685V63.0448C47.0447 62.5793 46.6674 62.2021 46.2021 62.2021C45.7367 62.2021 45.3594 62.5793 45.3594 63.0448V64.1685C45.3594 64.634 45.7366 65.0111 46.2021 65.0111Z" fill="white"/>
<path d="M49.5731 65.0111C50.0386 65.0111 50.4158 64.634 50.4158 64.1685V63.0448C50.4158 62.5793 50.0385 62.2021 49.5731 62.2021C49.1078 62.2021 48.7305 62.5793 48.7305 63.0448V64.1685C48.7305 64.634 49.1077 65.0111 49.5731 65.0111Z" fill="white"/>
<path d="M73.1688 51.5282C73.6343 51.5282 74.0115 51.1511 74.0115 50.6855V49.5619C74.0115 49.0964 73.6342 48.7192 73.1688 48.7192C72.7035 48.7192 72.3262 49.0964 72.3262 49.5619V50.6855C72.3262 51.151 72.7034 51.5282 73.1688 51.5282Z" fill="white"/>
<path d="M73.1688 57.1461C73.6343 57.1461 74.0115 56.769 74.0115 56.3035V55.1798C74.0115 54.7143 73.6342 54.3372 73.1688 54.3372C72.7035 54.3372 72.3262 54.7143 72.3262 55.1798V56.3035C72.3262 56.7689 72.7034 57.1461 73.1688 57.1461Z" fill="white"/>
<path d="M73.1688 62.7641C73.6343 62.7641 74.0115 62.3869 74.0115 61.9214V60.7978C74.0115 60.3322 73.6342 59.9551 73.1688 59.9551C72.7035 59.9551 72.3262 60.3322 72.3262 60.7978V61.9214C72.3262 62.3868 72.7034 62.7641 73.1688 62.7641Z" fill="white"/>
<path d="M73.1688 68.382C73.6343 68.382 74.0115 68.0048 74.0115 67.5393V66.4157C74.0115 65.9501 73.6342 65.573 73.1688 65.573C72.7035 65.573 72.3262 65.9501 72.3262 66.4157V67.5393C72.3262 68.0047 72.7034 68.382 73.1688 68.382Z" fill="white"/>
<path d="M58.2805 37.2023C58.2805 36.7368 57.9031 36.3596 57.4378 36.3596H50.6962C50.2308 36.3596 49.8535 36.7368 49.8535 37.2023C49.8535 37.6678 50.2309 38.045 50.6962 38.045H57.4378C57.9032 38.045 58.2805 37.6678 58.2805 37.2023Z" fill="white"/>
</svg>
