<svg width="60" height="60" viewBox="0 0 60 60" fill="none" xmlns="http://www.w3.org/2000/svg">
<path fill-rule="evenodd" clip-rule="evenodd" d="M10.7038 50.7024L48.1822 50.7023C49.2307 50.7023 50.8701 50.967 51.4954 50.1252C52.1206 49.2835 51.5572 47.5705 51.2545 46.5668C48.429 37.1977 39.7333 30.374 29.443 30.374C19.1526 30.374 10.4567 37.1976 7.63138 46.5668C7.32857 47.5707 7.50259 48.5653 8.12791 49.4069C8.7531 50.2488 9.65533 50.7024 10.7038 50.7024Z" fill="#8AC9FE"/>
<path fill-rule="evenodd" clip-rule="evenodd" d="M48.1818 50.7027C49.2302 50.7027 50.8696 50.9673 51.4949 50.1256C52.1201 49.2839 51.5569 47.571 51.2541 46.5672C48.4286 37.1981 39.7328 30.3745 29.4426 30.3745C28.3532 30.3745 27.282 30.4519 26.2334 30.5996C35.0896 31.8485 42.3094 38.1899 44.8357 46.5672C45.1386 47.571 44.9645 48.5655 44.3392 49.4073C43.714 50.2492 42.8118 50.7027 41.7634 50.7027H48.1818Z" fill="#60B7FF"/>
<path d="M37.5805 27.0011C42.0777 22.504 42.0777 15.2128 37.5805 10.7157C33.0834 6.21856 25.7922 6.21856 21.2951 10.7157C16.798 15.2128 16.798 22.504 21.2951 27.0011C25.7922 31.4982 33.0834 31.4982 37.5805 27.0011Z" fill="#F6DCCD"/>
<path fill-rule="evenodd" clip-rule="evenodd" d="M29.4435 7.33984C35.8043 7.33984 40.9608 12.4963 40.9608 18.8571C40.9608 25.218 35.8042 30.3745 29.4435 30.3745C28.8989 30.3745 28.3633 30.3358 27.8389 30.2627C33.44 29.4817 37.7516 24.6733 37.7516 18.8571C37.7516 13.0409 33.44 8.23258 27.8389 7.45164C28.3633 7.37852 28.8988 7.33984 29.4435 7.33984Z" fill="#F1CBBC"/>
<path fill-rule="evenodd" clip-rule="evenodd" d="M17.0214 20.1938H41.8652C42.7809 20.1938 43.5301 19.4447 43.5301 18.529C43.5301 17.6133 42.7809 16.8642 41.8652 16.8642H41.5295C41.5537 16.5517 41.5664 16.236 41.5664 15.9172C41.5664 10.5245 38.0448 5.95561 33.1762 4.38143C33.3591 2.4735 31.0145 1.87479 29.4432 1.87549C27.872 1.87479 25.5273 2.4735 25.7102 4.38143C20.8416 5.95561 17.32 10.5246 17.32 15.9172C17.32 16.236 17.3327 16.5517 17.357 16.8642H17.0213C16.1056 16.8642 15.3564 17.6133 15.3564 18.529C15.3566 19.4447 16.1057 20.1938 17.0214 20.1938Z" fill="#FFD064"/>
<path fill-rule="evenodd" clip-rule="evenodd" d="M15.3564 18.529C15.3564 19.4447 16.1056 20.1938 17.0213 20.1938H41.8651C42.7808 20.1938 43.53 19.4447 43.53 18.529C43.53 17.6133 42.7808 16.8643 41.8651 16.8643C33.5838 16.8643 25.3026 16.8643 17.0213 16.8643C16.1056 16.8643 15.3564 17.6133 15.3564 18.529Z" fill="#FFE177"/>
<path fill-rule="evenodd" clip-rule="evenodd" d="M15.415 18.9638C15.6075 19.6704 16.2564 20.1938 17.0218 20.1938H41.8655C42.7812 20.1938 43.5304 19.4447 43.5304 18.529C43.5304 17.7637 43.007 17.1148 42.3004 16.9224C42.3382 17.0611 42.3586 17.2069 42.3586 17.3571C42.3586 18.2728 41.6094 19.0219 40.6937 19.0219C32.4124 19.0219 24.1312 19.0219 15.8499 19.0219C15.6997 19.0219 15.5538 19.0015 15.415 18.9638Z" fill="#FFD064"/>
<path fill-rule="evenodd" clip-rule="evenodd" d="M17.1077 34.8705C18.1582 35.1204 19.1616 35.537 20.0812 36.1032L22.0134 35.245L24.2907 37.5223L23.4327 39.4539C23.9991 40.3736 24.4157 41.3773 24.6657 42.4282L26.637 43.187V46.4076L24.6652 47.1665C24.4151 48.2171 23.9986 49.2204 23.4325 50.14L24.2907 52.0722L22.0134 54.3495L20.0818 53.4916C19.1621 54.0581 18.1584 54.4745 17.1074 54.7245L16.3486 56.6958H13.1281L12.3692 54.724C11.3186 54.4741 10.3152 54.0575 9.39566 53.4913L7.46348 54.3495L5.18617 52.0722L6.0441 50.1406C5.47773 49.2209 5.06125 48.2171 4.81117 47.1663L2.83984 46.4075V43.1868L4.81141 42.4279C5.06148 41.3773 5.47797 40.3737 6.04422 39.4541L5.18617 37.5222L7.46348 35.2448L9.39566 36.1029C10.3152 35.5368 11.3186 35.1202 12.3692 34.8702L13.1282 32.8984H16.3487L17.1077 34.8705Z" fill="#837683"/>
<path fill-rule="evenodd" clip-rule="evenodd" d="M9.39586 53.4912L7.46367 54.3494L7.16613 54.0518L8.97773 53.2472C9.1152 53.332 9.25465 53.4133 9.39586 53.4912ZM17.1077 34.8704C18.1583 35.1203 19.1617 35.5369 20.0813 36.103L19.532 36.3469C18.6124 35.7808 17.1909 35.1203 16.1404 34.8702L15.3814 32.8984H16.3488L17.1077 34.8704ZM20.082 53.4914C19.1623 54.0579 18.1586 54.4744 17.1076 54.7244L16.3488 56.6957H15.3814L16.1402 54.7244C17.1911 54.4744 18.613 53.8139 19.5327 53.2475L20.082 53.4914ZM7.16602 35.5423L7.46355 35.2448L9.39574 36.1029C9.25453 36.1809 9.1152 36.2622 8.97762 36.3468L7.16602 35.5423ZM21.3436 35.5423L22.0134 35.2448L24.2907 37.5221L23.4328 39.4537C23.9992 40.3734 24.4158 41.3771 24.6657 42.428L26.6371 43.1868V46.4073L24.6653 47.1663C24.4152 48.2168 23.9987 49.2202 23.4326 50.1398L24.2907 52.072L22.0134 54.3493L21.3436 54.0517L23.3234 52.0718L22.4652 50.1396C23.0313 49.2201 23.4479 48.2167 23.6979 47.1661L25.6697 46.4072V43.1867L23.6984 42.4279C23.4483 41.3771 23.0318 40.3732 22.4654 39.4536L23.3234 37.522L21.3436 35.5423Z" fill="#685E68"/>
<path d="M18.7032 48.7647C20.8962 46.5717 20.8962 43.0162 18.7032 40.8232C16.5103 38.6302 12.9547 38.6302 10.7618 40.8232C8.56878 43.0162 8.56878 46.5717 10.7618 48.7647C12.9547 50.9577 16.5103 50.9577 18.7032 48.7647Z" fill="#ECEFF1"/>
<path fill-rule="evenodd" clip-rule="evenodd" d="M14.7383 39.1812C11.6363 39.1812 9.12207 41.6954 9.12207 44.7975C9.12207 47.8994 11.6363 50.4137 14.7383 50.4137C14.8886 50.4137 15.0376 50.4076 15.185 50.396C12.2919 50.1683 10.0154 47.7491 10.0154 44.7974C10.0154 41.8456 12.2919 39.4263 15.185 39.1987C15.0376 39.1871 14.8886 39.1812 14.7383 39.1812Z" fill="#D1D1D6"/>
<path fill-rule="evenodd" clip-rule="evenodd" d="M40.8243 50.8127C41.6075 52.7308 41.2209 55.0144 39.6639 56.5714C38.202 58.0333 36.0989 58.4634 34.2596 57.8617L38.031 54.0904L37.315 51.4183L34.6429 50.7023L30.8715 54.4736C30.27 52.6343 30.6999 50.5313 32.1619 49.0693C33.7188 47.5124 36.0026 47.1257 37.9207 47.9089L46.9353 38.8942C46.1521 36.9761 46.5862 34.6449 48.0956 33.1355C49.6051 31.6261 51.6607 31.2435 53.4999 31.845L49.7285 35.6165L50.4445 38.2886L53.1166 39.0046L56.8879 35.2332C57.4896 37.0724 57.1069 39.128 55.5976 40.6375C54.0882 42.1469 51.7569 42.5811 49.8389 41.7979L40.8243 50.8127Z" fill="#8D9CA8"/>
<path fill-rule="evenodd" clip-rule="evenodd" d="M40.8242 50.8129C41.6073 52.731 41.2207 55.0146 39.6638 56.5716C38.2019 58.0335 36.0987 58.4636 34.2594 57.8619L35.1871 56.9343C36.3924 56.8333 37.5696 56.3218 38.4919 55.3997C40.0488 53.8427 40.4356 51.559 39.6523 49.641L48.6669 40.6263C50.5851 41.4095 52.9163 40.9753 54.4256 39.4659C55.3778 38.5138 55.8813 37.3443 55.9725 36.149L56.8879 35.2336C57.4895 37.0729 57.1069 39.1284 55.5975 40.6379C54.0881 42.1473 51.7568 42.5815 49.8388 41.7983L40.8242 50.8129ZM37.3149 51.4186L37.0672 50.4943L33.4709 49.5307L30.6271 52.3744C30.5679 53.0799 30.6492 53.7949 30.8713 54.474L34.6428 50.7027L37.3149 51.4186ZM51.4125 31.589L48.5565 34.4449L49.5203 38.0412L50.4445 38.2888L49.7285 35.6167L53.5 31.8452C52.8208 31.6232 52.1122 31.5355 51.4125 31.589Z" fill="#8192A5"/>
<path fill-rule="evenodd" clip-rule="evenodd" d="M14.7357 49.4747C12.1543 49.4747 10.0583 47.3758 10.0583 44.795C10.0583 42.2147 12.1543 40.1159 14.7357 40.1159C17.3171 40.1159 19.4186 42.2148 19.4186 44.795C19.4186 47.3759 17.3171 49.4747 14.7357 49.4747ZM14.7357 38.2411C11.1228 38.2411 8.18281 41.1811 8.18281 44.795C8.18281 48.4091 11.1228 51.3495 14.7357 51.3495C18.3541 51.3495 21.2941 48.409 21.2941 44.795C21.294 41.1811 18.3541 38.2411 14.7357 38.2411ZM43.1976 49.7626L49.1768 43.7823C50.0813 45.6798 50.6991 47.6825 51.0246 49.7626H43.1976ZM39.9542 51.1653C39.8108 50.815 39.8935 50.414 40.1639 50.1471L49.1768 41.133C49.4415 40.8661 49.8441 40.785 50.1917 40.9278C51.8023 41.5842 53.7054 41.1997 54.9354 39.973C55.6966 39.209 56.1323 38.2476 56.2095 37.2343L53.777 39.6657C53.5398 39.9023 53.1978 39.995 52.8724 39.9084L50.2027 39.1925C49.8773 39.1059 49.6236 38.8528 49.5409 38.529L48.8238 35.8571C48.7355 35.5339 48.8293 35.188 49.0665 34.9514L51.4989 32.52C50.4841 32.595 49.5242 33.0318 48.7576 33.7958C47.5276 35.0242 47.1469 36.9294 47.8033 38.5372C47.9468 38.8875 47.864 39.2885 47.5992 39.5543L38.5808 48.5694C38.3161 48.8369 37.9134 48.9174 37.5658 48.7746C35.9332 48.1077 34.0688 48.4828 32.8222 49.7294C32.0776 50.4785 31.6418 51.4466 31.559 52.4592L33.9805 50.0367C34.157 49.8586 34.3941 49.7625 34.6423 49.7625C34.7251 49.7625 34.8023 49.773 34.885 49.7945L37.5547 50.5104C37.8801 50.597 38.1338 50.8501 38.2166 51.1734L38.9336 53.8453C39.0219 54.1691 38.9281 54.5144 38.6909 54.751L36.2695 57.1735C37.2845 57.0914 38.2497 56.6556 38.9998 55.9065C40.2466 54.6586 40.6217 52.798 39.9542 51.1653ZM31.4984 48.4046C33.1312 46.773 35.4975 46.1861 37.6707 46.8282L45.8067 38.6924C41.6587 33.9967 35.7126 31.3093 29.4411 31.3093C25.5468 31.3093 21.7685 32.3336 18.437 34.2834C19.0216 34.4897 19.5952 34.7451 20.1413 35.0485L21.6307 34.3855C21.9891 34.2283 22.4029 34.3054 22.6732 34.5797L24.9512 36.8572C25.227 37.1313 25.3041 37.5461 25.1498 37.8997L24.4824 39.3929C24.8961 40.132 25.216 40.9131 25.4477 41.7239L26.9756 42.3097C27.3341 42.4493 27.5768 42.7973 27.5768 43.1851V46.4059C27.5768 46.7936 27.3341 47.1417 26.9756 47.2796L25.4477 47.8671C25.2602 48.5206 25.0175 49.1551 24.7086 49.7628H30.4672C30.7427 49.2729 31.0848 48.8156 31.4984 48.4046ZM21.807 53.2293L23.1695 51.8625L22.5737 50.5188C22.4469 50.2358 22.4744 49.9093 22.6344 49.6456C23.1473 48.8089 23.5224 47.9005 23.7541 46.9467C23.8258 46.6466 24.0409 46.4006 24.3277 46.2892L25.7012 45.7618V43.8279L24.3277 43.3005C24.0409 43.1891 23.8258 42.9431 23.7541 42.6419C23.5224 41.6883 23.1473 40.7798 22.6344 39.9419C22.4744 39.6799 22.4469 39.3528 22.5737 39.0704L23.1695 37.7273L21.807 36.3599L20.4611 36.9573C20.1798 37.0826 19.8543 37.0604 19.5896 36.8988C18.7512 36.3831 17.8466 36.0069 16.8924 35.7797C16.589 35.7085 16.3408 35.4929 16.2305 35.2044L15.7065 33.8332H13.7704L13.241 35.2044C13.1307 35.4929 12.888 35.7085 12.5846 35.7797C11.6304 36.0069 10.7258 36.3831 9.8873 36.8988C9.62258 37.0604 9.29715 37.0826 9.01578 36.9573L7.66988 36.3599L6.30195 37.7273L6.89762 39.0716C7.02453 39.354 7.00238 39.68 6.84242 39.9436C6.32387 40.7798 5.94887 41.6883 5.7227 42.6419C5.65098 42.9431 5.43582 43.1891 5.14906 43.3005L3.77563 43.8279V45.7618L5.14906 46.2892C5.43594 46.4006 5.65098 46.6466 5.7227 46.9467C5.94887 47.9015 6.32387 48.81 6.84242 49.6467C7.00238 49.9104 7.02441 50.2358 6.89762 50.5188L6.30195 51.8625L7.66988 53.2293L9.01578 52.6325C9.29703 52.5074 9.62246 52.5283 9.8873 52.691C10.7258 53.2057 11.6304 53.5829 12.5846 53.8107C12.888 53.8818 13.1307 54.0964 13.241 54.3849L13.7704 55.7557H15.7065L16.2305 54.3855C16.3408 54.0976 16.589 53.8818 16.8924 53.8107C17.8467 53.5829 18.7512 53.2067 19.5896 52.691C19.8543 52.5294 20.1798 52.5072 20.4611 52.6325L21.807 53.2293ZM19.1097 21.1291H39.7722C38.7297 25.9302 34.4605 29.4343 29.441 29.4343C24.4271 29.4344 20.1577 25.9302 19.1097 21.1291ZM16.2911 18.5263C16.2911 18.1258 16.6221 17.7998 17.0192 17.7998H17.3557H41.8627C42.2654 17.7998 42.5908 18.1258 42.5908 18.5263C42.5908 18.9273 42.2654 19.2543 41.8627 19.2543H17.99H17.0192C16.6221 19.2543 16.2911 18.9273 16.2911 18.5263ZM24.929 5.67923L25.6186 10.9606C25.6848 11.4742 26.1536 11.836 26.6666 11.7692C27.1796 11.7025 27.5436 11.2325 27.4774 10.7196L26.6445 4.3372C26.6005 3.97978 26.7107 3.7972 26.8045 3.67743C27.1741 3.23013 28.1559 2.90856 29.4411 2.81259C30.7263 2.90856 31.7136 3.23013 32.0777 3.67743C32.177 3.79708 32.2818 3.97966 32.2377 4.3372L31.4048 10.7196C31.3441 11.2326 31.7026 11.7025 32.2156 11.7692C32.2597 11.7753 32.2984 11.7775 32.3369 11.7775C32.8058 11.7775 33.2084 11.4328 33.2691 10.9606L33.9532 5.67923C37.9852 7.44981 40.6273 11.4307 40.6273 15.9156V15.9249H36.667V9.97767C36.667 9.4597 36.2478 9.03993 35.7293 9.03993C35.2108 9.03993 34.7915 9.4597 34.7915 9.97767V15.9249H24.0963V9.97767C24.0963 9.4597 23.6716 9.03993 23.1586 9.03993C22.6401 9.03993 22.2208 9.4597 22.2208 9.97767V15.9249H18.2547C18.2547 15.9217 18.2547 15.9178 18.2547 15.9156C18.2547 11.4306 20.897 7.44981 24.929 5.67923ZM56.2592 41.2985C57.9581 39.6002 58.5262 37.2234 57.7761 34.9398C57.6768 34.6303 57.4231 34.3947 57.1032 34.3197C56.7888 34.2437 56.4523 34.3374 56.2262 34.5679L52.8339 37.9575L51.2123 37.5212L50.771 35.8945L54.1632 32.5056C54.3949 32.275 54.4886 31.9419 54.4114 31.6241C54.3342 31.308 54.1025 31.0527 53.7936 30.9516C51.5101 30.2054 49.1272 30.7724 47.4338 32.4702C46.4961 33.4046 45.9059 34.6126 45.6963 35.884C42.6515 33.013 38.9117 31.0152 34.8741 30.0658C38.3601 28.3768 40.9582 25.1076 41.6862 21.129H41.8627C43.2969 21.129 44.4662 19.9618 44.4662 18.526C44.4662 17.312 43.6278 16.2894 42.5026 16.0031C42.5026 15.9739 42.5026 15.9446 42.5026 15.9154C42.5026 10.4497 39.1434 5.62497 34.0854 3.70661C34.0081 3.25825 33.8206 2.84563 33.5282 2.48821C32.6127 1.37118 30.8366 1.02817 29.5072 0.937705C29.4631 0.935479 29.4189 0.935479 29.3804 0.937705C28.051 1.02817 26.2749 1.37118 25.3538 2.48821C25.0614 2.84563 24.8739 3.25825 24.8022 3.70661C19.7387 5.62509 16.3795 10.4498 16.3795 15.9154V16.0031C15.2543 16.2894 14.4159 17.312 14.4159 18.526C14.4159 19.9618 15.5853 21.129 17.0195 21.129H17.1959C17.9295 25.1054 20.522 28.3725 24.0025 30.062C21.6528 30.614 19.3967 31.5248 17.3062 32.7725L17.2235 32.5596C17.0855 32.1972 16.7381 31.9584 16.3464 31.9584H13.1252C12.7391 31.9584 12.3916 32.1972 12.2537 32.5596L11.6635 34.0831C10.8527 34.3148 10.0749 34.6386 9.33582 35.0484L7.84098 34.3854C7.48801 34.2282 7.07434 34.3053 6.79848 34.5795L4.52047 36.8571C4.25023 37.1312 4.17301 37.546 4.32746 37.8996L4.98934 39.3938C4.58117 40.1319 4.25574 40.9129 4.02406 41.7238L2.50168 42.3096C2.13758 42.4491 1.90039 42.7972 1.90039 43.185V46.4058C1.90039 46.7935 2.13758 47.1416 2.50168 47.2795L4.02406 47.867C4.25574 48.6778 4.58117 49.4583 4.98934 50.1963L4.32746 51.6895C4.17301 52.0447 4.25023 52.4595 4.52047 52.7336L6.79848 55.0106C7.07434 55.2847 7.48801 55.3609 7.84098 55.2037L9.33582 54.5407C10.0749 54.9511 10.8527 55.2743 11.6635 55.5065L12.2537 57.0311C12.3916 57.393 12.7391 57.6308 13.1252 57.6308H16.3464C16.7381 57.6308 17.0855 57.393 17.2235 57.0311L17.8082 55.5077C18.6191 55.2754 19.4023 54.9522 20.1414 54.5418L21.6308 55.2037C21.9893 55.362 22.403 55.2848 22.6733 55.0106L24.9513 52.7326C25.2271 52.4585 25.3043 52.0448 25.1499 51.6895L25.1224 51.6376H29.7778C29.5848 52.6575 29.6454 53.7297 29.9819 54.7629C30.0812 55.0724 30.3349 55.3067 30.6548 55.3828C30.9692 55.4594 31.3057 55.364 31.5318 55.1346L34.9241 51.7456L36.5512 52.1813L36.9869 53.8079L33.5947 57.1968C33.363 57.4269 33.2693 57.7605 33.3465 58.0772C33.4237 58.3943 33.6554 58.6491 33.9698 58.7512C34.6096 58.9609 35.2715 59.064 35.9224 59.064C37.5495 59.064 39.1326 58.4252 40.3241 57.2321C41.8134 55.745 42.4311 53.6474 42.045 51.6374H52.0893C52.3541 51.6374 52.6078 51.5254 52.7844 51.3274C52.9664 51.1289 53.0491 50.864 53.0216 50.6004C52.7402 47.9638 52.0286 45.4303 50.9034 43.0502C52.8338 43.3339 54.8581 42.7023 56.2592 41.2985Z" fill="black"/>
</svg>
