<svg width="60" height="60" viewBox="0 0 60 60" fill="none" xmlns="http://www.w3.org/2000/svg">
<g clip-path="url(#clip0_89_10376)">
<path d="M53.0477 31.8428C52.5288 31.8428 52.1082 32.2587 52.1082 32.7718V57.6072H24.9893C24.4704 57.6072 24.0498 58.0231 24.0498 58.5363C24.0498 59.0494 24.4703 59.4653 24.9893 59.4653H53.0477C53.5666 59.4653 53.9872 59.0494 53.9872 58.5363V32.7717C53.9872 32.2587 53.5665 31.8428 53.0477 31.8428Z" fill="white"/>
<path d="M59.6283 22.1221L30.5678 0.321459C30.2321 0.0696434 29.7678 0.0696434 29.4322 0.321459L17.9123 8.96338V5.95446H18.9771C19.496 5.95446 19.9166 5.53855 19.9166 5.02542V1.06161C19.9166 0.548591 19.4961 0.132568 18.9771 0.132568H4.94796C4.42905 0.132568 4.00847 0.548475 4.00847 1.06161V5.02542C4.00847 5.53843 4.42894 5.95446 4.94796 5.95446H6.01272V17.8905L0.37167 22.1221C0.0503417 22.3631 -0.0796193 22.7803 0.0491698 23.1583C0.177724 23.5365 0.536201 23.7912 0.93956 23.7912H6.01261V58.5359C6.01261 59.049 6.43308 59.465 6.9521 59.465H18.9772C19.4961 59.465 19.9167 59.0491 19.9167 58.5359C19.9167 58.0228 19.4962 57.6069 18.9772 57.6069H7.89147V22.8621C7.89147 22.3491 7.47101 21.9331 6.95198 21.9331H3.73226L30.0001 2.22775L56.2678 21.9333H53.048C52.5291 21.9333 52.1085 22.3492 52.1085 22.8624V27.8171C52.1085 28.3301 52.529 28.7461 53.048 28.7461C53.5669 28.7461 53.9875 28.3302 53.9875 27.8171V23.7913H59.0606C59.4641 23.7913 59.8224 23.5366 59.951 23.1585C60.0795 22.7803 59.9497 22.3633 59.6283 22.1221ZM5.88733 4.09637V1.99065H18.0376V4.09637H5.88733ZM16.0335 10.373L7.89159 16.4809V5.95446H16.0335V10.373Z" fill="white"/>
<path d="M50.031 47.2599L41.5118 37.3509C41.3504 37.1632 41.1203 37.0466 40.8719 37.0267L38.0468 36.8005C38.0401 36.8 38.0335 36.8003 38.0267 36.7999L36.1721 34.6427L40.3792 30.4824L41.132 31.2268C41.4938 31.5846 42.0989 31.5846 42.4606 31.2268L45.2949 28.4241C45.3493 28.3703 45.3967 28.3103 45.4363 28.2451L47.562 24.7415C47.7839 24.376 47.7255 23.908 47.4207 23.6067L46.0037 22.2054C45.6989 21.904 45.2257 21.8461 44.8561 22.0656L41.3131 24.1678C41.2473 24.2068 41.1863 24.2538 41.1321 24.3075L38.2977 27.1104C37.936 27.468 37.936 28.0666 38.2977 28.4242L39.0505 29.1686L34.951 33.2226L30.5095 28.0566L32.2173 26.6209L40.1469 23.8414C40.7565 23.6277 40.9683 22.8506 40.5479 22.363L37.5902 18.9334C36.1272 17.2319 34.0821 16.1955 31.8308 16.0152C29.579 15.8349 27.3924 16.5325 25.6719 17.979L16.8443 25.4007L16.7042 25.2377C16.2167 24.6706 15.5349 24.325 14.7846 24.265C14.0356 24.2052 13.3051 24.4373 12.7315 24.9196L11.0137 26.3638C9.8435 27.3476 9.69654 29.1344 10.6921 30.2923L17.9942 38.7857C18.9887 39.9429 20.7962 40.0881 21.967 39.1038L23.6847 37.6597C24.2905 37.1505 24.6525 36.4029 24.6764 35.6172C24.6997 34.8516 24.3963 34.1845 23.9031 33.6108L26.0243 31.8275L30.7744 37.3527L28.9814 39.1257L28.2287 38.3814C28.0524 38.2071 27.8136 38.1093 27.5644 38.1093H24.7301C24.4809 38.1093 24.2421 38.2071 24.0657 38.3814L14.7658 47.5778C13.6794 48.6522 13.6793 50.4449 14.7657 51.5192L17.7771 54.4972C18.8635 55.5683 20.677 55.571 21.763 54.4972L31.0631 45.3005C31.2392 45.1263 31.3381 44.89 31.3381 44.6436V41.8409C31.3381 41.5945 31.2392 41.3582 31.0631 41.184L30.3103 40.4396L31.9957 38.7729L33.9162 41.0067L33.752 43.0126C33.7319 43.2582 33.8114 43.5016 33.9726 43.6892L42.4918 53.5982C43.4852 54.7537 45.2954 54.8993 46.4645 53.9163L49.7093 51.1885C50.8795 50.2048 51.0266 48.418 50.031 47.2599ZM42.3791 25.7023L45.1939 24.0322L45.5736 24.4078L43.8848 27.1913L41.7965 29.2563L40.2908 27.7673L42.3791 25.7023ZM20.4346 53.1834C20.0679 53.5457 19.4721 53.5455 19.1058 53.1834H19.1059L16.0944 50.2055C15.7324 49.8474 15.7325 49.2497 16.0945 48.8917L24.0217 41.0526L28.3617 45.3444L20.4346 53.1834ZM29.4596 43.8024L25.5813 39.9672H27.1756L28.3173 41.0961C28.3174 41.0962 28.3175 41.0963 28.3175 41.0964C28.3175 41.0965 28.3178 41.0965 28.3179 41.0967L29.4596 42.2257V43.8024ZM31.6797 17.8672C33.4306 18.0074 35.0215 18.8134 36.1601 20.1379L38.2328 22.5413L32.0373 24.7129L27.2328 19.1246C28.5126 18.1834 30.0756 17.7385 31.6797 17.8672ZM22.796 35.6111C22.7757 35.8585 22.6592 36.0832 22.4682 36.2438C22.4682 36.2438 22.4682 36.2438 22.4681 36.2438L20.7503 37.6879C20.36 38.016 19.7574 37.9673 19.4262 37.5819L12.124 29.0885C11.7921 28.7025 11.8412 28.1069 12.2312 27.7791L13.949 26.3349C14.3394 26.0066 14.9416 26.0554 15.2731 26.4409L22.5753 34.9343C22.7379 35.1233 22.8162 35.3638 22.796 35.6111ZM22.6864 32.1952L18.0616 26.8159L25.7915 20.3172L30.4163 25.6964L22.6864 32.1952ZM27.4562 30.6239L29.0784 29.2599L36.426 37.806L34.8036 39.1701L27.4562 30.6239ZM48.4925 49.7728C48.4925 49.7728 48.4925 49.7728 48.4924 49.7728L45.2476 52.5007C44.8574 52.8287 44.255 52.7804 43.9235 52.3946L35.6564 42.7788L35.8222 40.7522L38.283 38.6833L40.3323 38.8473L48.5995 48.4633C48.9315 48.8492 48.8824 49.4449 48.4925 49.7728Z" fill="white"/>
</g>
<defs>
<clipPath id="clip0_89_10376">
<rect width="60" height="59.3325" fill="white" transform="translate(0 0.132568)"/>
</clipPath>
</defs>
</svg>
