<svg width="60" height="60" viewBox="0 0 60 60" fill="none" xmlns="http://www.w3.org/2000/svg">
<path d="M8.4375 4.65552C6.37756 4.65552 4.6875 6.32669 4.6875 8.36375C4.6875 10.4008 6.37756 12.072 8.4375 12.072C10.1722 12.072 11.6303 10.8815 12.052 9.29083H19.6875V13.7234C15.7033 16.7779 13.125 21.5427 13.125 26.9052C13.125 28.1824 13.2832 29.4217 13.559 30.6171H8.43567C8.40578 30.6157 8.37584 30.6157 8.34595 30.6171C8.11445 30.64 7.89981 30.7471 7.7438 30.9178C7.58778 31.0885 7.50154 31.3105 7.50183 31.5406V41.8704C5.89217 42.2867 4.6875 43.7305 4.6875 45.4466C4.6875 47.4837 6.37756 49.1548 8.4375 49.1548C10.4975 49.1548 12.1875 47.4837 12.1875 45.4466C12.1875 43.7318 10.9845 42.2899 9.37683 41.8723V32.464H14.1083C16.3303 38.6596 22.1404 43.1681 29.0662 43.5454V47.4329C27.4556 47.8486 26.25 49.2922 26.25 51.009C26.25 53.0461 27.94 54.7174 30 54.7174C32.06 54.7174 33.75 53.0461 33.75 51.009C33.75 49.2922 32.5444 47.8486 30.9338 47.4329V43.5454C37.8585 43.1682 43.6689 38.6616 45.8917 32.4676H50.625V41.8723C49.0164 42.2893 47.8125 43.7312 47.8125 45.4466C47.8125 47.4837 49.5025 49.1548 51.5625 49.1548C53.6224 49.1548 55.3125 47.4837 55.3125 45.4466C55.3125 43.7312 54.1085 42.2893 52.5 41.8723V31.5406C52.4981 31.0283 52.0805 30.6113 51.5625 30.6135H46.441C46.7163 29.4191 46.875 28.1812 46.875 26.9052C46.875 21.5427 44.2967 16.7779 40.3125 13.7234V9.29083H47.948C48.3698 10.8815 49.8278 12.072 51.5625 12.072C53.6224 12.072 55.3125 10.4008 55.3125 8.36375C55.3125 6.32669 53.6224 4.65552 51.5625 4.65552C49.8278 4.65552 48.3698 5.846 47.948 7.43667H39.375C38.857 7.43453 38.4391 7.85152 38.4375 8.36375V12.4759C35.9522 11.0497 33.076 10.2179 30 10.2179C26.924 10.2179 24.0478 11.0497 21.5625 12.4759V8.36375C21.5606 7.85152 21.143 7.43453 20.625 7.43667H12.052C11.6303 5.846 10.1722 4.65552 8.4375 4.65552ZM8.4375 6.50958C9.48415 6.50958 10.3125 7.32874 10.3125 8.36375C10.3125 9.39873 9.48415 10.2179 8.4375 10.2179C7.39088 10.2179 6.5625 9.39873 6.5625 8.36375C6.5625 7.32874 7.39088 6.50958 8.4375 6.50958ZM51.5625 6.50958C52.6091 6.50958 53.4375 7.32874 53.4375 8.36375C53.4375 9.39873 52.6091 10.2179 51.5625 10.2179C50.5159 10.2179 49.6875 9.39873 49.6875 8.36375C49.6875 7.32874 50.5159 6.50958 51.5625 6.50958ZM30 12.072C38.2954 12.072 45 18.7022 45 26.9052C45 35.1084 38.2954 41.7383 30 41.7383C21.7046 41.7383 15 35.1084 15 26.9052C15 18.7022 21.7046 12.072 30 12.072ZM8.4375 43.5924C9.48415 43.5924 10.3125 44.4116 10.3125 45.4466C10.3125 46.4816 9.48415 47.3008 8.4375 47.3008C7.39088 47.3008 6.5625 46.4816 6.5625 45.4466C6.5625 44.4116 7.39088 43.5924 8.4375 43.5924ZM51.5625 43.5924C52.6091 43.5924 53.4375 44.4116 53.4375 45.4466C53.4375 46.4816 52.6091 47.3008 51.5625 47.3008C50.5159 47.3008 49.6875 46.4816 49.6875 45.4466C49.6875 44.4116 50.5159 43.5924 51.5625 43.5924ZM30 49.1548C31.0466 49.1548 31.875 49.974 31.875 51.009C31.875 52.044 31.0466 52.8632 30 52.8632C28.9534 52.8632 28.125 52.044 28.125 51.009C28.125 49.974 28.9534 49.1548 30 49.1548Z" fill="#9B1915"/>
<path d="M30 13.9263C29.7505 13.9263 29.5077 14.0279 29.3353 14.1996L20.8997 22.5414C20.6251 22.8144 20.625 23.1969 20.625 23.1969C20.625 23.1969 20.625 24.124 21.5625 24.124H22.5V37.103C22.5019 37.6152 22.9196 38.032 23.4375 38.03H36.5625C37.0804 38.0319 37.4982 37.6152 37.5 37.103C37.5 32.7766 37.5 28.4503 37.5 24.124H38.4375C39.375 24.124 39.375 23.1969 39.375 23.1969C39.375 23.1969 39.3749 22.8145 39.1003 22.5414L30.6647 14.1996C30.4854 14.0212 30.2549 13.9263 30 13.9263ZM30 16.1625L36.167 22.2681H23.8348L30 16.1625ZM24.375 24.1241H26.25V32.4678H24.375V24.1241ZM28.125 24.1241H31.875V32.4678H28.125V24.1241ZM33.75 24.1241H35.625V32.4678L33.75 32.4642V24.1241ZM24.375 34.3218H35.625V36.176H24.375V34.3218Z" fill="#9B1915"/>
<path d="M30 4.65552C30.1231 4.65551 30.245 4.6795 30.3588 4.72609C30.4725 4.77268 30.5759 4.84103 30.6629 4.92712C30.75 5.01321 30.819 5.11543 30.8662 5.22791C30.9133 5.3404 30.9375 5.46096 30.9375 5.58271C30.9375 5.70446 30.9133 5.82491 30.8662 5.9374C30.819 6.04988 30.75 6.1521 30.6629 6.23819C30.5759 6.32428 30.4725 6.39263 30.3588 6.43922C30.245 6.48581 30.1231 6.5098 30 6.50979C29.8769 6.50979 29.755 6.48581 29.6412 6.43922C29.5275 6.39263 29.4241 6.32428 29.3371 6.23819C29.25 6.1521 29.181 6.04988 29.1339 5.9374C29.0867 5.82492 29.0625 5.70445 29.0625 5.58271C29.0625 5.46096 29.0867 5.34039 29.1339 5.22791C29.181 5.11544 29.25 5.01321 29.3371 4.92712C29.4241 4.84103 29.5275 4.77268 29.6412 4.72609C29.755 4.6795 29.8769 4.65552 30 4.65552Z" fill="#9B1915"/>
<path d="M26.25 4.65552C26.3731 4.65551 26.495 4.6795 26.6088 4.72609C26.7225 4.77268 26.8259 4.84103 26.9129 4.92712C27 5.01321 27.069 5.11543 27.1162 5.22791C27.1633 5.3404 27.1875 5.46096 27.1875 5.58271C27.1875 5.70446 27.1633 5.82491 27.1162 5.9374C27.069 6.04988 27 6.1521 26.9129 6.23819C26.8259 6.32428 26.7225 6.39263 26.6088 6.43922C26.495 6.48581 26.3731 6.5098 26.25 6.50979C26.1269 6.50979 26.005 6.48581 25.8912 6.43922C25.7775 6.39263 25.6741 6.32428 25.5871 6.23819C25.5 6.1521 25.431 6.04988 25.3839 5.9374C25.3367 5.82492 25.3125 5.70445 25.3125 5.58271C25.3125 5.46096 25.3367 5.34039 25.3839 5.22791C25.431 5.11544 25.5 5.01321 25.5871 4.92712C25.6741 4.84103 25.7775 4.77268 25.8912 4.72609C26.005 4.6795 26.1269 4.65552 26.25 4.65552Z" fill="#9B1915"/>
<path d="M33.75 4.65552C33.8731 4.65551 33.995 4.6795 34.1088 4.72609C34.2225 4.77268 34.3259 4.84103 34.4129 4.92712C34.5 5.01321 34.569 5.11543 34.6162 5.22791C34.6633 5.3404 34.6875 5.46096 34.6875 5.58271C34.6875 5.70446 34.6633 5.82491 34.6162 5.9374C34.569 6.04988 34.5 6.1521 34.4129 6.23819C34.3259 6.32428 34.2225 6.39263 34.1088 6.43922C33.995 6.48581 33.8731 6.5098 33.75 6.50979C33.6269 6.50979 33.505 6.48581 33.3912 6.43922C33.2775 6.39263 33.1741 6.32428 33.0871 6.23819C33 6.1521 32.931 6.04988 32.8839 5.9374C32.8367 5.82492 32.8125 5.70445 32.8125 5.58271C32.8125 5.46096 32.8367 5.34039 32.8839 5.22791C32.931 5.11544 33 5.01321 33.0871 4.92712C33.1741 4.84103 33.2775 4.77268 33.3912 4.72609C33.505 4.6795 33.6269 4.65552 33.75 4.65552Z" fill="#9B1915"/>
<path d="M50.625 53.7904C50.625 53.9121 50.6492 54.0327 50.6964 54.1452C50.7435 54.2576 50.8125 54.3599 50.8996 54.446C50.9866 54.532 51.09 54.6004 51.2037 54.647C51.3175 54.6936 51.4394 54.7176 51.5625 54.7176C51.6856 54.7176 51.8075 54.6936 51.9213 54.647C52.035 54.6004 52.1384 54.532 52.2254 54.446C52.3125 54.3599 52.3815 54.2576 52.4287 54.1452C52.4758 54.0327 52.5 53.9121 52.5 53.7904C52.5 53.6686 52.4758 53.5482 52.4287 53.4357C52.3815 53.3232 52.3125 53.221 52.2254 53.1349C52.1384 53.0488 52.035 52.9804 51.9213 52.9339C51.8075 52.8873 51.6856 52.8633 51.5625 52.8633C51.4394 52.8633 51.3175 52.8873 51.2037 52.9339C51.09 52.9804 50.9866 53.0488 50.8996 53.1349C50.8125 53.221 50.7435 53.3232 50.6964 53.4357C50.6492 53.5482 50.625 53.6686 50.625 53.7904Z" fill="#9B1915"/>
<path d="M48.75 53.7904C48.75 54.7175 47.8125 54.7176 47.8125 54.7176H38.4375C37.8123 54.7176 37.5 54.254 37.5 53.7904C37.5 53.3267 37.8122 52.8633 38.4375 52.8633H47.8125C47.8125 52.8633 48.75 52.8633 48.75 53.7904Z" fill="#9B1915"/>
<path d="M39.375 50.0821C39.375 50.2039 39.3508 50.3244 39.3037 50.4369C39.2565 50.5494 39.1875 50.6516 39.1004 50.7377C39.0134 50.8238 38.91 50.892 38.7963 50.9386C38.6826 50.9852 38.5606 51.0092 38.4375 51.0092C38.3144 51.0092 38.1925 50.9852 38.0787 50.9386C37.965 50.892 37.8616 50.8238 37.7746 50.7377C37.6875 50.6516 37.6185 50.5494 37.5714 50.4369C37.5242 50.3244 37.5 50.2039 37.5 50.0821C37.5 49.9604 37.5242 49.8398 37.5714 49.7273C37.6185 49.6148 37.6875 49.5126 37.7746 49.4265C37.8616 49.3404 37.965 49.2722 38.0787 49.2256C38.1925 49.179 38.3144 49.155 38.4375 49.155C38.5606 49.155 38.6826 49.179 38.7963 49.2256C38.91 49.2722 39.0134 49.3404 39.1004 49.4265C39.1875 49.5126 39.2565 49.6148 39.3037 49.7273C39.3508 49.8398 39.375 49.9604 39.375 50.0821Z" fill="#9B1915"/>
<path d="M41.25 50.0821C41.25 51.0092 42.1875 51.0092 42.1875 51.0092H45.9375C46.5627 51.0092 46.875 50.5457 46.875 50.0821C46.875 49.6184 46.5625 49.155 45.9375 49.155H42.1875C42.1875 49.155 41.25 49.155 41.25 50.0821Z" fill="#9B1915"/>
<path d="M7.5 53.7904C7.5 53.9121 7.52424 54.0327 7.57136 54.1452C7.61847 54.2576 7.68752 54.3599 7.77458 54.446C7.86163 54.532 7.96498 54.6004 8.07872 54.647C8.19246 54.6936 8.31437 54.7176 8.43749 54.7176C8.56061 54.7176 8.68252 54.6936 8.79627 54.647C8.91001 54.6004 9.01337 54.532 9.10042 54.446C9.18748 54.3599 9.25654 54.2576 9.30365 54.1452C9.35077 54.0327 9.37501 53.9121 9.37501 53.7904C9.37501 53.6686 9.35077 53.5482 9.30365 53.4357C9.25654 53.3232 9.18748 53.221 9.10042 53.1349C9.01337 53.0488 8.91001 52.9804 8.79627 52.9339C8.68252 52.8873 8.56061 52.8633 8.43749 52.8633C8.31437 52.8633 8.19246 52.8873 8.07872 52.9339C7.96498 52.9804 7.86163 53.0488 7.77458 53.1349C7.68752 53.221 7.61847 53.3232 7.57136 53.4357C7.52424 53.5482 7.5 53.6686 7.5 53.7904Z" fill="#9B1915"/>
<path d="M22.5 53.7904C22.5 54.7175 21.5625 54.7176 21.5625 54.7176H12.1875C11.5623 54.7176 11.25 54.254 11.25 53.7904C11.25 53.3267 11.5622 52.8633 12.1875 52.8633H21.5625C21.5625 52.8633 22.5 52.8633 22.5 53.7904Z" fill="#9B1915"/>
<path d="M22.5 50.0821C22.5 50.2039 22.4758 50.3244 22.4287 50.4369C22.3815 50.5494 22.3125 50.6516 22.2254 50.7377C22.1384 50.8238 22.035 50.892 21.9213 50.9386C21.8075 50.9852 21.6856 51.0092 21.5625 51.0092C21.4394 51.0092 21.3175 50.9852 21.2037 50.9386C21.09 50.892 20.9866 50.8238 20.8996 50.7377C20.8125 50.6516 20.7435 50.5494 20.6964 50.4369C20.6492 50.3244 20.625 50.2039 20.625 50.0821C20.625 49.9604 20.6492 49.8398 20.6964 49.7273C20.7435 49.6148 20.8125 49.5126 20.8996 49.4265C20.9866 49.3404 21.09 49.2722 21.2037 49.2256C21.3175 49.179 21.4394 49.155 21.5625 49.155C21.6856 49.155 21.8075 49.179 21.9213 49.2256C22.035 49.2722 22.1384 49.3404 22.2254 49.4265C22.3125 49.5126 22.3815 49.6148 22.4287 49.7273C22.4758 49.8398 22.5 49.9604 22.5 50.0821Z" fill="#9B1915"/>
<path d="M13.125 50.0821C13.125 51.0092 14.0625 51.0092 14.0625 51.0092H17.8125C18.4377 51.0092 18.75 50.5457 18.75 50.0821C18.75 49.6184 18.4375 49.155 17.8125 49.155H14.0625C14.0625 49.155 13.125 49.155 13.125 50.0821Z" fill="#9B1915"/>
<path d="M10.3125 22.27C10.4356 22.27 10.5575 22.294 10.6713 22.3406C10.785 22.3872 10.8884 22.4554 10.9754 22.5415C11.0625 22.6276 11.1315 22.7298 11.1786 22.8423C11.2258 22.9548 11.25 23.0754 11.25 23.1971C11.25 23.3189 11.2258 23.4394 11.1787 23.5519C11.1315 23.6644 11.0625 23.7666 10.9754 23.8527C10.8884 23.9388 10.785 24.007 10.6713 24.0536C10.5575 24.1002 10.4356 24.1242 10.3125 24.1242C10.1894 24.1242 10.0675 24.1002 9.95372 24.0536C9.83998 24.007 9.73663 23.9387 9.64958 23.8526C9.56252 23.7665 9.49347 23.6644 9.44636 23.5519C9.39924 23.4394 9.375 23.3188 9.375 23.1971C9.375 22.9512 9.47377 22.7154 9.64959 22.5415C9.8254 22.3677 10.0639 22.27 10.3125 22.27Z" fill="#9B1915"/>
<path d="M6.56249 20.4158C6.6856 20.4158 6.80751 20.4397 6.92126 20.4862C7.035 20.5328 7.13836 20.6012 7.22541 20.6873C7.31247 20.7734 7.38153 20.8756 7.42864 20.9881C7.47576 21.1005 7.50001 21.221 7.50001 21.3427C7.50001 21.4645 7.47577 21.5851 7.42865 21.6975C7.38154 21.81 7.31248 21.9122 7.22542 21.9983C7.13837 22.0844 7.03501 22.1528 6.92127 22.1994C6.80752 22.246 6.68561 22.2698 6.56249 22.2698C6.43937 22.2698 6.31746 22.2459 6.20372 22.1993C6.08998 22.1527 5.98663 22.0844 5.89957 21.9983C5.81252 21.9122 5.74347 21.81 5.69636 21.6975C5.64924 21.5851 5.625 21.4645 5.625 21.3427C5.625 21.0969 5.72377 20.8611 5.89959 20.6873C6.0754 20.5134 6.31385 20.4158 6.56249 20.4158Z" fill="#9B1915"/>
<path d="M53.4375 24.124C53.5606 24.124 53.6825 24.148 53.7963 24.1946C53.91 24.2412 54.0134 24.3094 54.1004 24.3955C54.1875 24.4816 54.2565 24.5838 54.3036 24.6963C54.3508 24.8088 54.375 24.9294 54.375 25.0511C54.375 25.1729 54.3508 25.2934 54.3037 25.4059C54.2565 25.5184 54.1875 25.6205 54.1004 25.7066C54.0134 25.7927 53.91 25.861 53.7963 25.9076C53.6825 25.9542 53.5606 25.9782 53.4375 25.9782C53.3144 25.9782 53.1925 25.9542 53.0787 25.9076C52.965 25.861 52.8616 25.7927 52.7746 25.7066C52.6875 25.6205 52.6185 25.5184 52.5714 25.4059C52.5242 25.2934 52.5 25.1729 52.5 25.0511C52.5 24.8052 52.5988 24.5694 52.7746 24.3955C52.9504 24.2217 53.1889 24.124 53.4375 24.124Z" fill="#9B1915"/>
<path d="M49.6875 22.27C49.8106 22.27 49.9325 22.294 50.0463 22.3406C50.16 22.3872 50.2634 22.4554 50.3504 22.5415C50.4375 22.6276 50.5065 22.7298 50.5536 22.8423C50.6008 22.9548 50.625 23.0754 50.625 23.1971C50.625 23.3189 50.6008 23.4394 50.5537 23.5519C50.5065 23.6644 50.4375 23.7666 50.3504 23.8527C50.2634 23.9388 50.16 24.007 50.0463 24.0536C49.9325 24.1002 49.8106 24.1242 49.6875 24.1242C49.5644 24.1242 49.4425 24.1002 49.3287 24.0536C49.215 24.007 49.1116 23.9387 49.0246 23.8526C48.9375 23.7665 48.8685 23.6644 48.8214 23.5519C48.7742 23.4394 48.75 23.3188 48.75 23.1971C48.75 22.9512 48.8488 22.7154 49.0246 22.5415C49.2004 22.3677 49.4389 22.27 49.6875 22.27Z" fill="#9B1915"/>
<path d="M6.56249 24.124C6.6856 24.124 6.80751 24.148 6.92126 24.1946C7.035 24.2412 7.13836 24.3094 7.22541 24.3955C7.31247 24.4816 7.38153 24.5838 7.42864 24.6963C7.47576 24.8088 7.50001 24.9294 7.50001 25.0511C7.50001 25.1729 7.47577 25.2934 7.42865 25.4059C7.38154 25.5184 7.31248 25.6205 7.22542 25.7066C7.13837 25.7927 7.03501 25.861 6.92127 25.9076C6.80752 25.9542 6.68561 25.9782 6.56249 25.9782C6.43937 25.9782 6.31746 25.9542 6.20372 25.9076C6.08998 25.861 5.98663 25.7927 5.89957 25.7066C5.81252 25.6205 5.74347 25.5184 5.69636 25.4059C5.64924 25.2934 5.625 25.1729 5.625 25.0511C5.625 24.8052 5.72377 24.5694 5.89959 24.3955C6.0754 24.2217 6.31385 24.124 6.56249 24.124Z" fill="#9B1915"/>
<path d="M53.4375 20.4158C53.5606 20.4158 53.6825 20.4397 53.7963 20.4862C53.91 20.5328 54.0134 20.6012 54.1004 20.6873C54.1875 20.7734 54.2565 20.8756 54.3036 20.9881C54.3508 21.1005 54.375 21.221 54.375 21.3427C54.375 21.4645 54.3508 21.5851 54.3037 21.6975C54.2565 21.81 54.1875 21.9122 54.1004 21.9983C54.0134 22.0844 53.91 22.1528 53.7963 22.1994C53.6825 22.246 53.5606 22.2698 53.4375 22.2698C53.3144 22.2698 53.1925 22.2459 53.0787 22.1993C52.965 22.1527 52.8616 22.0844 52.7746 21.9983C52.6875 21.9122 52.6185 21.81 52.5714 21.6975C52.5242 21.5851 52.5 21.4645 52.5 21.3427C52.5 21.0969 52.5988 20.8611 52.7746 20.6873C52.9504 20.5134 53.1889 20.4158 53.4375 20.4158Z" fill="#9B1915"/>
</svg>
