<svg width="50" height="50" viewBox="0 0 50 50" fill="none" xmlns="http://www.w3.org/2000/svg">
<g clip-path="url(#clip0_89_10631)">
<path d="M9.17213 49.9998C12.7276 50.0027 15.9629 47.947 17.4707 44.7275C18.9789 41.5085 18.4872 37.707 16.2098 34.9772L18.0914 33.0952L16.9134 31.9172L15.0318 33.7993C11.9242 31.2079 7.48492 30.9614 4.10968 33.1928C0.734449 35.4243 -0.777858 39.6053 0.389116 43.4796C1.55609 47.3539 5.12616 50.0039 9.17213 49.9998ZM9.17213 33.3392C13.3129 33.3392 16.6694 36.6962 16.6694 40.8365C16.6694 44.9773 13.3129 48.3338 9.17213 48.3338C5.03179 48.3338 1.67486 44.9773 1.67486 40.8365C1.67974 36.6978 5.03342 33.3441 9.17213 33.3392Z" fill="white"/>
<path d="M9.17216 18.3446C11.3145 18.3458 13.389 17.5933 15.0318 16.2189L16.9135 18.1005L18.0914 16.9226L16.2098 15.0409C18.9525 11.7414 19.0371 6.97992 16.4128 3.58516C13.7884 0.190404 9.15915 -0.927352 5.27507 0.89612C1.39099 2.71959 -0.706232 6.99538 0.228893 11.1829C1.16442 15.3704 4.88174 18.347 9.17216 18.3446ZM9.17216 1.684C13.3129 1.684 16.6694 5.04093 16.6694 9.18127C16.6694 13.322 13.3129 16.6785 9.17216 16.6785C5.03183 16.6785 1.6749 13.322 1.6749 9.18127C1.67978 5.04256 5.03346 1.68888 9.17216 1.684Z" fill="white"/>
<path d="M34.1627 25.0089C34.166 20.0518 30.2262 15.9908 25.2711 15.8439C20.316 15.6971 16.1424 19.5177 15.8519 24.4663C15.5615 29.4152 19.2593 33.6975 24.1973 34.1315C24.4629 34.1576 24.7305 34.1722 24.9994 34.1722C25.2687 34.1722 25.5359 34.1576 25.8019 34.1315C30.5292 33.7122 34.1562 29.7553 34.1627 25.0089ZM29.1645 31.0337C28.1505 31.8509 26.9185 32.352 25.6217 32.4748C25.4159 32.4923 25.2097 32.5062 24.9994 32.5062C24.7895 32.5062 24.5829 32.4923 24.3775 32.4748C23.0807 32.352 21.8487 31.8509 20.8342 31.0337V30.9784C21.3476 29.5076 22.1855 28.1706 23.2862 27.0675L23.8218 26.5318C24.1468 26.2064 24.1468 25.6792 23.8218 25.3538C23.171 24.7034 23.1706 23.6483 23.8214 22.9975C24.4722 22.3471 25.527 22.3471 26.1778 22.9975C26.8282 23.6483 26.8282 24.7034 26.1774 25.3538C25.8524 25.6792 25.8524 26.2064 26.1774 26.5318L26.713 27.0675C27.8133 28.1706 28.6512 29.5076 29.1645 30.9784V31.0337ZM27.891 25.8895L27.8711 25.8688C28.6952 24.4691 28.3897 22.6794 27.1487 21.6316C25.9073 20.5842 24.0919 20.5842 22.8505 21.6316C21.6091 22.6794 21.304 24.4691 22.1281 25.8688L22.1082 25.8895C20.9429 27.0662 20.0325 28.4712 19.435 30.0156C16.7265 27.0158 16.8831 22.4093 19.7889 19.6007C22.6951 16.7917 27.3041 16.7917 30.2099 19.6007C33.1161 22.4093 33.2727 27.0158 30.5642 30.0156C29.9663 28.4712 29.0563 27.0662 27.891 25.8895Z" fill="white"/>
<path d="M9.17198 13.3467C11.4726 13.3467 13.3371 11.4821 13.3371 9.1815C13.3371 6.88132 11.4726 5.01636 9.17198 5.01636C6.8718 5.01636 5.00684 6.88132 5.00684 9.1815C5.00968 11.4809 6.87302 13.3442 9.17198 13.3467ZM9.17198 6.68242C10.5525 6.68242 11.6711 7.80139 11.6711 9.1815C11.6711 10.562 10.5525 11.6806 9.17198 11.6806C7.79187 11.6806 6.6729 10.562 6.6729 9.1815C6.6729 7.80139 7.79187 6.68242 9.17198 6.68242Z" fill="white"/>
<path d="M5.83987 45.0017H12.5041C12.9641 45.0017 13.3371 44.6287 13.3371 44.1686V37.5044C13.3371 37.0444 12.9641 36.6714 12.5041 36.6714H5.83987C5.37983 36.6714 5.00684 37.0444 5.00684 37.5044V44.1686C5.00684 44.6287 5.37983 45.0017 5.83987 45.0017ZM6.6729 38.3374H11.6711V43.3356H6.6729V38.3374Z" fill="white"/>
<path d="M41.5509 5.4328C41.3906 5.18997 41.1189 5.04395 40.8277 5.04395C40.5368 5.04395 40.2651 5.18997 40.1049 5.4328L36.7727 11.264C36.6239 11.5223 36.6239 11.84 36.7731 12.0979C36.9224 12.3557 37.1978 12.5144 37.4955 12.5136H44.1598C44.4579 12.5144 44.7333 12.3557 44.8826 12.0979C45.0319 11.84 45.0319 11.5223 44.883 11.264L41.5509 5.4328ZM38.931 10.8475L40.8277 7.5288L42.7248 10.8475H38.931Z" fill="white"/>
<path d="M40.8273 49.9998C44.8737 50.0039 48.4438 47.3539 49.6107 43.4796C50.7777 39.6053 49.2654 35.4243 45.8902 33.1928C42.5145 30.9614 38.0756 31.2079 34.9681 33.7993L33.086 31.9172L31.9081 33.0952L33.7901 34.9772C31.5123 37.707 31.0209 41.5085 32.5288 44.7275C34.037 47.947 37.2723 50.0027 40.8273 49.9998ZM40.8273 33.3392C44.9681 33.3392 48.3246 36.6962 48.3246 40.8365C48.3246 44.9773 44.9681 48.3338 40.8273 48.3338C36.687 48.3338 33.3301 44.9773 33.3301 40.8365C33.3349 36.6978 36.6886 33.3441 40.8273 33.3392Z" fill="white"/>
<path d="M40.3278 45.6684C40.6239 45.8905 41.031 45.8905 41.3272 45.6684L44.6593 43.1693C44.8692 43.0119 44.9924 42.765 44.9924 42.5027V39.1705C44.9924 38.9086 44.8692 38.6617 44.6593 38.5043L41.3272 36.0052C41.031 35.7831 40.6239 35.7831 40.3278 36.0052L36.9956 38.5043C36.7858 38.6617 36.6621 38.9086 36.6621 39.1705V42.5027C36.6621 42.765 36.7858 43.0119 36.9956 43.1693L40.3278 45.6684ZM38.3282 39.5871L40.8273 37.7127L43.3263 39.5871V42.0861L40.8273 43.9605L38.3282 42.0861V39.5871Z" fill="white"/>
<path d="M6.67285 20.8438H8.33891V22.5098H6.67285V20.8438Z" fill="white"/>
<path d="M6.67285 24.176H8.33891V25.8421H6.67285V24.176Z" fill="white"/>
<path d="M6.67285 27.5081H8.33891V29.1741H6.67285V27.5081Z" fill="white"/>
<path d="M44.1592 20.8438H45.8252V22.5098H44.1592V20.8438Z" fill="white"/>
<path d="M44.1592 24.176H45.8252V25.8421H44.1592V24.176Z" fill="white"/>
<path d="M44.1592 27.5081H45.8252V29.1741H44.1592V27.5081Z" fill="white"/>
<path d="M20.835 4.18311H22.501V5.84916H20.835V4.18311Z" fill="white"/>
<path d="M24.167 4.18311H25.8331V5.84916H24.167V4.18311Z" fill="white"/>
<path d="M27.499 4.18311H29.1651V5.84916H27.499V4.18311Z" fill="white"/>
<path d="M20.835 44.1687H22.501V45.8348H20.835V44.1687Z" fill="white"/>
<path d="M24.167 44.1687H25.8331V45.8348H24.167V44.1687Z" fill="white"/>
<path d="M27.499 44.1687H29.1651V45.8348H27.499V44.1687Z" fill="white"/>
<path d="M40.8273 0.0180664C37.5054 0.0184732 34.4434 1.81713 32.8253 4.7185C31.2072 7.61987 31.2865 11.17 33.0319 13.9965L32.5072 17.3844C32.4702 17.6248 32.5398 17.8692 32.698 18.0539C32.8562 18.2386 33.0872 18.3447 33.3301 18.3447C33.3886 18.3451 33.4472 18.339 33.5042 18.3264L37.1173 17.552C38.2839 18.0754 39.5485 18.3455 40.8273 18.3447C45.8882 18.3447 49.9907 14.2422 49.9907 9.18139C49.9907 4.12098 45.8882 0.0180664 40.8273 0.0180664ZM40.8273 16.6787C39.7019 16.6783 38.591 16.422 37.5786 15.929C37.4659 15.8741 37.3419 15.8456 37.2162 15.8456C37.158 15.846 37.0994 15.8521 37.0421 15.8639L34.3409 16.4472L34.7289 13.9432C34.7606 13.7366 34.7138 13.5255 34.5971 13.3518C32.6841 10.4932 32.9616 6.69979 35.2699 4.14986C37.5782 1.59993 41.3256 0.947903 44.3596 2.56841C47.3935 4.1885 48.936 7.66542 48.1005 11.002C47.2654 14.3386 44.2672 16.6791 40.8273 16.6787Z" fill="white"/>
</g>
<defs>
<clipPath id="clip0_89_10631">
<rect width="50" height="50" fill="white"/>
</clipPath>
</defs>
</svg>
